<svg width="126" height="33" viewBox="0 0 126 33" fill="none" xmlns="http://www.w3.org/2000/svg">
<path d="M13.8818 0H0V33L13.8818 0Z" fill="#B3B3B3"/>
<path d="M23.6487 0H37.5124V33L23.6487 0Z" fill="#B3B3B3"/>
<path d="M18.7652 12.1626L27.6007 33H21.8038L19.1631 26.3658H12.697L18.7652 12.1626Z" fill="#B3B3B3"/>
<path d="M60.1594 20.9858L61.7963 25.6512C61.8506 25.7681 61.9319 25.822 62.0766 25.822H65.2238C65.3956 25.822 65.4227 25.7411 65.3956 25.5703L58.8933 7.61855C58.8662 7.47472 58.8391 7.44775 58.6944 7.44775H54.7876C54.6791 7.44775 54.6157 7.52866 54.6157 7.64552C54.5615 8.58941 54.4801 8.87707 54.3625 9.15573L48.5656 25.5434C48.5385 25.7411 48.6018 25.822 48.7646 25.822H51.5771C51.749 25.822 51.8304 25.7681 51.8937 25.5973L53.4401 20.9858H60.1594ZM54.3354 17.9384C55.1855 15.3854 56.3069 12.1132 56.7591 10.2435H56.7862C57.3469 12.2031 58.6672 16.0865 59.2641 17.9384H54.3354Z" fill="#B3B3B3"/>
<path d="M73.7548 26.1008C75.4459 26.1008 77.2456 25.7951 79.0724 25.0131C79.217 24.9591 79.2442 24.8962 79.2442 24.7614C79.1899 24.258 79.1266 23.5298 79.1266 22.9725V6.07245C79.1266 5.96458 79.1266 5.91064 78.991 5.91064H75.9252C75.8077 5.91064 75.7534 5.96458 75.7534 6.10841V11.8346C75.2741 11.7807 74.9395 11.7537 74.5416 11.7537C69.5948 11.7537 66.5562 14.9989 66.5562 19.0531C66.5562 23.7546 69.6762 26.1008 73.7548 26.1008ZM75.7534 22.9725C75.247 23.1343 74.6863 23.1972 74.1165 23.1972C71.8737 23.1972 70.0379 21.9387 70.0379 18.8823C70.0379 16.1765 71.928 14.5764 74.433 14.5764C74.9395 14.5764 75.3826 14.6303 75.7534 14.7742V22.9725Z" fill="#B3B3B3"/>
<path d="M89.0244 11.7539C84.8011 11.7539 82.1875 14.9721 82.1875 18.9454C82.1875 22.4962 84.2675 26.101 88.9611 26.101C92.9312 26.101 95.7166 23.1974 95.7166 18.8555C95.7166 15.026 93.3562 11.7539 89.0244 11.7539ZM88.8526 14.5766C91.24 14.5766 92.2529 16.6172 92.2529 18.9454C92.2529 21.822 90.7607 23.2513 89.0244 23.2513C86.8811 23.2513 85.615 21.4624 85.615 18.8825C85.615 16.2306 86.9625 14.5766 88.8526 14.5766Z" fill="#B3B3B3"/>
<path d="M98.8862 5.91064C98.7687 5.91064 98.6873 5.96458 98.6873 6.10841V25.2378C98.6873 25.3187 98.7687 25.4625 98.8862 25.4895C100.234 25.903 101.644 26.1008 103.1 26.1008C107.27 26.1008 111.321 23.5298 111.321 18.3519C111.321 14.6034 108.735 11.7537 104.683 11.7537C103.752 11.7537 102.883 11.8976 102.124 12.1493L102.088 6.13538C102.088 5.93761 102.033 5.91064 101.834 5.91064H98.8862ZM107.857 18.6935C107.857 21.7949 105.723 23.2512 103.417 23.2512C102.938 23.2512 102.513 23.2242 102.124 23.1073V14.945C102.567 14.7742 103.1 14.6303 104.086 14.6303C106.311 14.6303 107.857 16.0327 107.857 18.6935Z" fill="#B3B3B3"/>
<path d="M122.762 19.7005C124.137 19.7005 125.267 19.6735 125.656 19.5837C125.801 19.5567 125.855 19.5027 125.882 19.3859C125.964 19.0802 126 18.442 126 17.6599C126 14.9991 124.39 11.7539 120.23 11.7539C115.98 11.7539 113.619 15.1968 113.619 19.0802C113.619 22.5232 115.446 26.101 120.565 26.101C122.482 26.101 123.721 25.7953 124.788 25.2919C124.897 25.238 124.951 25.1481 124.951 24.9863V22.658C124.951 22.5232 124.869 22.4962 124.788 22.5501C123.721 22.9996 122.563 23.2244 121.297 23.2244C118.431 23.2244 117.128 21.6512 117.047 19.7005H122.762ZM117.047 17.2914C117.273 15.925 118.141 14.4417 120.085 14.4417C122.229 14.4417 122.789 16.2306 122.789 17.0397C122.789 17.0666 122.789 17.1835 122.789 17.2644C122.672 17.2914 122.31 17.2914 121.243 17.2914H117.047Z" fill="#B3B3B3"/>
</svg>
