<svg width="214" height="32" viewBox="0 0 214 32" fill="none" xmlns="http://www.w3.org/2000/svg">
<path d="M6.45103 19.4676L4.76075 24.6782C4.68993 24.854 4.58495 24.9596 4.37313 24.9596H0.29C0.0433845 24.9596 -0.0268126 24.8186 0.00859566 24.6073L7.04924 4.29484C7.19025 3.90783 7.33064 3.48541 7.40146 2.14797C7.40146 2.00696 7.50706 1.90137 7.61266 1.90137H13.2451C13.4209 1.90137 13.4917 1.93677 13.5271 2.11257L21.5182 24.6428C21.5884 24.8186 21.5536 24.9596 21.3424 24.9596H16.7654C16.5542 24.9596 16.4486 24.8888 16.3784 24.7136L14.5831 19.4682L6.45103 19.4676ZM13.2805 15.067C12.576 12.7437 11.1684 8.48419 10.4994 5.98449H10.4646C9.90116 8.34318 8.63392 12.2157 7.71889 15.067H13.2805Z" fill="#B3B3B3"/>
<path d="M21.7524 16.3697C21.7524 11.3361 25.5194 7.11133 31.9618 7.11133C32.2432 7.11133 32.5954 7.14675 33.1234 7.18153V0.247105C33.1234 0.0713067 33.229 0.000488281 33.3694 0.000488281H37.8054C37.9812 0.000488281 38.0166 0.0713119 38.0166 0.211702V21.0174C38.0166 21.8269 38.052 22.8829 38.1576 23.5873C38.1576 23.7631 38.1222 23.8333 37.911 23.9042C35.4821 24.9248 33.1589 25.3124 30.976 25.3124C25.7654 25.3112 21.7524 22.3543 21.7524 16.3697ZM33.1234 11.3703C32.7712 11.2292 32.314 11.1945 31.8208 11.1945C29.1099 11.1945 26.7866 12.8487 26.7866 16.123C26.7866 19.608 28.7937 21.1218 31.4686 21.1218C32.0668 21.1218 32.6302 21.0864 33.1234 20.9106V11.3703Z" fill="#B3B3B3"/>
<path d="M57.8555 16.1232C57.8555 21.6506 54.2644 25.3113 49.1948 25.3113C43.1754 25.3113 40.4993 20.7697 40.4993 16.2288C40.4993 11.23 43.8438 7.11084 49.265 7.11084C54.9334 7.11146 57.8555 11.3704 57.8555 16.1232ZM45.4639 16.1586C45.4639 19.2559 46.9069 21.2276 49.2656 21.2276C51.3075 21.2276 52.8567 19.4671 52.8567 16.2288C52.8567 13.4831 51.7305 11.1952 49.0544 11.1952C47.0125 11.1952 45.4639 13.0253 45.4639 16.1586Z" fill="#B3B3B3"/>
<path d="M64.9306 0C65.212 0 65.2822 0.03541 65.2822 0.281404V7.49847C66.1978 7.25185 67.1837 7.11083 68.2397 7.11083C73.4149 7.11083 76.6886 10.7722 76.6886 15.4895C76.6886 22.0724 71.478 25.3113 66.127 25.3113C64.2616 25.3113 62.3955 25.0647 60.6002 24.5019C60.494 24.4665 60.389 24.2907 60.389 24.1496V0.246617C60.389 0.0708184 60.4592 0 60.635 0H64.9306ZM67.3595 11.2654C66.2333 11.2654 65.74 11.4412 65.2822 11.5468V21.0871C65.7052 21.1927 66.1624 21.2282 66.5849 21.2282C69.2604 21.2282 71.6899 19.6087 71.6899 15.948C71.6899 12.7439 69.8238 11.2654 67.3595 11.2654Z" fill="#B3B3B3"/>
<path d="M83.2485 17.4959C83.4243 19.503 84.8332 21.1572 88.2827 21.1572C89.8668 21.1572 91.275 20.9106 92.6125 20.3478C92.7187 20.277 92.8237 20.3124 92.8237 20.5236V23.8681C92.8237 24.1141 92.7529 24.2203 92.5771 24.2905C91.1688 24.9596 89.6201 25.3118 87.1913 25.3118C80.573 25.3118 78.2491 20.7702 78.2491 16.4051C78.2491 11.5467 81.2414 7.11133 86.7682 7.11133C92.0838 7.11133 94.1965 11.2299 94.1965 14.7154C94.1965 15.8068 94.1263 16.6865 94.0207 17.0741C93.9859 17.2499 93.9151 17.3201 93.7393 17.3555C93.2815 17.4263 91.9441 17.4965 90.1134 17.4965L83.2485 17.4959ZM87.8249 14.0818C88.9511 14.0818 89.4443 14.0464 89.5847 14.011V13.765C89.5847 12.9201 88.9157 10.9839 86.5924 10.9839C84.3741 10.9839 83.4237 12.6387 83.2131 14.0818H87.8249Z" fill="#B3B3B3"/>
<path d="M119.472 24.6429C119.437 24.9243 119.367 24.9597 119.12 24.9597H104.792C104.581 24.9597 104.511 24.8541 104.511 24.6429V2.21769C104.511 2.00648 104.581 1.90088 104.792 1.90088H118.698C118.98 1.90088 119.05 1.93628 119.086 2.1829L119.473 5.98463C119.508 6.16043 119.473 6.30144 119.227 6.30144H109.405V11.0188H118.382C118.558 11.0188 118.663 11.089 118.663 11.3002V15.1728C118.663 15.384 118.522 15.4187 118.382 15.4187H109.405V20.5585H119.79C120.072 20.5585 120.107 20.6648 120.072 20.8753L119.472 24.6429Z" fill="#B3B3B3"/>
<path d="M120.816 7.8156C120.71 7.67459 120.746 7.46338 120.992 7.46338H125.885C126.167 7.46338 126.238 7.53358 126.343 7.74478L129.336 13.5536H129.406L132.575 7.67459C132.645 7.46339 132.716 7.46338 132.891 7.46338H137.186C137.398 7.46338 137.503 7.6044 137.398 7.7802C136.236 9.71647 133.455 14.1872 132.188 16.0527C133.807 18.5524 136.587 22.8473 137.82 24.6426C137.926 24.8184 137.855 24.9594 137.609 24.9594H132.575C132.363 24.9594 132.188 24.8538 132.117 24.6426L128.984 18.7984H128.948L125.674 24.7476C125.603 24.8886 125.498 24.9588 125.251 24.9588H120.886C120.675 24.9588 120.605 24.783 120.71 24.6066C122.119 22.4597 124.547 18.4809 125.99 16.2987L120.816 7.8156Z" fill="#B3B3B3"/>
<path d="M155.599 15.6657C155.599 22.1081 150.319 25.3116 144.827 25.3116C144.651 25.3116 144.405 25.3116 144.158 25.2762V31.2608C144.158 31.4366 144.123 31.5422 143.877 31.5776C142.434 31.7187 139.723 31.9646 139.512 32.0001C139.3 32.0001 139.266 31.9299 139.266 31.7541V11.0539C139.266 10.5613 139.195 9.25866 139.16 8.73065C139.16 8.69524 139.16 8.58964 139.301 8.55486C141.096 7.95664 143.631 7.11182 146.694 7.11182C152.819 7.1112 155.599 11.2651 155.599 15.6657ZM144.158 11.5465V21.1577C144.44 21.2279 144.967 21.2279 145.284 21.2279C147.713 21.2279 150.565 19.8196 150.565 15.9825C150.565 12.9548 149.016 11.2651 146.27 11.2651C145.461 11.2651 144.863 11.3353 144.158 11.5465Z" fill="#B3B3B3"/>
<path d="M161.903 7.46306C162.149 7.46306 162.255 7.56867 162.325 7.77988C162.501 8.2377 162.677 8.9763 162.713 9.75155C163.874 8.37809 165.811 7.11084 168.31 7.11084C168.521 7.11084 168.591 7.18104 168.591 7.39224V11.722C168.591 11.8978 168.521 11.9686 168.274 11.9686C165.74 11.8624 163.698 12.6376 162.959 13.4818L162.923 24.677C162.923 24.8883 162.853 24.9585 162.606 24.9585H158.382C158.1 24.9585 158.03 24.8528 158.03 24.6416V12.496C158.03 10.9828 157.995 8.94089 157.854 7.70843C157.854 7.53264 157.89 7.46244 158.065 7.46244L161.903 7.46306Z" fill="#B3B3B3"/>
<path d="M174.258 17.4959C174.434 19.503 175.843 21.1572 179.292 21.1572C180.876 21.1572 182.285 20.9106 183.622 20.3478C183.728 20.277 183.833 20.3124 183.833 20.5236V23.8681C183.833 24.1141 183.762 24.2203 183.587 24.2905C182.178 24.9596 180.63 25.3118 178.201 25.3118C171.583 25.3118 169.259 20.7702 169.259 16.4051C169.259 11.5467 172.251 7.11133 177.779 7.11133C183.094 7.11133 185.206 11.2299 185.206 14.7154C185.206 15.8068 185.136 16.6865 185.03 17.0741C184.996 17.2499 184.925 17.3201 184.749 17.3555C184.291 17.4263 182.954 17.4965 181.123 17.4965L174.258 17.4959ZM178.835 14.0818C179.961 14.0818 180.455 14.0464 180.595 14.011V13.765C180.595 12.9201 179.926 10.9839 177.603 10.9839C175.384 10.9839 174.434 12.6387 174.223 14.0818H178.835Z" fill="#B3B3B3"/>
<path d="M193.679 11.0179C192.024 11.0179 191.496 11.6162 191.496 12.2144C191.496 12.8126 191.954 13.271 193.995 14.045C198.256 15.5937 199.593 17.2486 199.593 19.7476C199.593 23.0921 196.988 25.3098 192.341 25.3098C190.194 25.3098 188.328 24.9222 187.237 24.324C187.061 24.2184 186.991 24.1128 186.991 23.9364V20.1346C186.991 19.9234 187.132 19.8178 187.272 19.9234C188.892 20.9447 190.863 21.3317 192.447 21.3317C194.102 21.3317 194.841 20.8738 194.841 20.1346C194.841 19.4656 194.243 18.973 192.166 18.1984C188.188 16.7199 186.885 15.0303 186.885 12.4952C186.885 9.74946 189.103 7.10938 193.75 7.10938C195.827 7.10938 197.446 7.39078 198.326 7.81381C198.538 7.91942 198.573 8.09522 198.573 8.27164V11.792C198.573 12.0032 198.432 12.1442 198.221 12.038C197.058 11.4404 195.263 11.0179 193.679 11.0179Z" fill="#B3B3B3"/>
<path d="M207.889 11.0179C206.234 11.0179 205.707 11.6162 205.707 12.2144C205.707 12.8126 206.165 13.271 208.206 14.045C212.466 15.5937 213.804 17.2486 213.804 19.7476C213.804 23.0921 211.199 25.3098 206.552 25.3098C204.405 25.3098 202.539 24.9222 201.447 24.324C201.272 24.2184 201.201 24.1128 201.201 23.9364V20.1346C201.201 19.9234 201.342 19.8178 201.483 19.9234C203.102 20.9447 205.074 21.3317 206.658 21.3317C208.312 21.3317 209.052 20.8738 209.052 20.1346C209.052 19.4656 208.454 18.973 206.377 18.1984C202.398 16.7199 201.096 15.0303 201.096 12.4952C201.096 9.74946 203.314 7.10938 207.961 7.10938C210.038 7.10938 211.657 7.39078 212.537 7.81381C212.748 7.91942 212.784 8.09522 212.784 8.27164V11.792C212.784 12.0032 212.643 12.1442 212.431 12.038C211.269 11.4404 209.474 11.0179 207.889 11.0179Z" fill="#B3B3B3"/>
</svg>
