<svg width="127" height="31" viewBox="0 0 127 31" fill="none" xmlns="http://www.w3.org/2000/svg">
<path fill-rule="evenodd" clip-rule="evenodd" d="M0 7.06129L13.7772 0L27.7143 7.06129L13.7772 14.1859L0 7.06129ZM82.7594 10.5128V10.3544C82.7594 8.01124 84.1339 7.28294 86.4674 7.44127V3.1665C80.8734 2.84985 78.2202 5.6047 78.2202 10.3544V10.5128H75.6949V14.7559H78.2202V27.6435H82.7274V14.7559H85.4125H86.4674H87.9378V27.6435H92.445V14.7559H96.153V10.5128H92.445V10.3544C92.445 8.01124 93.8195 7.28294 96.153 7.44127V3.1665C90.559 2.81818 87.9059 5.6047 87.9059 10.3228V10.4811H86.4354H85.3806H82.7594V10.5128ZM51.1452 15.1675C52.5837 14.0276 53.4468 12.4127 53.4468 10.3544C53.4468 6.33299 50.1543 3.60981 45.9987 3.60981H36.3451V27.6118H46.7659C51.0174 27.6118 54.4377 24.762 54.4377 20.6456C54.4057 18.1757 53.1271 16.2758 51.1452 15.1675ZM46.0307 8.0429C47.597 8.0429 48.6519 9.18284 48.6519 10.7028C48.6519 12.2227 47.5331 13.3626 46.0307 13.3626H41.2039V8.0429H46.0307ZM46.7659 23.2104H41.2039V17.5741H46.7659C48.4281 17.5741 49.6109 18.7773 49.6109 20.3922C49.6109 22.0072 48.4281 23.2104 46.7659 23.2104ZM68.5346 10.4811V19.7273C68.5346 22.7038 66.8724 23.9704 64.6668 23.9704C62.6209 23.9704 61.1825 22.7671 61.1825 20.4239V10.4811H56.6753V21.0255C56.6753 25.5853 59.5522 28.1185 63.3242 28.1185C65.6897 28.1185 67.5117 27.2635 68.5346 25.712V27.6435H73.0418V10.4811H68.5346ZM114.949 20.8672H101.715C102.386 23.1154 104.272 24.097 106.638 24.097C108.396 24.097 109.834 23.3687 110.57 22.3871L114.214 24.4454C112.583 26.7886 109.962 28.1185 106.574 28.1185C100.692 28.1185 96.9841 24.1604 96.9841 19.0623C96.9841 13.9326 100.724 10.0061 106.254 10.0061C111.433 10.0061 115.141 14.0276 115.141 19.0623C115.109 19.7273 115.045 20.2972 114.949 20.8672ZM106.222 13.9959C103.793 13.9959 102.131 15.2625 101.619 17.4474H110.57C110.026 14.9775 108.14 13.9959 106.222 13.9959ZM121.662 13.4576V10.5128H117.155V27.6752H121.662V19.4423C121.662 15.8325 124.635 14.7875 127 15.0725V10.1645C124.762 10.1645 122.557 11.1144 121.662 13.4576ZM13.7772 26.3136L4.37931 21.2472L0 23.5904L13.7772 31L27.7143 23.5904L23.2711 21.2472L13.7772 26.3136ZM4.37931 13.2993L13.7772 17.8907L23.303 13.2993L27.7463 15.4525L13.7772 22.1338L0 15.4208L4.37931 13.2993Z" fill="#B3B3B3"/>
</svg>
