<svg width="96" height="31" viewBox="0 0 96 31" fill="none" xmlns="http://www.w3.org/2000/svg">
<path d="M95.3699 21.1672C95.2255 21.1672 95.0811 21.2641 94.9849 21.5063C94.0225 24.3156 92.6752 26.0109 91.5685 26.0109C90.943 26.0109 90.7024 25.2844 90.7024 24.2188C90.7024 21.4578 92.3384 15.5969 93.1564 12.8844C93.2527 12.5453 93.3008 12.2547 93.3008 12.0125C93.3008 11.2375 92.8677 10.85 91.8091 10.85C90.7024 10.85 89.4513 11.2859 88.2965 13.3688C87.9116 11.5281 86.6605 10.7531 84.9283 10.7531C82.9554 10.7531 81.0307 12.0609 79.4428 14.1438C77.8549 16.2266 75.9783 16.9047 74.5829 16.5656C75.5934 14.0953 75.9783 12.2063 75.9783 10.85C75.9783 8.67031 74.9197 7.3625 73.1875 7.3625C70.5891 7.3625 69.0974 9.88125 69.0974 12.4969C69.0974 14.5312 70.0117 16.6141 72.0326 17.6313C70.3485 21.4578 67.8945 24.9453 66.9321 24.9453C65.7292 24.9453 65.3442 18.9875 65.4405 14.725C65.4886 12.3031 65.6811 12.1578 65.6811 11.4313C65.6811 10.9953 65.3923 10.7047 64.2856 10.7047C61.7354 10.7047 60.9174 12.8844 60.8211 15.4031C60.773 16.3719 60.6287 17.2922 60.3881 18.2125C59.3295 22.0391 57.1161 24.9937 55.6725 24.9937C54.9989 24.9937 54.8064 24.3156 54.8064 23.4438C54.8064 20.6828 56.3462 17.1953 56.3462 14.2406C56.3462 12.0609 55.3838 10.7047 53.6034 10.7047C51.4862 10.7047 48.7435 13.2234 46.097 17.9219C46.9632 14.3375 47.3 10.85 44.7497 10.85C44.1723 10.85 43.643 10.9953 43.1618 11.2859C42.825 11.4312 42.6325 11.7703 42.6325 12.1578C42.8731 15.9844 39.553 25.8172 36.4253 25.8172C35.8479 25.8172 35.5592 25.1875 35.5592 24.1703C35.5592 21.4094 37.1952 15.5484 38.0132 12.8359C38.1094 12.4969 38.1576 12.2063 38.1576 11.9156C38.1576 11.1891 37.7245 10.8016 36.6659 10.8016C35.5592 10.8016 34.3081 11.2375 33.1533 13.3203C32.7202 11.4797 31.5173 10.7047 29.785 10.7047C26.9461 10.7047 23.8184 13.7078 22.423 17.6313C20.5464 22.8625 16.8413 27.9484 11.7889 27.9484C7.2177 27.9484 4.8118 24.1219 4.8118 18.0672C4.8118 9.3 11.2115 2.17969 15.9271 2.17969C18.1886 2.17969 19.2472 3.63281 19.2472 5.86094C19.2472 8.57344 17.7555 9.78438 17.7555 10.85C17.7555 11.1406 17.9961 11.4797 18.5254 11.4797C20.5945 11.4797 23.0004 9.05781 23.0004 5.71563C23.0004 2.37344 20.402 0 15.6865 0C7.84323 0 0 7.89531 0 18.0672C0 26.1562 3.94568 31 10.7784 31C15.4459 31 19.5359 27.3672 21.7012 23.1047C21.9418 26.6406 23.5297 28.4812 25.9837 28.4812C28.149 28.4812 29.8813 27.1734 31.2286 24.8969C31.7579 27.2703 33.1052 28.4328 34.8855 28.4328C36.9065 28.4328 38.6387 27.125 40.2266 24.7516C40.2266 26.6406 40.6116 28.4328 42.2476 28.4328C43.0175 28.4328 43.9317 28.2391 44.0761 27.5609C45.8083 20.4406 50.0427 14.5797 51.3419 14.5797C51.7268 14.5797 51.8231 14.9672 51.8231 15.4031C51.8231 17.3406 50.4758 21.3125 50.4758 23.8313C50.4758 26.5922 51.6306 28.3844 54.0365 28.3844C56.683 28.3844 59.3776 25.1391 61.158 20.3438C61.7354 24.8 62.9383 28.3844 64.8149 28.3844C67.1246 28.3844 71.3109 23.4437 73.813 18.2125C74.7754 18.3578 76.267 18.3094 77.7106 17.2922C77.085 18.8422 76.7482 20.5375 76.7482 22.1844C76.7482 27.0281 79.0579 28.3844 81.0307 28.3844C83.196 28.3844 84.9283 27.0766 86.2756 24.8C86.7086 26.8344 87.8634 28.3359 89.9325 28.3359C93.1564 28.3359 95.9954 24.9938 95.9954 22.2328C96.0435 21.6516 95.7067 21.1672 95.3699 21.1672ZM28.0047 25.7688C26.7055 25.7688 26.1762 24.4609 26.1762 22.475C26.1762 19.0359 28.534 13.2719 30.988 13.2719C32.0466 13.2719 32.4796 14.5312 32.4796 16.1297C32.4796 19.6172 30.2662 25.7688 28.0047 25.7688ZM72.8988 15.5C72.1289 14.5797 71.8402 13.2719 71.8402 12.1578C71.8402 10.7531 72.3695 9.59062 72.9469 9.59062C73.5243 9.59062 73.7649 10.1719 73.7649 11.0437C73.7168 12.4 73.2356 14.4828 72.8988 15.5ZM83.0517 25.7688C81.7525 25.7688 81.2232 24.2188 81.2232 22.475C81.2232 19.1328 83.5809 13.2719 86.035 13.2719C87.0936 13.2719 87.4785 14.5312 87.4785 16.1297C87.5266 19.6172 85.3613 25.7688 83.0517 25.7688Z" fill="#B3B3B3"/>
</svg>
