<svg width="146" height="48" viewBox="0 0 146 48" fill="none" xmlns="http://www.w3.org/2000/svg">
<path d="M42.3521 12.5706L42.2976 12.4686C41.2859 10.8126 37.8934 8.2326 33.2105 5.5686C28.5276 2.9046 24.5171 1.2726 22.5785 1.2666H22.5301C20.5915 1.2666 16.6234 2.9046 11.9163 5.5986C7.20915 8.2926 3.78027 10.9206 2.82915 12.5766C1.81745 14.2686 1.27222 18.3906 1.27222 23.8686C1.27222 29.2686 1.8235 33.3246 2.76857 35.0706L2.81097 35.1426V35.1786C3.77421 36.8226 7.17886 39.4266 11.8981 42.1326C16.6174 44.8386 20.6096 46.4526 22.5422 46.4586C24.4747 46.4646 28.473 44.8326 33.2044 42.1206C37.9358 39.4086 41.3041 36.8466 42.2916 35.1606C42.2886 35.1447 42.2886 35.1285 42.2916 35.1126C43.3275 33.4686 43.8909 29.2686 43.8909 23.8686C43.8909 18.4686 43.3093 14.2326 42.3521 12.5706Z" fill="#B3B3B3"/>
<path d="M24.0748 19.3682H21.5243C20.8377 19.3698 20.1797 19.641 19.6948 20.1224C19.2098 20.6039 18.9375 21.2561 18.9375 21.9362V28.3262H20.5611V25.6142H25.0562V28.3262H26.6555V21.9362C26.6523 21.254 26.3764 20.6008 25.8883 20.1196C25.4001 19.6383 24.7393 19.3682 24.0505 19.3682H24.0748ZM20.5611 21.9362C20.5611 21.6826 20.6624 21.4393 20.8428 21.2595C21.0233 21.0796 21.2683 20.9777 21.5243 20.9762H24.0748C24.2031 20.9746 24.3305 20.9987 24.4492 21.0472C24.5679 21.0957 24.6754 21.1674 24.7654 21.2582C24.8588 21.3449 24.9329 21.4501 24.983 21.5668C25.033 21.6835 25.058 21.8093 25.0562 21.9362V24.0122H20.5611V21.9362Z" fill="white"/>
<path d="M11.3287 19.3984H6.36108V28.3984H11.3287C12.2702 28.3984 13.1732 28.028 13.839 27.3686C14.5047 26.7092 14.8788 25.8149 14.8788 24.8824V22.9084C14.8756 21.9775 14.5003 21.0856 13.8351 20.4279C13.1698 19.7701 12.2687 19.4 11.3287 19.3984ZM8.01494 21.0364H11.3287C11.83 21.0364 12.3108 21.2337 12.6652 21.5847C13.0197 21.9358 13.2188 22.412 13.2188 22.9084V24.9064C13.2188 25.4035 13.0199 25.8802 12.6656 26.2323C12.3113 26.5843 11.8306 26.7829 11.3287 26.7844H8.01494V21.0364Z" fill="white"/>
<path d="M38.7658 19.4277H37.3482H37.2271V19.5477V25.1817L32.4593 19.4697L32.423 19.4277H32.3685H31.2598H31.1387V19.5477V28.2177V28.3377H31.2598H32.6835H32.8046V28.2177V22.4937L37.5905 28.2897L37.6269 28.3317H37.6814H38.7658H38.893V28.2117V19.5477V19.4277H38.7658Z" fill="white"/>
<path d="M54.0322 14.3458H57.14C57.6488 14.3434 58.1544 14.4245 58.6364 14.5858C59.1083 14.7352 59.5436 14.9805 59.9146 15.3058C60.2976 15.6354 60.6018 16.0453 60.8052 16.5058C61.0396 17.0494 61.1533 17.6367 61.1384 18.2278C61.1538 18.8277 61.0229 19.4226 60.7567 19.9618C60.5169 20.4264 60.1804 20.8354 59.7692 21.1618C59.3682 21.4783 58.9125 21.7202 58.4243 21.8758C57.9558 22.0322 57.4649 22.1132 56.9704 22.1158H54.0322V14.3458ZM56.4555 20.8918C56.8639 20.8898 57.2707 20.8394 57.6671 20.7418C58.0608 20.6575 58.4335 20.4964 58.7636 20.2678C59.0555 20.0551 59.2905 19.7749 59.4482 19.4518C59.6203 19.0751 59.7051 18.6651 59.6965 18.2518C59.7056 17.8408 59.6293 17.4323 59.4724 17.0518C59.3427 16.7321 59.1344 16.4496 58.8666 16.2298C58.5896 16.016 58.2725 15.859 57.9336 15.7678C57.5483 15.6661 57.1511 15.6157 56.7523 15.6178H55.4377V20.8678L56.4555 20.8918Z" fill="#B3B3B3"/>
<path d="M62.4407 14.3457H63.8401V22.1457H62.4407V14.3457Z" fill="#B3B3B3"/>
<path d="M72.5638 21.5759C71.5583 22.095 70.4384 22.3589 69.3045 22.3439C68.7334 22.3515 68.166 22.2518 67.6325 22.0499C67.1404 21.8708 66.6922 21.5905 66.3174 21.2275C65.9425 20.8645 65.6495 20.4271 65.4576 19.9439C65.2412 19.4164 65.1341 18.8512 65.1426 18.2819C65.1336 17.6989 65.2407 17.1199 65.4576 16.5779C65.6492 16.0873 65.9422 15.6417 66.3179 15.2699C66.6928 14.9059 67.1407 14.6238 67.6325 14.4419C68.166 14.24 68.7334 14.1402 69.3045 14.1479C69.8752 14.1441 70.4437 14.2168 70.9947 14.3639C71.5204 14.5046 72.0044 14.7679 72.4063 15.1319L71.3703 16.1639C71.1068 15.9168 70.7957 15.725 70.4556 15.5999C70.091 15.4668 69.7052 15.3997 69.3166 15.4019C68.936 15.3969 68.5584 15.4705 68.208 15.6179C67.8869 15.7584 67.5982 15.9626 67.3599 16.2179C67.1207 16.4764 66.9336 16.7778 66.8086 17.1059C66.6752 17.4546 66.6094 17.825 66.6147 18.1979C66.6086 18.5923 66.6742 18.9845 66.8086 19.3559C66.9304 19.6926 67.1177 20.0025 67.3599 20.2679C67.5972 20.5244 67.8861 20.7287 68.208 20.8679C68.558 21.0173 68.9355 21.0929 69.3166 21.0899C69.6545 21.0907 69.9916 21.0565 70.3223 20.9879C70.6171 20.9289 70.901 20.8257 71.1644 20.6819V18.8399H69.5468V17.5859H72.5759L72.5638 21.5759Z" fill="#B3B3B3"/>
<path d="M74.1875 14.3457H75.5869V22.1457H74.1875V14.3457Z" fill="#B3B3B3"/>
<path d="M78.9247 15.5997H76.5015V14.3457H82.7292V15.5997H80.3059V22.1457H78.9065L78.9247 15.5997Z" fill="#B3B3B3"/>
<path d="M85.2191 14.3457H86.4307L89.8233 22.1457H88.2239L87.4909 20.3457H84.0741L83.3593 22.1457H81.7842L85.2191 14.3457ZM87.0002 19.1457L85.7886 15.9777L84.577 19.1457H87.0002Z" fill="#B3B3B3"/>
<path d="M90.7018 14.3457H92.083V20.8677H95.4331V22.1217H90.6836L90.7018 14.3457Z" fill="#B3B3B3"/>
<path d="M102.315 14.3457H103.527L106.919 22.1457H105.314L104.581 20.3457H101.17L100.455 22.1457H98.8862L102.315 14.3457ZM104.096 19.1457L102.885 15.9777L101.673 19.1457H104.096Z" fill="#B3B3B3"/>
<path d="M114.795 21.5759C113.789 22.0943 112.669 22.3582 111.536 22.3439C110.963 22.3516 110.393 22.2518 109.858 22.0499C109.369 21.8678 108.923 21.588 108.549 21.2279C108.176 20.8615 107.882 20.4249 107.683 19.9439C107.471 19.4151 107.366 18.8505 107.374 18.2819C107.366 17.6995 107.471 17.1211 107.683 16.5779C107.879 16.0881 108.173 15.643 108.549 15.2699C108.922 14.9059 109.367 14.6238 109.858 14.4419C110.393 14.2399 110.963 14.1402 111.536 14.1479C112.106 14.1441 112.675 14.2168 113.226 14.3639C113.751 14.5059 114.235 14.7691 114.637 15.1319L113.601 16.1639C113.337 15.9181 113.026 15.7264 112.687 15.5999C112.32 15.4668 111.932 15.3998 111.542 15.4019C111.163 15.3964 110.787 15.47 110.439 15.6179C110.116 15.7583 109.825 15.9624 109.585 16.2179C109.348 16.478 109.161 16.7789 109.034 17.1059C108.903 17.4554 108.838 17.8253 108.84 18.1979C108.837 18.5921 108.902 18.9838 109.034 19.3559C109.158 19.6915 109.345 20.001 109.585 20.2679C109.824 20.5245 110.115 20.7289 110.439 20.8679C110.787 21.0179 111.162 21.0935 111.542 21.0899C111.882 21.0908 112.221 21.0566 112.553 20.9879C112.847 20.93 113.129 20.8267 113.389 20.6819V18.8399H111.778V17.5859H114.807L114.795 21.5759Z" fill="#B3B3B3"/>
<path d="M116.449 14.3457H121.665V15.5997H117.848V17.5197H121.483V18.7737H117.848V20.8677H121.865V22.1217H116.449V14.3457Z" fill="#B3B3B3"/>
<path d="M123.246 14.3457H125.1L128.916 20.1417V14.3457H130.316V22.1457H128.535L124.645 16.1457V22.1457H123.246V14.3457Z" fill="#B3B3B3"/>
<path d="M137.519 16.1758C137.32 15.9314 137.068 15.7348 136.781 15.6007C136.495 15.4667 136.182 15.3987 135.865 15.4018C135.484 15.3962 135.106 15.4698 134.756 15.6178C134.435 15.7583 134.146 15.9625 133.908 16.2178C133.669 16.4764 133.482 16.7778 133.357 17.1058C133.223 17.4545 133.158 17.825 133.163 18.1978C133.157 18.5922 133.222 18.9845 133.357 19.3558C133.471 19.6907 133.65 20.0004 133.884 20.2678C134.121 20.5243 134.41 20.7287 134.732 20.8678C135.082 21.0178 135.459 21.0934 135.841 21.0898C136.163 21.0884 136.481 21.0102 136.767 20.8618C137.099 20.6869 137.386 20.441 137.609 20.1418L138.767 20.9578C138.434 21.4177 137.985 21.7821 137.464 22.0138C136.948 22.2362 136.391 22.3487 135.828 22.3438C135.257 22.3511 134.69 22.2513 134.156 22.0498C133.666 21.8678 133.219 21.588 132.842 21.2278C132.471 20.8612 132.179 20.4245 131.982 19.9438C131.768 19.4155 131.661 18.8509 131.666 18.2818C131.661 17.6991 131.768 17.1207 131.982 16.5778C132.175 16.0883 132.468 15.6432 132.842 15.2698C133.217 14.9059 133.665 14.6238 134.156 14.4418C134.69 14.2403 135.257 14.1406 135.828 14.1478C136.337 14.144 136.841 14.2399 137.313 14.4298C137.806 14.6449 138.242 14.9717 138.585 15.3838L137.519 16.1758Z" fill="#B3B3B3"/>
<path d="M141.638 18.8097L138.682 14.3457H140.439L142.365 17.4537L144.328 14.3457H146L143.044 18.8097V22.1457H141.638V18.8097Z" fill="#B3B3B3"/>
<path d="M54.0322 25.7402H55.8921L59.7087 31.5302V25.7402H61.1141V33.5402H59.3694L55.4741 27.5402V33.5402H54.0322V25.7402Z" fill="#B3B3B3"/>
<path d="M62.8892 25.7402H68.1052V26.9942H64.2886V28.9082H67.9234V30.1682H64.2886V32.2682H68.3051V33.5222H62.8892V25.7402Z" fill="#B3B3B3"/>
<path d="M71.2977 26.9942H68.8745V25.7402H75.1204V26.9942H72.6972V33.5342H71.2977V26.9942Z" fill="#B3B3B3"/>
<path d="M75.187 25.7402H76.7197L78.2039 31.3562L79.9668 25.7402H81.3481L83.0807 31.3562L84.6255 25.7402H86.0492L83.7592 33.5402H82.4264L80.609 27.6062L78.7916 33.5402H77.5436L75.187 25.7402Z" fill="#B3B3B3"/>
<path d="M86.5521 29.6704C86.5431 29.0875 86.6501 28.5085 86.8671 27.9664C87.0586 27.4776 87.3517 27.034 87.7273 26.6644C88.107 26.2991 88.5587 26.0152 89.054 25.8304C89.5887 25.6333 90.1556 25.5357 90.7261 25.5424C91.3018 25.5236 91.8758 25.6153 92.4163 25.8124C92.9104 25.9877 93.3608 26.2659 93.737 26.6284C94.1163 26.9974 94.4134 27.4409 94.6093 27.9304C94.8218 28.4715 94.9267 29.048 94.9183 29.6284C94.9257 30.1971 94.8207 30.7617 94.6093 31.2904C94.4103 31.7748 94.1134 32.2138 93.737 32.5804C93.3573 32.9444 92.9084 33.2299 92.4163 33.4204C91.8778 33.6291 91.3043 33.7349 90.7261 33.7324C90.1571 33.7469 89.5903 33.6574 89.054 33.4684C88.5645 33.2821 88.1175 33.0005 87.7394 32.6404C87.3655 32.2765 87.0725 31.8391 86.8792 31.3564C86.6541 30.8228 86.5427 30.2488 86.5521 29.6704ZM88.0242 29.5804C88.018 29.9748 88.0837 30.3671 88.218 30.7384C88.337 31.0765 88.5246 31.3869 88.7693 31.6504C89.0066 31.9069 89.2955 32.1113 89.6174 32.2504C89.9662 32.4038 90.3446 32.4796 90.7261 32.4724C91.1075 32.4784 91.4856 32.4027 91.8347 32.2504C92.1573 32.1176 92.4483 31.9194 92.6889 31.6684C92.9315 31.4033 93.1188 31.0934 93.2402 30.7564C93.3717 30.3844 93.4373 29.9926 93.434 29.5984C93.4364 29.2278 93.3707 28.8598 93.2402 28.5124C93.1159 28.1841 92.9287 27.8825 92.6889 27.6244C92.449 27.3656 92.1556 27.161 91.8287 27.0244C91.4782 26.8771 91.1007 26.8035 90.72 26.8084C90.3392 26.8023 89.9614 26.8759 89.6114 27.0244C89.289 27.1628 88.9999 27.3673 88.7633 27.6244C88.5215 27.881 88.334 28.183 88.212 28.5124C88.0829 28.8538 88.0193 29.216 88.0242 29.5804Z" fill="#B3B3B3"/>
<path d="M96.2388 25.7404H98.977C99.3451 25.7376 99.7125 25.7718 100.074 25.8424C100.406 25.9066 100.723 26.0284 101.013 26.2024C101.283 26.3672 101.508 26.5961 101.667 26.8684C101.843 27.2052 101.928 27.5813 101.915 27.9604C101.933 28.4749 101.765 28.9788 101.443 29.3824C101.1 29.7783 100.616 30.0276 100.092 30.0784L102.182 33.5224H100.492L98.6741 30.2224H97.6503V33.5224H96.2448L96.2388 25.7404ZM98.7347 29.0404C98.9346 29.0404 99.1345 29.0404 99.3405 29.0404C99.5297 29.0227 99.7154 28.9783 99.8918 28.9084C100.054 28.8389 100.195 28.7269 100.298 28.5844C100.41 28.405 100.463 28.1952 100.449 27.9844C100.459 27.7919 100.408 27.6012 100.304 27.4384C100.213 27.2976 100.083 27.1868 99.9281 27.1204C99.7637 27.0512 99.5904 27.0048 99.4132 26.9824C99.2194 26.9824 99.0376 26.9824 98.8619 26.9824H97.6503V29.0944L98.7347 29.0404Z" fill="#B3B3B3"/>
<path d="M103.248 25.7402H104.647V29.0402H104.714L107.973 25.7402H109.863L106.186 29.3402L110.112 33.5402H108.143L104.726 29.7062H104.647V33.5402H103.248V25.7402Z" fill="#B3B3B3"/>
</svg>
