<svg width="105" height="38" viewBox="0 0 105 38" fill="none" xmlns="http://www.w3.org/2000/svg">
<path d="M94.6374 30.9155C93.1965 30.9155 91.903 30.6437 90.7568 30.1C89.6397 29.5558 88.7431 28.8258 88.067 27.9098C87.4195 26.9656 87.096 25.8778 87.0966 24.6463C87.0966 23.0437 87.6257 21.7412 88.6839 20.739C89.742 19.7368 91.2561 19.0498 93.226 18.6781L98.3859 17.648C99.4143 17.4475 100.12 17.1325 100.503 16.7033C100.885 16.274 101.076 15.6442 101.076 14.8138L101.604 19.8374L94.1964 21.3838C93.1971 21.5832 92.4181 21.9409 91.8593 22.4569C91.3302 22.973 91.0656 23.6884 91.0656 24.6032C91.0656 25.548 91.4331 26.3068 92.1681 26.8797C92.9323 27.4515 93.961 27.7377 95.2542 27.7382C96.313 27.7382 97.2834 27.5092 98.1654 27.0513C99.076 26.5938 99.7815 25.964 100.282 25.1618C100.811 24.3314 101.076 23.3867 101.076 22.3276V14.8138C101.076 13.7829 100.693 12.9813 99.9285 12.4089C99.1935 11.8079 98.1794 11.5073 96.8861 11.5073C95.24 11.5073 93.9759 11.9081 93.0939 12.7098C92.2119 13.5114 91.6974 14.642 91.5504 16.1016L87.6698 15.587C87.8167 14.0694 88.2872 12.7669 89.0811 11.6797C89.875 10.5632 90.9332 9.70407 92.2556 9.10241C93.5786 8.50191 95.1516 8.20167 96.9745 8.20167C99.561 8.20167 101.545 8.84556 102.927 10.1333C104.309 11.4211 105 13.0816 105 15.1147V30.2707H101.164V27.4805C100.781 28.4246 100.002 29.2404 98.8269 29.9276C97.6795 30.5862 96.283 30.9155 94.6374 30.9155ZM55.8311 30.2716V8.84556H59.6671V11.2505C59.9611 10.4201 60.608 9.70437 61.6079 9.10329C62.6077 8.50221 63.7685 8.20167 65.0904 8.20167C66.3854 8.20167 67.5762 8.47347 68.663 9.01708C69.7509 9.56128 70.4565 10.3773 70.7796 11.4651C71.1617 10.4623 71.8675 9.67505 72.8971 9.10329C73.9547 8.50221 75.1301 8.20167 76.4234 8.20167C78.6581 8.20167 80.3635 8.83148 81.5395 10.0911C82.7155 11.3502 83.3035 13.1821 83.3035 15.587V30.2716H79.3783V16.1016C79.3783 14.6708 79.0551 13.5976 78.4088 12.8822C77.7904 12.1374 76.879 11.765 75.6744 11.765C74.3514 11.765 73.3224 12.223 72.5874 13.139C71.8815 14.0275 71.5286 15.3299 71.5286 17.0463V30.2716H67.6051V16.1016C67.6051 14.6708 67.2814 13.5976 66.6339 12.8822C66.0173 12.1374 65.1061 11.765 63.9004 11.765C62.5774 11.765 61.5484 12.223 60.8134 13.139C60.1075 14.0275 59.7546 15.3299 59.7546 17.0463V30.2716H55.8311ZM40.824 38C38.0899 38 35.8703 37.3846 34.1653 36.1537C32.4602 34.9228 31.3723 33.2054 30.9015 31.0017L34.7384 30.1854C35.0621 31.5881 35.7531 32.6759 36.8112 33.4488C37.8694 34.2504 39.207 34.6512 40.824 34.6512C42.7636 34.6512 44.2187 34.1645 45.1894 33.1911C46.1886 32.2469 46.6883 30.8301 46.6883 28.9407V25.548C46.2478 26.6065 45.4248 27.4656 44.219 28.1253C43.043 28.7832 41.7203 29.1122 40.2509 29.1122C38.3101 29.1122 36.605 28.683 35.1356 27.8244C33.6656 26.936 32.5191 25.7051 31.696 24.1318C30.8729 22.5572 30.4614 20.7393 30.4614 18.6781C30.4614 16.5886 30.8726 14.7567 31.6951 13.1821C32.5188 11.6076 33.6507 10.3911 35.091 9.53255C36.561 8.64529 38.281 8.20167 40.2509 8.20167C41.7209 8.20167 43.0585 8.53065 44.2636 9.18861C45.4974 9.81843 46.335 10.6057 46.7766 11.5504V8.84556H50.6135V28.9398C50.6135 30.8281 50.2314 32.4454 49.4673 33.7919C48.7031 35.1658 47.586 36.2105 46.116 36.926C44.6752 37.6414 42.9112 38 40.824 38ZM40.7356 25.7195C42.6169 25.7195 44.116 25.0753 45.2331 23.7869C46.3794 22.4992 46.9528 20.7959 46.9534 18.6772C46.9534 16.5309 46.38 14.8135 45.2331 13.5252C44.0863 12.2368 42.5871 11.5926 40.7356 11.5926C38.8544 11.5926 37.3403 12.2368 36.1935 13.5252C35.0764 14.8135 34.5179 16.5309 34.5179 18.6772C34.5179 20.7953 35.091 22.4989 36.2373 23.7878C37.3841 25.075 38.8841 25.7189 40.7356 25.7195ZM22.5409 30.2716V8.84556H26.4661V30.2716H22.5409ZM22.4971 6.09759V0H26.5099V6.09759H22.4971ZM0 30.2716V0H4.14488V30.2716H0ZM0.83825 17.4756V13.826H17.7266V17.4765L0.83825 17.4756ZM0.83825 3.69269V0H19.3585V3.69269H0.83825Z" fill="#B3B3B3"/>
</svg>
