<svg width="118" height="41" viewBox="0 0 118 41" fill="none" xmlns="http://www.w3.org/2000/svg">
<g clip-path="url(#clip0_600_475)">
<path fill-rule="evenodd" clip-rule="evenodd" d="M0.158691 36.356V22.1098H4.47971C6.63697 22.1098 8.36984 22.7663 9.67865 24.0795C10.9875 25.3929 11.6419 27.1106 11.6419 29.2328C11.6419 31.3685 10.9875 33.0895 9.67865 34.396C8.36984 35.7026 6.63697 36.3559 4.47971 36.3559H0.158691L0.158691 36.356ZM113.423 36.6745C112.002 36.6745 110.831 36.1836 109.911 35.2021C108.99 34.2205 108.529 32.9804 108.529 31.4813C108.529 29.9958 108.977 28.7588 109.871 27.7707C110.766 26.7824 111.91 26.2883 113.304 26.2883C114.738 26.2883 115.879 26.756 116.727 27.691C117.576 28.6261 118 29.936 118 31.6207L117.98 31.8197H110.384C110.41 32.7747 110.726 33.544 111.331 34.1278C111.936 34.7114 112.659 35.0033 113.501 35.0033C114.659 35.0033 115.566 34.4197 116.224 33.2523L117.842 34.0482C117.408 34.8707 116.806 35.5141 116.037 35.9782C115.267 36.4424 114.396 36.6746 113.422 36.6746L113.423 36.6745ZM110.522 30.3075H116.067C116.014 29.6309 115.741 29.0704 115.248 28.6262C114.754 28.1818 114.094 27.9597 113.265 27.9597C112.581 27.9597 111.992 28.172 111.499 28.5964C111.006 29.0208 110.68 29.5912 110.522 30.3075ZM102.31 35.0033C103.205 35.0033 103.935 34.6783 104.5 34.0283C105.092 33.3783 105.388 32.5294 105.388 31.4815C105.388 30.4601 105.092 29.6179 104.5 28.9546C103.922 28.2912 103.192 27.9597 102.31 27.9597C101.442 27.9597 100.712 28.2912 100.12 28.9546C99.5284 29.6177 99.2324 30.46 99.2324 31.4815C99.2324 32.5161 99.5284 33.3585 100.12 34.0084C100.712 34.6717 101.442 35.0033 102.31 35.0033ZM102.251 40.9722C101.712 40.9722 101.206 40.9027 100.732 40.7633C100.258 40.624 99.8277 40.4284 99.4396 40.1763C99.0515 39.9243 98.7195 39.6258 98.4434 39.2811C98.167 38.9362 97.9566 38.5515 97.8119 38.127L99.5283 37.4107C99.7258 37.9812 100.068 38.4387 100.554 38.7836C101.041 39.1284 101.607 39.3009 102.251 39.3009C103.238 39.3009 104.007 39.0025 104.56 38.4056C105.112 37.8086 105.388 36.9863 105.388 35.9384V35.0033H105.309C104.967 35.5206 104.504 35.9285 103.918 36.2269C103.333 36.5252 102.698 36.6745 102.014 36.6745C100.752 36.6745 99.6664 36.1769 98.7589 35.1822C97.8643 34.1607 97.4172 32.9271 97.4172 31.4813C97.4172 30.0355 97.8645 28.8085 98.7589 27.8005C99.6664 26.7923 100.752 26.2883 102.014 26.2883C102.698 26.2883 103.333 26.4376 103.918 26.7359C104.504 27.0343 104.967 27.4422 105.309 27.9595H105.388V26.6066H107.124V35.9382C107.124 37.5036 106.684 38.7306 105.802 39.6192C104.908 40.5212 103.724 40.9721 102.251 40.9721L102.251 40.9722ZM89.4814 33.3718C89.4814 33.8492 89.6822 34.2472 90.0833 34.5655C90.4844 34.8838 90.9547 35.043 91.494 35.043C92.2568 35.043 92.9374 34.7577 93.536 34.1874C94.1344 33.617 94.4338 32.9472 94.4338 32.1778C93.8682 31.7268 93.079 31.5012 92.0662 31.5012C91.3296 31.5012 90.7147 31.6803 90.2215 32.0385C89.7282 32.3966 89.4816 32.841 89.4816 33.3716L89.4814 33.3718ZM91.8293 26.2885C93.1709 26.2885 94.2299 26.65 95.006 27.373C95.782 28.0959 96.1701 29.0873 96.1701 30.3475V36.3563H94.4336V35.0034H94.3546C93.605 36.1176 92.6052 36.6748 91.3558 36.6748C90.2903 36.6748 89.3992 36.3563 88.6823 35.7196C87.9654 35.083 87.607 34.2871 87.607 33.3321C87.607 32.3239 87.9851 31.5215 88.7416 30.9244C89.4977 30.3276 90.5073 30.029 91.7702 30.029C92.8489 30.029 93.7367 30.2281 94.4338 30.6261V30.2081C94.4338 29.5715 94.1839 29.0309 93.684 28.5865C93.1842 28.1421 92.5988 27.9199 91.9281 27.9199C90.9151 27.9199 90.1127 28.351 89.521 29.2132L87.9228 28.1985C88.8041 26.9252 90.1062 26.2885 91.8293 26.2885ZM83.3608 36.3563H81.5456V26.6069H83.2819V28.1987H83.3608C83.5449 27.6814 83.9231 27.2403 84.4953 26.8756C85.0675 26.5108 85.6297 26.3283 86.1822 26.3283C86.7084 26.3283 87.1557 26.4081 87.5238 26.5672L86.9713 28.3381C86.7476 28.2452 86.3926 28.1987 85.9058 28.1987C85.2218 28.1987 84.6266 28.4773 84.1202 29.0343C83.614 29.5913 83.3606 30.2414 83.3606 30.9843V36.3563H83.3608ZM72.9586 33.3718C72.9586 33.8492 73.1593 34.2472 73.5604 34.5655C73.9615 34.8838 74.4318 35.043 74.9711 35.043C75.7339 35.043 76.4145 34.7577 77.0131 34.1874C77.6113 33.617 77.9107 32.9472 77.9107 32.1778C77.3452 31.7268 76.556 31.5012 75.5431 31.5012C74.8065 31.5012 74.1917 31.6803 73.6984 32.0385C73.2052 32.3966 72.9586 32.841 72.9586 33.3716V33.3718ZM75.3066 26.2885C76.6481 26.2885 77.7071 26.65 78.4831 27.373C79.2592 28.0959 79.6472 29.0873 79.6472 30.3475V36.3563H77.9107V35.0034H77.8319C77.0821 36.1176 76.0824 36.6748 74.8329 36.6748C73.7674 36.6748 72.8764 36.3563 72.1594 35.7196C71.4425 35.083 71.0842 34.2871 71.0842 33.3321C71.0842 32.3239 71.4624 31.5215 72.2187 30.9244C72.975 30.3276 73.9844 30.029 75.2473 30.029C76.326 30.029 77.2138 30.2281 77.9109 30.6261V30.2081C77.9109 29.5715 77.661 29.0309 77.1612 28.5865C76.6615 28.1421 76.0761 27.9199 75.4053 27.9199C74.3924 27.9199 73.59 28.351 72.9981 29.2132L71.4 28.1985C72.2814 26.9252 73.5835 26.2885 75.3066 26.2885ZM70.192 29.8103C70.192 31.7999 69.6066 33.3851 68.436 34.5657C67.1205 35.9716 65.3909 36.6748 63.247 36.6748C61.1949 36.6748 59.4588 35.9585 58.0383 34.5258C56.6177 33.0933 55.9074 31.3291 55.9074 29.2333C55.9074 27.1377 56.6177 25.3734 58.0383 23.9408C59.4588 22.5083 61.1951 21.792 63.247 21.792C64.2861 21.792 65.2661 21.9777 66.1868 22.3492C67.1075 22.7206 67.8638 23.2444 68.4557 23.921L67.1536 25.2342C66.7196 24.7036 66.1573 24.2892 65.4668 23.9907C64.7762 23.6924 64.0364 23.5431 63.2472 23.5431C61.7082 23.5431 60.4059 24.0803 59.3406 25.1548C58.2883 26.2426 57.7622 27.6021 57.7622 29.2336C57.7622 30.8651 58.2883 32.2248 59.3406 33.3126C60.406 34.3871 61.7082 34.9242 63.2472 34.9242C64.6546 34.9242 65.8252 34.5263 66.7591 33.7304C67.6929 32.9345 68.2322 31.8401 68.3769 30.4473H63.2472V28.7363H70.0935C70.1593 29.1077 70.1922 29.4659 70.1922 29.8106L70.192 29.8103ZM51.0689 22.1103V36.3565H49.2538V22.1103H51.0689ZM40.6668 33.3719C40.6668 33.8494 40.8675 34.2474 41.2686 34.5657C41.6697 34.884 42.14 35.0431 42.6793 35.0431C43.4423 35.0431 44.1229 34.7579 44.7213 34.1876C45.3197 33.6171 45.6191 32.9473 45.6191 32.178C45.0536 31.727 44.2644 31.5014 43.2515 31.5014C42.5149 31.5014 41.9001 31.6805 41.4068 32.0386C40.9136 32.3968 40.667 32.8412 40.667 33.3718L40.6668 33.3719ZM43.0147 26.2886C44.3564 26.2886 45.4153 26.6502 46.1913 27.3731C46.9673 28.0961 47.3554 29.0875 47.3554 30.3477V36.3565H45.6189V35.0036H45.5402C44.7904 36.1178 43.7907 36.675 42.5411 36.675C41.4757 36.675 40.5846 36.3565 39.8677 35.7198C39.1508 35.0832 38.7923 34.2873 38.7923 33.3322C38.7923 32.324 39.1705 31.5217 39.9269 30.9246C40.6832 30.3277 41.6927 30.0292 42.9556 30.0292C44.0342 30.0292 44.9221 30.2282 45.6191 30.6263V30.2083C45.6191 29.5717 45.3692 29.0311 44.8693 28.5867C44.3696 28.1423 43.7842 27.9201 43.1135 27.9201C42.1005 27.9201 41.2983 28.3512 40.7064 29.2134L39.1081 28.1987C39.9894 26.9254 41.2916 26.2886 43.0147 26.2886ZM36.5388 36.5156C35.7497 36.5156 35.0954 36.2703 34.5758 35.7796C34.0562 35.2888 33.7899 34.6057 33.7767 33.7303V28.2784H32.0799V26.6071H33.7767V23.6225H35.5921V26.6071H37.9597V28.2784H35.5921V33.1332C35.5921 33.7833 35.7169 34.2242 35.9668 34.4563C36.2169 34.6884 36.4996 34.8044 36.8153 34.8044C36.96 34.8044 37.1014 34.7879 37.2395 34.7547C37.3775 34.7214 37.5058 34.6785 37.6241 34.6253L38.1962 36.2568C37.7226 36.4293 37.1703 36.5155 36.5388 36.5155V36.5156ZM30.9706 23.2444C30.9706 23.6026 30.8457 23.9077 30.5958 24.1596C30.3458 24.4116 30.0433 24.5377 29.6881 24.5377C29.3331 24.5377 29.0305 24.4116 28.7806 24.1596C28.5307 23.9077 28.4057 23.6026 28.4057 23.2444C28.4057 22.8862 28.5307 22.5812 28.7806 22.3292C29.0305 22.0772 29.3331 21.9513 29.6881 21.9513C30.0433 21.9513 30.3458 22.0772 30.5958 22.3292C30.8457 22.5812 30.9706 22.8862 30.9706 23.2444ZM30.5958 26.6071V36.3565H28.7804V26.6071H30.5958ZM21.7522 35.0036C22.6466 35.0036 23.3767 34.6787 23.9422 34.0286C24.5343 33.3786 24.8302 32.5297 24.8302 31.4818C24.8302 30.4605 24.5343 29.6182 23.9422 28.9549C23.3635 28.2916 22.6336 27.96 21.7522 27.96C20.8839 27.96 20.1542 28.2916 19.5623 28.9549C18.9704 29.6181 18.6743 30.4603 18.6743 31.4818C18.6743 32.5164 18.9702 33.3588 19.5623 34.0087C20.1542 34.672 20.8841 35.0036 21.7522 35.0036ZM21.6931 40.9726C21.1538 40.9726 20.6474 40.903 20.1739 40.7637C19.7003 40.6243 19.2696 40.4287 18.8815 40.1767C18.4934 39.9247 18.1613 39.6261 17.8852 39.2814C17.609 38.9366 17.3985 38.5518 17.2538 38.1274L18.9704 37.4111C19.1677 37.9815 19.5097 38.439 19.9964 38.7839C20.483 39.1288 21.0487 39.3012 21.6931 39.3012C22.6796 39.3012 23.4491 39.0028 24.0015 38.406C24.554 37.8089 24.8301 36.9866 24.8301 35.9387V35.0036H24.7511C24.4091 35.5209 23.9455 35.9288 23.3603 36.2272C22.7747 36.5255 22.1402 36.6748 21.4561 36.6748C20.1934 36.6748 19.1083 36.1773 18.2007 35.1825C17.3062 34.161 16.859 32.9274 16.859 31.4816C16.859 30.0359 17.3064 28.8089 18.2007 27.8008C19.1083 26.7926 20.1934 26.2886 21.4561 26.2886C22.1402 26.2886 22.7747 26.4379 23.3603 26.7362C23.9455 27.0346 24.4091 27.4425 24.7511 27.9598H24.8301V26.6069H26.5663V35.9385C26.5663 37.5039 26.1257 38.7309 25.2445 39.6195C24.35 40.5215 23.1662 40.9724 21.693 40.9724L21.6931 40.9726ZM15.671 23.2444C15.671 23.6026 15.5461 23.9077 15.2963 24.1596C15.0462 24.4116 14.7438 24.5377 14.3886 24.5377C14.0335 24.5377 13.7309 24.4116 13.481 24.1596C13.2311 23.9077 13.1063 23.6026 13.1063 23.2444C13.1063 22.8862 13.2311 22.5812 13.481 22.3292C13.7311 22.0772 14.0335 21.9513 14.3886 21.9513C14.7438 21.9513 15.0462 22.0772 15.2963 22.3292C15.5461 22.5812 15.671 22.8862 15.671 23.2444ZM15.2963 26.6071V36.3565H13.4809V26.6071H15.2963ZM1.97409 23.8612V34.6056H4.47988C6.12419 34.6056 7.41981 34.1314 8.36674 33.183C9.31368 32.2346 9.78722 30.918 9.78722 29.2333C9.78722 27.5619 9.31368 26.2487 8.36674 25.2939C7.41981 24.3387 6.12419 23.8612 4.47988 23.8612H1.97409Z" fill="#B3B3B3"/>
<path fill-rule="evenodd" clip-rule="evenodd" d="M7.94106 0.0273438H8.503C10.4538 0.0694803 12.3728 0.850628 13.7511 2.23336C13.2422 2.7505 12.7228 3.24658 12.2245 3.76389C11.4506 3.06734 10.5175 2.52896 9.49958 2.33902C7.99413 2.02235 6.37195 2.30742 5.11035 3.16231C3.73203 4.05949 2.79894 5.57949 2.59757 7.20499C2.37488 8.80942 2.83085 10.4983 3.88033 11.7437C4.88766 12.9576 6.42502 13.7175 8.01529 13.7704C9.49958 13.8548 11.0475 13.4008 12.1289 12.3666C12.9772 11.6382 13.3695 10.5299 13.4967 9.4533C11.7368 9.4533 9.97671 9.46383 8.21682 9.4533V7.27889H15.6279C16.0094 9.61163 15.4582 12.2398 13.677 13.9076C12.4897 15.0897 10.8463 15.7864 9.17108 15.9237C7.54891 16.082 5.87383 15.7759 4.43186 14.9947C2.70371 14.0765 1.32539 12.5249 0.646731 10.6989C0.0105588 9.02059 -2.23964e-05 7.12071 0.593662 5.43185C1.13444 3.89078 2.17351 2.52912 3.50934 1.57927C4.79211 0.639945 6.35063 0.122637 7.94106 0.0276679V0.0273438Z" fill="#B3B3B3"/>
<path fill-rule="evenodd" clip-rule="evenodd" d="M50.4563 0.576172H52.7252V15.6489C51.9725 15.6489 51.2092 15.6594 50.4563 15.6384C50.4669 10.6248 50.4563 5.60047 50.4563 0.576172Z" fill="#B3B3B3"/>
<path fill-rule="evenodd" clip-rule="evenodd" d="M20.6744 5.80121C22.0739 5.53721 23.5901 5.83281 24.7457 6.66663C25.7954 7.40548 26.527 8.56651 26.7496 9.8332C27.0358 11.3004 26.6754 12.9046 25.7212 14.0658C24.6927 15.3641 23.0068 16.0608 21.3637 15.9552C19.8581 15.8707 18.3951 15.1213 17.5043 13.8969C16.4972 12.546 16.2533 10.6882 16.8047 9.10488C17.356 7.40548 18.9145 6.10735 20.6744 5.80121ZM20.9925 7.80659C20.42 7.95439 19.89 8.2816 19.5082 8.74591C18.4797 9.9703 18.5434 11.9653 19.6779 13.1053C20.3246 13.7597 21.3 14.0658 22.2012 13.8864C23.0388 13.7386 23.7703 13.1792 24.1732 12.4403C24.8729 11.1842 24.6715 9.45316 23.6007 8.47154C22.9116 7.83819 21.9045 7.57435 20.9925 7.80659Z" fill="#B3B3B3"/>
<path fill-rule="evenodd" clip-rule="evenodd" d="M31.9128 5.80096C33.5138 5.49482 35.2631 5.93823 36.4612 7.05712C38.4121 8.79882 38.6242 12.0603 36.9595 14.0657C35.9524 15.3324 34.3196 16.029 32.708 15.9551C31.1707 15.9129 29.6546 15.153 28.7427 13.8969C27.7144 12.5141 27.4917 10.6143 28.0748 8.99929C28.6579 7.35272 30.1845 6.09657 31.9126 5.80112L31.9128 5.80096ZM32.2309 7.80634C31.6584 7.95414 31.1283 8.28135 30.7466 8.73529C29.7289 9.93845 29.7712 11.9017 30.8632 13.0523C31.5099 13.7384 32.5171 14.0763 33.4502 13.8862C34.2771 13.7278 35.0193 13.1789 35.4222 12.4401C36.1112 11.1735 35.9097 9.44253 34.8285 8.46075C34.1392 7.82741 33.1321 7.5741 32.2309 7.80634Z" fill="#B3B3B3"/>
<path fill-rule="evenodd" clip-rule="evenodd" d="M41.4443 6.41303C42.6635 5.65295 44.2855 5.44195 45.6004 6.09636C46.0139 6.27576 46.3533 6.5819 46.6818 6.88804C46.6924 6.60297 46.6818 6.30737 46.6924 6.01192C47.4028 6.02246 48.113 6.01192 48.834 6.02246V15.3322C48.8234 16.736 48.463 18.2242 47.4452 19.2482C46.3319 20.3776 44.625 20.7259 43.0876 20.4936C41.4443 20.2508 40.013 19.0581 39.3769 17.5488C40.013 17.2426 40.6809 16.9998 41.3383 16.7149C41.7093 17.5804 42.4622 18.3194 43.4057 18.4882C44.3492 18.6571 45.4413 18.4249 46.0563 17.6437C46.7137 16.8415 46.7137 15.7439 46.6818 14.7621C46.1941 15.2371 45.6321 15.6593 44.9536 15.8178C43.4799 16.2294 41.8577 15.7226 40.7233 14.7305C39.5782 13.7383 38.8996 12.2078 38.9632 10.6878C38.9951 8.96732 39.9705 7.31022 41.4443 6.41303ZM43.639 7.764C42.9922 7.8695 42.3879 8.22847 41.9745 8.72455C40.9779 9.90664 40.9779 11.796 41.985 12.9572C42.5576 13.6432 43.4799 14.0232 44.3705 13.9281C45.2081 13.8437 45.9821 13.316 46.3956 12.5877C47.0953 11.3527 46.9787 9.6744 46.0352 8.59781C45.4521 7.93287 44.5191 7.6055 43.6391 7.764H43.639Z" fill="#B3B3B3"/>
<path fill-rule="evenodd" clip-rule="evenodd" d="M55.45 6.95161C56.7222 5.76936 58.6837 5.36825 60.3163 5.99106C61.8643 6.57157 62.8503 8.03873 63.3487 9.5482C61.0479 10.4982 58.7578 11.4375 56.4571 12.3876C56.7752 12.9891 57.2628 13.538 57.9203 13.7597C58.8428 14.087 59.9453 13.9709 60.7194 13.3586C61.0267 13.1264 61.2706 12.8203 61.5039 12.5248C62.0871 12.9152 62.6702 13.2953 63.2533 13.6858C62.4264 14.9209 61.0375 15.7864 59.5426 15.9236C57.8887 16.1241 56.1286 15.4908 55.0578 14.2032C53.2979 12.1765 53.4676 8.77775 55.4501 6.95161V6.95177L55.45 6.95161ZM56.5844 8.90432C56.224 9.42146 56.0754 10.0548 56.0862 10.6776C57.6235 10.0443 59.1609 9.41093 60.6982 8.76705C60.4438 8.176 59.8288 7.81703 59.2034 7.72206C58.1962 7.54266 57.1465 8.08087 56.5846 8.90415L56.5844 8.90432Z" fill="#B3B3B3"/>
</g>
<defs>
<clipPath id="clip0_600_475">
<rect width="118" height="41" fill="white"/>
</clipPath>
</defs>
</svg>
