<svg width="127" height="44" viewBox="0 0 127 44" fill="none" xmlns="http://www.w3.org/2000/svg">
<g clip-path="url(#clip0_600_493)">
<path d="M74.654 11.9583C74.654 15.2171 72.1216 17.6184 69.0138 17.6184C65.906 17.6184 63.3737 15.2171 63.3737 11.9583C63.3737 8.67666 65.906 6.29834 69.0138 6.29834C72.1216 6.29834 74.654 8.67666 74.654 11.9583ZM72.185 11.9583C72.185 9.92197 70.7173 8.52866 69.0138 8.52866C67.3104 8.52866 65.8427 9.92197 65.8427 11.9583C65.8427 13.9743 67.3104 15.388 69.0138 15.388C70.7173 15.388 72.185 13.9718 72.185 11.9583Z" fill="#B3B3B3"/>
<path d="M86.8215 11.9583C86.8215 15.2171 84.2891 17.6184 81.1813 17.6184C78.0735 17.6184 75.5411 15.2171 75.5411 11.9583C75.5411 8.67922 78.0735 6.29834 81.1813 6.29834C84.2891 6.29834 86.8215 8.67666 86.8215 11.9583ZM84.3525 11.9583C84.3525 9.92197 82.8847 8.52866 81.1813 8.52866C79.4778 8.52866 78.0101 9.92197 78.0101 11.9583C78.0101 13.9743 79.4778 15.388 81.1813 15.388C82.8847 15.388 84.3525 13.9718 84.3525 11.9583Z" fill="#B3B3B3"/>
<path d="M98.482 6.64029V16.8018C98.482 20.9817 96.0333 22.6889 93.1384 22.6889C90.4134 22.6889 88.7733 20.8541 88.1548 19.3536L90.3044 18.4528C90.6872 19.374 91.6251 20.4611 93.1359 20.4611C94.9889 20.4611 96.1372 19.3102 96.1372 17.1437V16.3297H96.051C95.4984 17.0161 94.4338 17.6158 93.0903 17.6158C90.2791 17.6158 87.7036 15.1507 87.7036 11.9788C87.7036 8.78384 90.2791 6.29834 93.0903 6.29834C94.4312 6.29834 95.4959 6.89802 96.051 7.56406H96.1372V6.64284H98.482V6.64029ZM96.3121 11.9788C96.3121 9.98576 94.9915 8.52866 93.3108 8.52866C91.6074 8.52866 90.1802 9.98576 90.1802 11.9788C90.1802 13.9513 91.6074 15.388 93.3108 15.388C94.9915 15.388 96.3121 13.9513 96.3121 11.9788Z" fill="#B3B3B3"/>
<path d="M102.348 0.684326V17.2714H99.9396V0.684326H102.348Z" fill="#B3B3B3"/>
<path d="M111.732 13.8213L113.648 15.1074C113.03 16.0287 111.539 17.6159 108.964 17.6159C105.77 17.6159 103.385 15.1304 103.385 11.9559C103.385 8.59001 105.79 6.2959 108.688 6.2959C111.605 6.2959 113.032 8.63339 113.499 9.89656L113.755 10.5396L106.239 13.6733C106.814 14.8089 107.709 15.3881 108.964 15.3881C110.221 15.3881 111.093 14.7655 111.732 13.8213ZM105.833 11.7849L110.857 9.68476C110.581 8.97789 109.75 8.48539 108.771 8.48539C107.516 8.48539 105.77 9.60054 105.833 11.7849Z" fill="#B3B3B3"/>
<path d="M54.2581 10.4861V8.0848H62.2963C62.3749 8.50331 62.4154 8.99837 62.4154 9.53425C62.4154 11.3359 61.9262 13.5636 60.3495 15.1509C58.8159 16.7585 56.8564 17.616 54.2606 17.616C49.4494 17.616 45.4037 13.6708 45.4037 8.82739C45.4037 3.98398 49.4494 0.0388184 54.2606 0.0388184C56.9223 0.0388184 58.8184 1.09018 60.243 2.46052L58.5598 4.15495C57.5383 3.19035 56.1542 2.44011 54.2581 2.44011C50.7447 2.44011 47.9969 5.29053 47.9969 8.82739C47.9969 12.3643 50.7447 15.2147 54.2581 15.2147C56.537 15.2147 57.8348 14.2935 58.6663 13.4564C59.3406 12.7777 59.7842 11.808 59.9591 10.4835L54.2581 10.4861Z" fill="#B3B3B3"/>
<path d="M52.0005 26.5361L49.5251 33.4291H54.5757L52.0804 26.5361H52.0005ZM47.3891 39.3976H45.2332L50.9425 24.1245H53.1584L58.8677 39.3976H56.7117L55.2544 35.2578H48.8664L47.3891 39.3976Z" fill="#B3B3B3"/>
<path d="M59.8506 28.9476H61.7271V30.3945H61.8069C62.0964 29.8871 62.5505 29.4651 63.1644 29.1285C63.7882 28.7818 64.427 28.606 65.0808 28.606C66.3584 28.606 67.3366 28.9777 68.0153 29.7112C68.7041 30.4347 69.0534 31.4747 69.0534 32.8262V39.3976H67.0971V32.9668C67.0571 31.2536 66.2037 30.3945 64.5418 30.3945C63.7683 30.3945 63.1145 30.7161 62.5855 31.3591C62.0664 31.9922 61.8069 32.7408 61.8069 33.6099V39.3976H59.8506V28.9476Z" fill="#B3B3B3"/>
<path d="M72.6639 36.2023C72.6639 36.7148 72.8736 37.1418 73.3027 37.4885C73.727 37.8251 74.231 37.9909 74.8199 37.9909C75.6284 37.9909 76.357 37.6894 76.9959 37.0866C77.6446 36.4736 77.974 35.7502 77.974 34.9162C77.3602 34.4339 76.5068 34.1927 75.4188 34.1927C74.6303 34.1927 73.9715 34.3886 73.4425 34.7755C72.9235 35.1523 72.6639 35.6296 72.6639 36.2023ZM75.1792 28.606C76.6166 28.606 77.7445 28.9978 78.5729 29.7715C79.4113 30.5503 79.8306 31.6154 79.8306 32.9668V39.3976H77.974V37.9507H77.8942C77.0807 39.1464 76.0027 39.7393 74.6602 39.7393C73.5124 39.7393 72.5541 39.3976 71.7856 38.7143C71.027 38.0311 70.6477 37.182 70.6477 36.1621C70.6477 35.0769 71.052 34.2228 71.8654 33.5898C72.6739 32.9467 73.7619 32.6252 75.1194 32.6252C76.2772 32.6252 77.2254 32.8362 77.974 33.2482V32.8061C77.974 32.1228 77.6995 31.5501 77.1556 31.0778C76.6216 30.5955 75.9977 30.3543 75.2791 30.3543C74.1861 30.3543 73.3277 30.8165 72.7039 31.741L70.9871 30.6558C71.9303 29.2892 73.3277 28.606 75.1792 28.606Z" fill="#B3B3B3"/>
<path d="M83.912 24.1245V39.3976H81.9557V24.1245H83.912Z" fill="#B3B3B3"/>
<path d="M95.4128 28.9478L88.905 43.9998H86.9087L89.3242 38.7346L85.0322 28.9478H87.1483L90.2425 36.4637H90.2824L93.2968 28.9478H95.4128Z" fill="#B3B3B3"/>
<path d="M100.772 39.5585C99.9331 39.5585 99.2344 39.2973 98.6754 38.7748C98.1165 38.2523 97.827 37.5238 97.817 36.5843V30.7363H95.9805V28.9477H97.817V25.7524H99.7534V28.9477H102.309V30.7363H99.7534V35.9412C99.7534 36.6396 99.8832 37.1168 100.153 37.368C100.432 37.6092 100.737 37.7298 101.071 37.7298C101.231 37.7298 101.38 37.7197 101.53 37.6896C101.675 37.6494 101.815 37.6042 101.949 37.5489L102.548 39.2973C102.039 39.4681 101.45 39.5585 100.772 39.5585Z" fill="#B3B3B3"/>
<path d="M106.575 25.3505C106.575 25.7273 106.436 26.0539 106.156 26.3352C105.887 26.6065 105.567 26.7371 105.198 26.7371C104.809 26.7371 104.484 26.6065 104.22 26.3352C103.95 26.0539 103.821 25.7273 103.821 25.3505C103.821 24.9637 103.95 24.6371 104.22 24.3658C104.484 24.0995 104.809 23.9639 105.198 23.9639C105.567 23.9639 105.887 24.0995 106.156 24.3658C106.436 24.6371 106.575 24.9637 106.575 25.3505ZM106.176 28.9477V39.3978H104.22V28.9477H106.176Z" fill="#B3B3B3"/>
<path d="M112.748 39.7393C111.201 39.7393 109.923 39.2117 108.915 38.1517C107.917 37.0815 107.418 35.7552 107.418 34.1726C107.418 32.5649 107.917 31.2386 108.915 30.1936C109.923 29.1385 111.201 28.606 112.748 28.606C113.811 28.606 114.734 28.8773 115.522 29.4098C116.306 29.9474 116.9 30.6859 117.299 31.6204L115.522 32.3639C114.973 31.0527 114.01 30.3945 112.628 30.3945C111.735 30.3945 110.961 30.7563 110.312 31.4797C109.673 32.2032 109.354 33.1025 109.354 34.1726C109.354 35.2478 109.673 36.142 110.312 36.8655C110.961 37.589 111.735 37.9507 112.628 37.9507C114.05 37.9507 115.048 37.2976 115.622 35.9813L117.359 36.7248C116.985 37.6643 116.391 38.4029 115.582 38.9354C114.769 39.468 113.826 39.7393 112.748 39.7393Z" fill="#B3B3B3"/>
<path d="M127 36.5038C127 37.4181 126.601 38.1868 125.802 38.8148C125.014 39.4278 124.026 39.7393 122.828 39.7393C121.79 39.7393 120.871 39.4629 120.073 38.9153C119.284 38.3677 118.72 37.6442 118.376 36.7449L120.113 36.0014C120.377 36.6344 120.752 37.1217 121.231 37.4684C121.72 37.8201 122.254 37.9909 122.828 37.9909C123.452 37.9909 123.971 37.8603 124.385 37.589C124.809 37.3227 125.024 37.0011 125.024 36.6243C125.024 35.9561 124.51 35.4688 123.487 35.1573L121.71 34.7152C119.684 34.1927 118.676 33.208 118.676 31.7611C118.676 30.8115 119.06 30.0479 119.833 29.4701C120.602 28.8974 121.59 28.606 122.788 28.606C123.706 28.606 124.535 28.827 125.283 29.2691C126.027 29.7112 126.546 30.3041 126.84 31.0376L125.104 31.7611C124.904 31.3189 124.575 30.9773 124.125 30.7362C123.686 30.485 123.192 30.3543 122.648 30.3543C122.139 30.3543 121.68 30.485 121.271 30.7362C120.871 30.9924 120.672 31.3089 120.672 31.6807C120.672 32.2735 121.231 32.7006 122.349 32.9668L123.906 33.3688C125.967 33.8812 127 34.9262 127 36.5038Z" fill="#B3B3B3"/>
<path d="M26.7961 5.14982V37.5202C26.7961 41.145 29.2778 43.1604 31.9118 43.1604C34.3478 43.1604 37.0274 41.4438 37.0274 37.5202V5.39505C37.0274 2.07679 34.5914 0 31.9118 0C29.2322 0 26.7961 2.29136 26.7961 5.14982Z" fill="#B3B3B3"/>
<path d="M13.3981 21.58V37.5199C13.3981 41.1447 15.8798 43.1602 18.5137 43.1602C20.9497 43.1602 23.6293 41.4436 23.6293 37.5199V21.8252C23.6293 18.507 21.1933 16.4302 18.5137 16.4302C15.8341 16.4302 13.3981 18.7215 13.3981 21.58Z" fill="#B3B3B3"/>
<path d="M10.2312 38.0107C10.2312 40.8538 7.93987 43.1605 5.11562 43.1605C2.29137 43.1605 0 40.8538 0 38.0107C0 35.1675 2.29137 32.8608 5.11562 32.8608C7.93987 32.8608 10.2312 35.1675 10.2312 38.0107Z" fill="#B3B3B3"/>
</g>
<defs>
<clipPath id="clip0_600_493">
<rect width="127" height="44" fill="white"/>
</clipPath>
</defs>
</svg>
