<svg width="145" height="72" viewBox="0 0 145 72" fill="none" xmlns="http://www.w3.org/2000/svg">
<g clip-path="url(#clip0_600_555)">
<path d="M45.4688 36.5219C45.4704 35.0537 45.3512 33.5877 45.1124 32.1389H23.2329V40.8464H35.7516C35.4765 42.2485 34.9241 43.5818 34.1267 44.7686C33.3293 45.9554 32.3028 46.9718 31.1073 47.7584V53.5499H38.5711C42.9515 49.5157 45.4688 43.5689 45.4688 36.5219Z" fill="#B3B3B3"/>
<path d="M23.2328 59.175C29.5034 59.175 34.75 57.0892 38.5823 53.55L31.1117 47.7562C29.0207 49.1467 26.3749 50.0062 23.2328 50.0062C17.1742 50.0062 12.045 45.9315 10.2044 40.428H2.49695V46.395C4.42391 50.2348 7.38412 53.464 11.0463 55.721C14.7084 57.9781 18.928 59.174 23.2328 59.175Z" fill="#B3B3B3"/>
<path d="M10.1999 40.4213C9.7121 38.9983 9.4666 37.5039 9.47361 36.0001C9.47954 34.4965 9.72782 33.0037 10.2089 31.5788V25.6118H2.49699C0.855668 28.8299 0.00012207 32.3894 0.00012207 36.0001C0.00012207 39.6107 0.855668 43.1702 2.49699 46.3883L10.1999 40.4213Z" fill="#B3B3B3"/>
<path d="M23.2328 22.0005C26.6591 22.0005 29.7177 23.1795 32.1357 25.4767L38.7515 18.873C34.7365 15.1267 29.4989 12.825 23.2328 12.825C18.9286 12.8269 14.7098 14.0236 11.0484 16.281C7.38714 18.5385 4.42777 21.7676 2.50146 25.6072L10.2044 31.5742C12.0405 26.0752 17.1697 22.0005 23.2328 22.0005Z" fill="#B3B3B3"/>
<path d="M60.9016 53.3249H58.77V36.7739H64.4203C65.7839 36.746 67.1031 37.2572 68.0902 38.1959C68.9857 39.0259 69.5263 40.168 69.5998 41.3852C69.6733 42.6023 69.274 43.8009 68.485 44.7321C67.7583 45.6055 66.7537 46.2043 65.6384 46.4286L65.5933 46.4984L70.2466 53.2214V53.3249H67.7226L63.2542 46.6266H60.9016V53.3249ZM60.9016 38.8191V44.6399H64.3279C65.1444 44.6583 65.9353 44.3552 66.5293 43.7961C66.8203 43.5319 67.0512 43.2087 67.2068 42.8482C67.3624 42.4878 67.4391 42.0983 67.4316 41.7059C67.4215 40.9313 67.1037 40.1923 66.5481 39.6511C65.9924 39.11 65.2443 38.8107 64.4677 38.8191H60.9016ZM76.648 53.6939C75.8785 53.7169 75.1128 53.5763 74.4019 53.2815C73.691 52.9867 73.0511 52.5444 72.5248 51.9839C71.4436 50.8454 70.9037 49.4061 70.9052 47.6661C70.9067 45.9261 71.4331 44.4899 72.4842 43.3574C72.9875 42.7956 73.6073 42.3496 74.3006 42.0505C74.9938 41.7513 75.744 41.6061 76.4992 41.6249C78.1819 41.6249 79.5209 42.1679 80.5164 43.2539C81.5119 44.3399 82.0096 45.8601 82.0096 47.8146L81.9871 48.0396H73.0819C73.0757 48.5381 73.171 49.0327 73.3622 49.4934C73.5533 49.954 73.8363 50.3711 74.1939 50.7194C74.5275 51.0502 74.9235 51.3116 75.3591 51.4885C75.7947 51.6654 76.2612 51.7542 76.7315 51.7499C78.0849 51.7499 79.1503 51.0749 79.9277 49.7249L81.8247 50.6496C81.3417 51.5812 80.6083 52.3603 79.7066 52.8996C78.7754 53.4363 77.7142 53.7072 76.639 53.6826L76.648 53.6939ZM73.2443 46.3026H79.7495C79.7271 45.9298 79.6306 45.5652 79.4657 45.2299C79.3007 44.8946 79.0706 44.5954 78.7886 44.3496C78.2112 43.8336 77.436 43.5756 76.4631 43.5756C75.7044 43.5599 74.9665 43.8235 74.3902 44.3159C73.7956 44.8279 73.3892 45.5231 73.2353 46.2914L73.2443 46.3026ZM89.2366 53.3249H87.1051L82.5194 42.0051H84.8359L88.1697 50.7801H88.2171L91.6005 42.0051H93.8697L89.2366 53.3249ZM98.011 38.1014C98.0104 38.448 97.8894 38.7836 97.6685 39.0512C97.4477 39.3188 97.1407 39.5018 96.7999 39.5689C96.459 39.6361 96.1053 39.5833 95.7991 39.4196C95.4929 39.2559 95.253 38.9913 95.1203 38.671C94.9876 38.3507 94.9704 37.9944 95.0715 37.6628C95.1726 37.3312 95.3858 37.0448 95.6748 36.8524C95.9638 36.66 96.3107 36.5735 96.6565 36.6076C97.0022 36.6417 97.3255 36.7943 97.5711 37.0394C97.7117 37.1759 97.8231 37.3394 97.8987 37.5199C97.9743 37.7005 98.0125 37.8945 98.011 38.0901V38.1014ZM97.5711 42.0051V53.3249H95.4418V41.9939L97.5711 42.0051ZM105.33 53.7051C104.561 53.729 103.795 53.5889 103.084 53.294C102.373 52.9991 101.733 52.5563 101.207 51.9951C100.126 50.8566 99.5861 49.4174 99.5877 47.6774C99.5892 45.9374 100.115 44.5011 101.167 43.3686C101.67 42.8034 102.29 42.3545 102.985 42.0533C103.68 41.7521 104.433 41.6059 105.191 41.6249C106.873 41.6249 108.212 42.1679 109.208 43.2539C110.203 44.3399 110.701 45.8601 110.701 47.8146L110.679 48.0396H101.764C101.758 48.538 101.853 49.0325 102.043 49.4932C102.234 49.9538 102.517 50.371 102.874 50.7194C103.21 51.0487 103.609 51.3081 104.046 51.4827C104.484 51.6573 104.952 51.7435 105.423 51.7364C106.776 51.7364 107.841 51.0614 108.617 49.7114L110.525 50.6249C110.041 51.556 109.308 52.3349 108.407 52.8749C107.478 53.4206 106.416 53.7001 105.337 53.6826L105.33 53.7051ZM101.924 46.3139H108.432C108.41 45.9411 108.313 45.5764 108.148 45.2411C107.983 44.9058 107.753 44.6066 107.471 44.3609C106.894 43.8449 106.118 43.5869 105.143 43.5869C104.385 43.5711 103.648 43.8347 103.073 44.3271C102.484 44.838 102.08 45.5284 101.924 46.2914V46.3139ZM128.487 42.0164L124.828 53.3249H122.651L119.825 44.6399L117.024 53.3249H114.869L111.202 41.9939H113.426L115.95 50.5439H115.972L118.774 41.9939H120.975L123.777 50.5439H123.799L126.301 41.9939L128.487 42.0164ZM138.56 50.1749C138.56 51.1604 138.128 51.9914 137.263 52.6679C136.399 53.3444 135.31 53.6834 133.997 53.6849C132.925 53.7023 131.874 53.3879 130.988 52.7849C130.141 52.2142 129.493 51.3948 129.134 50.4404L131.033 49.6304C131.278 50.2612 131.7 50.8081 132.249 51.2054C132.757 51.5738 133.369 51.7715 133.997 51.7701C134.595 51.7917 135.187 51.6392 135.7 51.3314C136.151 51.0314 136.377 50.6849 136.377 50.2919C136.377 49.5696 135.82 49.0364 134.71 48.6989L132.763 48.2129C130.556 47.6594 129.452 46.5966 129.452 45.0246C129.442 44.5402 129.552 44.0607 129.772 43.6289C129.992 43.1971 130.316 42.8263 130.715 42.5496C131.554 41.9256 132.631 41.6136 133.945 41.6136C134.9 41.601 135.841 41.8484 136.665 42.3291C137.433 42.7596 138.032 43.4347 138.368 44.2461L136.469 45.0314C136.253 44.5505 135.882 44.1548 135.416 43.9064C134.916 43.633 134.353 43.4935 133.783 43.5014C133.255 43.4926 132.736 43.6372 132.29 43.9176C131.85 44.1944 131.629 44.5341 131.629 44.9324C131.629 45.5804 132.238 46.0424 133.458 46.3184L135.172 46.7571C137.431 47.3256 138.56 48.4649 138.56 50.1749Z" fill="#B3B3B3"/>
<path d="M63.2362 14.292L65.1354 20.124H71.2774L66.3151 23.724L68.2143 29.556L63.252 25.956L58.2761 29.556L60.1776 23.724L55.2017 20.124H61.3505L63.2362 14.292ZM79.7631 20.124H73.6142L78.5901 23.724L76.6909 29.5627L81.6668 25.9627L86.6404 29.5627L84.7412 23.7307L89.7148 20.1307H83.5638L81.6645 14.2987L79.7631 20.124ZM98.1937 20.124H92.0449L97.0185 23.724L95.1193 29.556L100.093 25.956L105.069 29.556L103.167 23.724L108.143 20.124H101.994L100.093 14.292L98.1937 20.124ZM116.622 20.124H110.473L115.447 23.724L113.548 29.556L118.521 25.956L123.497 29.556L121.598 23.724L126.56 20.124H120.423L118.521 14.292L116.622 20.124ZM135.05 20.124H128.902L133.878 23.724L131.976 29.556L136.952 25.956L141.926 29.556L140.026 23.724L145 20.124H138.851L136.952 14.292L135.05 20.124Z" fill="#B3B3B3"/>
</g>
<defs>
<clipPath id="clip0_600_555">
<rect width="145" height="72" fill="white"/>
</clipPath>
</defs>
</svg>
