<svg width="141" height="32" viewBox="0 0 141 32" fill="none" xmlns="http://www.w3.org/2000/svg">
<path d="M39.8505 25.7155V4.59814H52.7366V8.68538H44.7324V14.3621H52.7366V18.3926H44.7324V25.7155H39.8505Z" fill="#B3B3B3"/>
<path d="M55.9724 25.7156V11.1832H60.5706V14.1919C60.7976 13.1701 61.3085 12.3186 62.0465 11.7509C62.7845 11.1832 63.636 10.8994 64.5443 10.8994C64.9984 10.8994 65.4525 10.9562 65.7364 11.0129V15.3273C65.1687 15.2705 64.7146 15.2137 64.374 15.2137C61.8194 15.2137 60.5706 16.86 60.5706 20.0389V25.6589H55.9724V25.7156Z" fill="#B3B3B3"/>
<path d="M73.6836 26.0556C71.5833 26.0556 69.8802 25.3177 68.6881 23.8985C67.4393 22.4793 66.8716 20.606 66.8716 18.3921C66.8716 16.1782 67.496 14.3616 68.7449 12.8857C69.9938 11.4665 71.6968 10.7285 73.7404 10.7285C74.7622 10.7285 75.6705 10.9556 76.4652 11.4097C77.26 11.8639 77.8844 12.4315 78.2818 13.2263V11.1259H82.8799V25.6583H78.2818V23.6147C77.8844 24.3526 77.26 24.9203 76.4085 25.3744C75.6137 25.8853 74.7055 26.0556 73.6836 26.0556ZM74.9893 22.2522C76.0679 22.2522 76.9761 21.9116 77.5438 21.1737C78.1115 20.4357 78.4521 19.5274 78.4521 18.4488C78.4521 17.3703 78.1682 16.462 77.5438 15.724C76.9194 14.9861 76.0679 14.6454 74.9893 14.6454C73.9675 14.6454 73.116 14.9861 72.4915 15.724C71.8671 16.4052 71.5265 17.3703 71.5265 18.4488C71.5265 19.5842 71.8671 20.4925 72.4915 21.2304C73.116 21.9116 73.9675 22.2522 74.9893 22.2522Z" fill="#B3B3B3"/>
<path d="M86.6833 25.7149V11.1825H91.2815V13.2829C91.6221 12.5449 92.133 11.9205 92.871 11.4664C93.6089 11.0122 94.4605 10.7852 95.4255 10.7852C97.6962 10.7852 99.2289 11.6934 99.9669 13.4532C100.364 12.6585 100.989 11.9773 101.783 11.5231C102.635 11.0122 103.543 10.7852 104.565 10.7852C108.028 10.7852 109.731 12.772 109.731 16.6889V25.7149H105.076V17.5404C105.076 15.6104 104.338 14.7021 102.919 14.7021C101.273 14.7021 100.478 15.8942 100.478 18.2784V25.7717H95.9364V17.4837C95.9364 15.6104 95.1984 14.6453 93.7792 14.6453C92.9845 14.6453 92.3601 14.9292 91.9627 15.4401C91.5653 15.951 91.3383 16.916 91.3383 18.2217V25.7149H86.6833Z" fill="#B3B3B3"/>
<path d="M127.783 17.654C127.783 18.2784 127.726 18.9029 127.669 19.6976H116.94C116.997 20.6626 117.281 21.4006 117.905 21.9115C118.53 22.4224 119.325 22.7063 120.346 22.7063C121.766 22.7063 122.674 22.2521 123.071 21.3438H127.613C127.385 22.763 126.591 23.9551 125.285 24.8066C123.923 25.7149 122.333 26.1691 120.403 26.1691C117.905 26.1691 115.975 25.4879 114.556 24.1254C113.137 22.763 112.399 20.8897 112.399 18.4487C112.399 16.0645 113.137 14.1912 114.556 12.8288C115.975 11.4664 117.905 10.7852 120.233 10.7852C122.503 10.7852 124.32 11.4096 125.739 12.7152C127.045 13.9641 127.783 15.6104 127.783 17.654ZM116.884 16.8025H123.185C123.185 15.8374 122.901 15.0995 122.39 14.5886C121.879 14.0777 121.141 13.7938 120.119 13.7938C119.154 13.7938 118.359 14.0777 117.792 14.6453C117.224 15.213 116.94 15.951 116.884 16.8025Z" fill="#B3B3B3"/>
<path d="M130.394 25.7156V11.1832H134.992V14.1919C135.219 13.1701 135.73 12.3186 136.468 11.7509C137.206 11.1832 138.058 10.8994 138.966 10.8994C139.42 10.8994 139.874 10.9562 140.158 11.0129V15.3273C139.59 15.2705 139.136 15.2137 138.796 15.2137C136.241 15.2137 134.992 16.86 134.992 20.0389V25.6589H130.394V25.7156Z" fill="#B3B3B3"/>
<path d="M21.1174 0V10.5587H10.5587L0 0H21.1174ZM0 10.5587H10.5587L21.1174 21.1174H10.5587V31.6761L0 21.1174V10.5587Z" fill="#B3B3B3"/>
</svg>
