<svg width="142" height="46" viewBox="0 0 142 46" fill="none" xmlns="http://www.w3.org/2000/svg">
<rect x="0.5" y="0.5" width="141" height="45" rx="22.5" fill="#356EFF"/>
<rect x="0.5" y="0.5" width="141" height="45" rx="22.5" stroke="#356EFF"/>
<path d="M22.3022 29L19.0802 16.4H21.0062L23.3642 25.643L25.7132 16.4H27.4142L29.7722 25.643L32.1302 16.4H34.0562L30.8522 29H28.7012L26.5682 20.657L24.4352 29H22.3022ZM38.414 29.234C37.586 29.234 36.83 29.021 36.146 28.595C35.468 28.169 34.925 27.599 34.517 26.885C34.115 26.165 33.914 25.37 33.914 24.5C33.914 23.84 34.031 23.225 34.265 22.655C34.499 22.079 34.82 21.575 35.228 21.143C35.642 20.705 36.122 20.363 36.668 20.117C37.214 19.871 37.796 19.748 38.414 19.748C39.242 19.748 39.995 19.961 40.673 20.387C41.357 20.813 41.9 21.386 42.302 22.106C42.71 22.826 42.914 23.624 42.914 24.5C42.914 25.154 42.797 25.766 42.563 26.336C42.329 26.906 42.005 27.41 41.591 27.848C41.183 28.28 40.706 28.619 40.16 28.865C39.62 29.111 39.038 29.234 38.414 29.234ZM38.414 27.362C38.912 27.362 39.359 27.23 39.755 26.966C40.151 26.702 40.463 26.354 40.691 25.922C40.925 25.484 41.042 25.01 41.042 24.5C41.042 23.978 40.922 23.498 40.682 23.06C40.448 22.622 40.133 22.274 39.737 22.016C39.341 21.752 38.9 21.62 38.414 21.62C37.922 21.62 37.475 21.752 37.073 22.016C36.677 22.28 36.362 22.631 36.128 23.069C35.9 23.507 35.786 23.984 35.786 24.5C35.786 25.034 35.906 25.517 36.146 25.949C36.386 26.381 36.704 26.726 37.1 26.984C37.502 27.236 37.94 27.362 38.414 27.362ZM44.3681 29V20H46.2401V20.954C46.5521 20.582 46.9361 20.288 47.3921 20.072C47.8481 19.856 48.3401 19.748 48.8681 19.748C49.2041 19.748 49.5371 19.793 49.8671 19.883L49.1201 21.773C48.8861 21.683 48.6521 21.638 48.4181 21.638C48.0221 21.638 47.6591 21.737 47.3291 21.935C46.9991 22.127 46.7351 22.388 46.5371 22.718C46.3391 23.048 46.2401 23.414 46.2401 23.816V29H44.3681ZM58.5846 29H56.4246L54.2106 25.184L52.7616 26.912V29H50.8896V15.5H52.7616V24.005L56.1096 20H58.5576L55.4886 23.663L58.5846 29ZM67.3374 29L64.1154 16.4H66.0414L68.3994 25.643L70.7484 16.4H72.4494L74.8074 25.643L77.1654 16.4H79.0914L75.8874 29H73.7364L71.6034 20.657L69.4704 29H67.3374ZM80.1044 20H81.9764V29H80.1044V20ZM81.0584 18.695C80.7704 18.695 80.5304 18.602 80.3384 18.416C80.1464 18.23 80.0504 17.996 80.0504 17.714C80.0504 17.438 80.1464 17.207 80.3384 17.021C80.5304 16.829 80.7674 16.733 81.0494 16.733C81.3254 16.733 81.5594 16.829 81.7514 17.021C81.9434 17.207 82.0394 17.438 82.0394 17.714C82.0394 17.996 81.9434 18.23 81.7514 18.416C81.5654 18.602 81.3344 18.695 81.0584 18.695ZM88.8818 21.872H86.9918L86.9828 29H85.1108L85.1198 21.872H83.6888V20H85.1198L85.1108 17.174H86.9828L86.9918 20H88.8818V21.872ZM98.5931 23.357V29H96.7211V23.816C96.7211 23.414 96.6221 23.048 96.4241 22.718C96.2321 22.388 95.9711 22.127 95.6411 21.935C95.3171 21.737 94.9511 21.638 94.5431 21.638C94.1471 21.638 93.7841 21.737 93.4541 21.935C93.1241 22.127 92.8601 22.388 92.6621 22.718C92.4641 23.048 92.3651 23.414 92.3651 23.816V29H90.4931V15.5H92.3651V20.954C92.6771 20.582 93.0611 20.288 93.5171 20.072C93.9731 19.856 94.4651 19.748 94.9931 19.748C95.6591 19.748 96.2651 19.91 96.8111 20.234C97.3571 20.558 97.7891 20.993 98.1071 21.539C98.4311 22.085 98.5931 22.691 98.5931 23.357ZM109.7 29.234C108.692 29.234 107.813 28.988 107.063 28.496C106.319 28.004 105.74 27.344 105.326 26.516C104.918 25.682 104.714 24.758 104.714 23.744V16.4H106.586V23.744C106.586 24.404 106.706 25.01 106.946 25.562C107.192 26.108 107.546 26.546 108.008 26.876C108.476 27.2 109.04 27.362 109.7 27.362C110.378 27.362 110.948 27.2 111.41 26.876C111.872 26.546 112.22 26.108 112.454 25.562C112.694 25.01 112.814 24.404 112.814 23.744V16.4H114.686V23.744C114.686 24.506 114.569 25.22 114.335 25.886C114.101 26.546 113.765 27.128 113.327 27.632C112.889 28.136 112.364 28.529 111.752 28.811C111.14 29.093 110.456 29.234 109.7 29.234ZM119.543 29.171C119.069 29.141 118.607 29.045 118.157 28.883C117.707 28.721 117.311 28.502 116.969 28.226C116.633 27.944 116.381 27.614 116.213 27.236L117.806 26.552C117.884 26.714 118.019 26.873 118.211 27.029C118.409 27.185 118.64 27.314 118.904 27.416C119.168 27.512 119.444 27.56 119.732 27.56C120.014 27.56 120.275 27.521 120.515 27.443C120.761 27.359 120.962 27.233 121.118 27.065C121.274 26.897 121.352 26.696 121.352 26.462C121.352 26.198 121.262 25.994 121.082 25.85C120.908 25.7 120.689 25.586 120.425 25.508C120.161 25.43 119.897 25.355 119.633 25.283C119.045 25.151 118.505 24.971 118.013 24.743C117.527 24.509 117.14 24.212 116.852 23.852C116.564 23.486 116.42 23.039 116.42 22.511C116.42 21.935 116.576 21.437 116.888 21.017C117.2 20.591 117.608 20.264 118.112 20.036C118.622 19.808 119.165 19.694 119.741 19.694C120.461 19.694 121.121 19.847 121.721 20.153C122.321 20.459 122.78 20.879 123.098 21.413L121.613 22.295C121.523 22.115 121.388 21.953 121.208 21.809C121.028 21.665 120.824 21.551 120.596 21.467C120.368 21.377 120.131 21.326 119.885 21.314C119.579 21.302 119.294 21.338 119.03 21.422C118.772 21.5 118.565 21.626 118.409 21.8C118.253 21.974 118.175 22.196 118.175 22.466C118.175 22.73 118.268 22.928 118.454 23.06C118.64 23.186 118.874 23.288 119.156 23.366C119.444 23.444 119.738 23.531 120.038 23.627C120.572 23.795 121.073 24.002 121.541 24.248C122.009 24.488 122.387 24.785 122.675 25.139C122.963 25.493 123.101 25.925 123.089 26.435C123.089 26.999 122.918 27.494 122.576 27.92C122.24 28.346 121.802 28.67 121.262 28.892C120.722 29.114 120.149 29.207 119.543 29.171Z" fill="white"/>
</svg>
