<svg width="108" height="36" viewBox="0 0 108 36" fill="none" xmlns="http://www.w3.org/2000/svg">
<path d="M0 9.41504H5.7V15.045H10.913V9.41504H16.613V26.465H10.913V20.765H5.7V26.465H0V9.41504ZM24.107 15.07H19.08V9.41604H34.816V15.07H29.796V26.467H24.096V15.07H24.107ZM37.314 9.41504H43.257L46.913 15.415L50.565 9.41504H56.5V26.465H50.824V18.013L46.904 24.076H46.806L42.9 18.014V26.466H37.324L37.314 9.41504ZM59.344 9.41504H65.044V20.84H73.059V26.476H59.345L59.344 9.41504Z" fill="#B3B3B3"/>
<path d="M75.77 0H107.407L104.525 32.288L91.57 35.88L78.65 32.293L75.77 0Z" fill="#B3B3B3"/>
<path d="M86.3499 14.6185L85.9879 10.5625H91.5999V6.60254H81.6699L82.7379 18.5795H91.5999V14.6195L86.3499 14.6185ZM82.9039 20.5605L83.4589 26.7805L91.5719 29.0325L91.5899 29.0275V24.9075L91.5729 24.9125L87.1729 23.7125L86.8909 20.5525H84.7479L82.9039 20.5605Z" fill="white"/>
<path d="M100.686 15.6808L100.783 14.6168H91.5769V18.5768H96.4539L95.9939 23.7138L91.5769 24.9058V29.0258L99.6969 26.7758L99.7569 26.1058L100.686 15.6808ZM91.5859 10.5628H101.153L101.508 6.59277H91.5859V10.5428V10.5628Z" fill="white"/>
</svg>
