<svg width="39" height="54" viewBox="0 0 39 54" fill="none" xmlns="http://www.w3.org/2000/svg">
<path d="M3.48162 49.6627L0 10.6123H38.257L34.7717 49.6566L19.1051 53.9999L3.48162 49.6627Z" fill="#B3B3B3"/>
<path d="M31.7878 47.1703L34.7662 13.8052H19.1284V50.68L31.7878 47.1703Z" fill="#B3B3B3"/>
<path d="M7.98145 28.2886L8.4107 33.0779H19.1284V28.2886H7.98145Z" fill="white"/>
<path d="M7.55439 23.3842H19.1285V18.5947H19.1119H7.11902L7.55439 23.3842Z" fill="white"/>
<path d="M19.1064 45.7157L19.1285 45.7096V40.7266L19.1075 40.7322L13.7735 39.2919L13.4325 35.4722H10.8406H8.62476L9.29575 42.9922L19.1064 45.7157Z" fill="white"/>
<path d="M9.00342 0H14.8042V2.42577H11.4292V4.85155H14.8042V7.27732H9.00342V0Z" fill="#B3B3B3"/>
<path d="M15.9644 0H21.7651V2.10937H18.3901V2.53124H21.7651V7.38279H15.9644V5.16795H19.3393V4.74608H15.9644V0Z" fill="#B3B3B3"/>
<path d="M22.9253 0H28.7261V2.10937H25.3511V2.53124H28.7261V7.38279H22.9253V5.16795H26.3003V4.74608H22.9253V0Z" fill="#B3B3B3"/>
<path d="M31.1093 18.5947H19.1118V23.3842H25.8605L25.4247 28.2885H19.1118V33.0779H25.0094L24.4535 39.2893L19.1118 40.7311V45.7138L28.9303 42.9926L29.0023 42.1835L30.1278 29.5746L30.2446 28.2885L31.1093 18.5947Z" fill="white"/>
</svg>
