<svg width="125" height="34" viewBox="0 0 125 34" fill="none" xmlns="http://www.w3.org/2000/svg">
<g clip-path="url(#clip0_1012_340)">
<path d="M23.8219 16.0665C24.0673 16.0366 24.3026 16.0359 24.5183 16.0665C24.6434 15.7762 24.6649 15.2764 24.5526 14.7324C24.3852 13.9232 24.1594 13.4336 23.6922 13.5097C23.225 13.5859 23.2075 14.172 23.3749 14.9812C23.469 15.4362 23.6357 15.8258 23.8219 16.0665Z" fill="#B3B3B3"/>
<path d="M19.8093 16.7067C20.1441 16.855 20.3491 16.9536 20.4298 16.8679C20.4815 16.8142 20.4661 16.7122 20.3861 16.5802C20.2214 16.3076 19.8812 16.0315 19.5216 15.8758C18.7848 15.5548 17.9062 15.6616 17.2286 16.1546C17.0047 16.3205 16.793 16.5503 16.8232 16.6897C16.8333 16.7346 16.8662 16.7686 16.9449 16.7802C17.1291 16.8012 17.7737 16.4721 18.5166 16.4259C19.0409 16.3932 19.4752 16.5585 19.8093 16.7067Z" fill="#B3B3B3"/>
<path d="M19.1364 17.0953C18.7008 17.1647 18.4608 17.3102 18.3062 17.4455C18.1744 17.5618 18.0931 17.6903 18.0938 17.7808L18.1274 17.861L18.1993 17.8889C18.2974 17.8889 18.5179 17.7998 18.5179 17.7998C19.1243 17.5802 19.5243 17.6067 19.9202 17.6522C20.1394 17.6774 20.2429 17.691 20.2906 17.6148C20.3047 17.5931 20.3222 17.5462 20.2785 17.4741C20.1763 17.3068 19.7367 17.0239 19.1371 17.096L19.1364 17.0953Z" fill="#B3B3B3"/>
<path d="M22.4673 18.5203C22.7631 18.6672 23.0885 18.6094 23.1947 18.3911C23.3009 18.1728 23.147 17.877 22.8512 17.7301C22.5554 17.5833 22.23 17.6411 22.1238 17.8593C22.0176 18.0776 22.1715 18.3734 22.4673 18.5203Z" fill="#B3B3B3"/>
<path d="M24.3683 16.8399C24.1284 16.8358 23.9287 17.1024 23.9233 17.4362C23.918 17.7694 24.1082 18.0428 24.3482 18.0469C24.5882 18.051 24.7878 17.7844 24.7932 17.4512C24.7986 17.118 24.6083 16.8446 24.3683 16.8399Z" fill="#B3B3B3"/>
<path d="M8.22998 22.8498C8.17015 22.7743 8.07201 22.7974 7.97722 22.8192C7.91067 22.8348 7.83538 22.8525 7.75337 22.8512C7.57657 22.8478 7.42666 22.7716 7.34263 22.641C7.23306 22.471 7.23978 22.2174 7.36011 21.927L7.41658 21.7972C7.60951 21.3599 7.93151 20.6276 7.56985 19.9306C7.29759 19.4056 6.85257 19.0785 6.31815 19.0099C5.80523 18.9439 5.27685 19.1363 4.94006 19.5124C4.40833 20.1053 4.32564 20.9125 4.42849 21.1981C4.46614 21.3028 4.52529 21.3314 4.56765 21.3375C4.6584 21.3497 4.7915 21.2831 4.87553 21.0553L4.89973 20.9812C4.93737 20.8608 5.00661 20.6364 5.12022 20.4562C5.25736 20.2393 5.47113 20.0897 5.72255 20.0353C5.97799 19.9802 6.23949 20.0292 6.45797 20.174C6.83039 20.4209 6.97358 20.8819 6.81493 21.3225C6.73291 21.5503 6.59914 21.9855 6.62872 22.3432C6.68855 23.0674 7.12886 23.3584 7.52414 23.389C7.90865 23.404 8.17755 23.185 8.24544 23.0252C8.28578 22.9307 8.2515 22.8736 8.22998 22.8484V22.8498Z" fill="#B3B3B3"/>
<path d="M30.4313 21.5253C30.4165 21.473 30.321 21.12 30.1899 20.695L29.9231 19.9708C30.4488 19.1746 30.4582 18.4626 30.3883 18.0594C30.3136 17.5596 30.1079 17.1332 29.6932 16.6933C29.2784 16.2526 28.4307 15.8018 27.2388 15.4638L26.6136 15.2884C26.6103 15.2625 26.5807 13.7971 26.5538 13.1681C26.5343 12.7132 26.4953 12.004 26.2775 11.3043C26.018 10.3577 25.5663 9.53016 25.0016 9.00045C26.5592 7.36777 27.5313 5.5685 27.5286 4.02558C27.5239 1.05807 23.9213 0.159798 19.4812 2.01959L18.5408 2.42351C18.5367 2.41943 16.84 0.735756 16.8145 0.713316C11.7525 -3.75291 -4.07524 14.0426 0.985348 18.3647L2.09118 19.3126C1.80413 20.064 1.69187 20.9256 1.78396 21.8517C1.90228 23.041 2.50863 24.1814 3.49211 25.0627C4.42518 25.8991 5.65268 26.4288 6.84321 26.4274C8.81218 31.0181 13.3115 33.834 18.5872 33.9924C24.246 34.1624 28.9967 31.4764 30.9872 26.6511C31.1176 26.3125 31.6702 24.7866 31.6702 23.4395C31.6702 22.0856 30.9139 21.5246 30.4319 21.5246L30.4313 21.5253ZM7.27814 25.1381C7.10605 25.1681 6.9306 25.1796 6.7538 25.1755C5.0443 25.1293 3.19835 23.5728 3.01483 21.7266C2.81181 19.6866 3.84235 18.1158 5.66747 17.7439C5.88527 17.6997 6.14946 17.6738 6.43382 17.6888C7.45629 17.7452 8.96276 18.5394 9.30695 20.7923C9.61147 22.7874 9.12746 24.8192 7.27814 25.1381ZM5.36967 16.5233C4.23359 16.747 3.23263 17.3977 2.62022 18.2974C2.25453 17.9887 1.57221 17.3909 1.45188 17.1584C0.474449 15.2809 2.51872 11.6307 3.94654 9.5696C7.47578 4.47506 13.0029 0.619476 15.5621 1.31851C15.9782 1.43751 17.3556 3.05319 17.3556 3.05319C17.3556 3.05319 14.7978 4.48866 12.4261 6.48989C9.23032 8.97937 6.81565 12.597 5.36967 16.5233ZM23.3103 24.3752C23.3473 24.3595 23.3728 24.316 23.3688 24.2739C23.3634 24.2215 23.317 24.1834 23.2652 24.1889C23.2652 24.1889 20.5877 24.5901 18.0581 23.653C18.3337 22.7473 19.0665 23.0744 20.1736 23.1648C22.1695 23.2852 23.9583 22.99 25.2799 22.6065C26.4254 22.274 27.9299 21.6185 29.0989 20.6855C29.4928 21.5614 29.632 22.5249 29.632 22.5249C29.632 22.5249 29.9372 22.4698 30.192 22.6283C30.4326 22.7786 30.6094 23.09 30.4891 23.8965C30.243 25.4027 29.6105 26.6246 28.547 27.7493C27.8996 28.4545 27.1138 29.0672 26.2143 29.5126C25.7371 29.7662 25.2282 29.9858 24.6911 30.1633C20.6818 31.488 16.5772 30.0314 15.2542 26.9041C15.1487 26.6688 15.0593 26.4227 14.9887 26.1656C14.4247 24.1045 14.9033 21.6321 16.3997 20.0756C16.4918 19.9763 16.5859 19.8593 16.5859 19.7124C16.5859 19.5894 16.5086 19.4602 16.4421 19.3684C15.9184 18.6007 14.1054 17.2917 14.4697 14.7587C14.7312 12.939 16.3042 11.6579 17.7711 11.734L18.1428 11.7558C18.7781 11.7939 19.3327 11.8762 19.8563 11.8986C20.7323 11.9367 21.5194 11.8082 22.4518 11.0221C22.7664 10.7569 23.0185 10.527 23.4454 10.4536C23.4904 10.4461 23.602 10.4053 23.8245 10.4162C24.0524 10.4284 24.2689 10.4917 24.4638 10.6229C25.2114 11.1261 25.3176 12.3454 25.3566 13.2368C25.3788 13.7461 25.4393 14.9776 25.4601 15.3305C25.5078 16.1391 25.7176 16.2526 26.1424 16.3947C26.3817 16.4743 26.6036 16.5335 26.9303 16.6266C27.9198 16.9075 28.5067 17.1931 28.8771 17.5589C29.0976 17.7881 29.2004 18.0308 29.232 18.2634C29.349 19.1249 28.5712 20.1884 26.5121 21.1554C24.2615 22.2121 21.5316 22.4794 19.6453 22.2672L18.9844 22.1917C17.4753 21.9864 16.6148 23.959 17.5203 25.3102C18.1038 26.1813 19.6937 26.7477 21.2842 26.7484C24.931 26.7491 27.7343 25.1735 28.7769 23.8128L28.8603 23.6925C28.9114 23.6143 28.869 23.5714 28.8051 23.6156C27.9534 24.2052 24.1694 26.5464 20.1219 25.8419C20.1219 25.8419 19.6298 25.7603 19.1814 25.5835C18.8245 25.4435 18.0783 25.096 17.9875 24.3208C21.2539 25.3428 23.3103 24.3765 23.3103 24.3765V24.3752ZM18.1361 23.7571L18.1368 23.7577L18.1374 23.7591L18.1361 23.7571ZM11.8877 9.54784C13.1421 8.08109 14.6868 6.80609 16.0703 6.09006C16.118 6.06558 16.1691 6.11794 16.1429 6.16554C16.0333 6.36682 15.8216 6.79793 15.7544 7.12433C15.7436 7.17533 15.7987 7.21341 15.8411 7.18417C16.7015 6.59053 18.1993 5.95474 19.5128 5.87314C19.5693 5.86974 19.5962 5.9425 19.5518 5.97786C19.3522 6.1329 19.1337 6.3471 18.9744 6.56401C18.9475 6.60073 18.973 6.65377 19.0181 6.65445C19.9404 6.66125 21.2405 6.98765 22.0875 7.46841C22.1446 7.50105 22.1043 7.61325 22.0398 7.59829C20.7578 7.30113 18.6591 7.07537 16.479 7.61325C14.5329 8.09333 13.0473 8.83453 11.9636 9.63216C11.9092 9.67228 11.8433 9.6002 11.8877 9.54784Z" fill="#B3B3B3"/>
<path d="M120.99 12.996C119.115 12.996 118.255 14.4185 117.882 15.2284C117.635 15.7636 117.647 15.9207 117.467 15.9207C117.206 15.9207 117.423 15.4909 117.54 14.985C117.771 13.9895 117.595 13.2292 117.595 13.2292H114.922V26.2029H118.57V22.0896C119.002 22.8301 119.802 23.6216 121.035 23.6216C123.672 23.6216 125 21.3634 125 18.3129C125 14.8551 123.411 12.9946 120.989 12.9946L120.99 12.996ZM119.989 21.2138C119.152 21.2138 118.536 20.1407 118.536 18.6447C118.536 17.1923 119.169 16.0764 119.96 16.0764C120.975 16.0764 121.408 17.0182 121.408 18.6447C121.408 20.3366 121.009 21.2138 119.989 21.2138Z" fill="#B3B3B3"/>
<path d="M48.474 12.9961C46.8694 12.9961 46.0755 14.2738 45.7111 15.0973C45.5074 15.5576 45.451 15.9214 45.2856 15.9214C45.053 15.9214 45.2197 15.6052 45.0295 14.9042C44.7787 13.9814 44.0245 12.9961 42.4205 12.9961C40.7346 12.9961 40.0126 14.437 39.6704 15.2285C39.4365 15.7698 39.4358 15.9208 39.2557 15.9208C38.9948 15.9208 39.2113 15.491 39.3283 14.9851C39.5595 13.9896 39.3834 13.2293 39.3834 13.2293H36.7106V23.3953H40.3588V18.3375C40.3588 17.3399 40.7715 16.0738 41.4787 16.0738C42.2955 16.0738 42.4595 16.7089 42.4595 17.8839V23.398H46.1225V18.3375C46.1225 17.4494 46.4808 16.0738 47.2479 16.0738C48.0761 16.0738 48.2233 16.9652 48.2233 17.8839V23.3953H51.8204V17.4168C51.8204 14.7634 50.8961 12.9947 48.4747 12.9947L48.474 12.9961ZM110.396 12.9961C108.792 12.9961 107.998 14.2738 107.633 15.0973C107.43 15.5576 107.373 15.9214 107.208 15.9214C106.975 15.9214 107.131 15.5196 106.952 14.9042C106.684 13.9862 106.019 12.9961 104.343 12.9961C102.657 12.9961 101.935 14.437 101.593 15.2285C101.359 15.7698 101.358 15.9208 101.178 15.9208C100.917 15.9208 101.134 15.491 101.251 14.9851C101.482 13.9896 101.306 13.2293 101.306 13.2293H98.6329V23.3953H102.281V18.3375C102.281 17.3399 102.694 16.0738 103.401 16.0738C104.218 16.0738 104.382 16.7089 104.382 17.8839V23.398H108.045V18.3375C108.045 17.4494 108.403 16.0738 109.17 16.0738C109.998 16.0738 110.146 16.9652 110.146 17.8839V23.3953H113.743V17.4168C113.743 14.7634 112.818 12.9947 110.397 12.9947L110.396 12.9961ZM58.0487 12.9981C55.2542 12.9981 53.2489 14.0372 53.2489 14.0372V17.0924C53.2489 17.0924 55.4632 15.8045 57.2595 15.8045C58.6933 15.8045 58.8695 16.5865 58.8043 17.2359C58.8043 17.2359 58.3908 17.125 57.129 17.125C54.1558 17.125 52.6546 18.4918 52.6546 20.6841C52.6546 22.7636 54.3413 23.6326 55.7631 23.6326C57.8369 23.6326 58.7485 22.223 59.0288 21.5539C59.2231 21.0901 59.2587 20.7773 59.4335 20.7773C59.6325 20.7773 59.5652 21.0017 59.5558 21.4634C59.539 22.2719 59.5767 22.8839 59.7037 23.3987H62.4531V18.3953C62.4531 15.2714 61.3601 12.9981 58.0487 12.9981ZM57.1606 21.0201C56.2881 21.2241 55.8363 20.9521 55.8363 20.3673C55.8363 19.5662 56.6558 19.2453 57.8248 19.2453C58.3404 19.2453 58.8251 19.2901 58.8251 19.2901C58.8251 19.6335 58.089 20.8038 57.1606 21.0201ZM68.4623 10.1523H72.1105V23.3987H68.4623V10.1523ZM76.1257 18.315C76.1257 17.4011 76.9654 16.5695 78.5061 16.5695C80.1854 16.5695 81.5359 17.3875 81.8391 17.5732V14.0372C81.8391 14.0372 80.7722 12.9981 78.1492 12.9981C75.3843 12.9981 73.0819 14.6349 73.0819 18.1573C73.0819 21.6797 75.1712 23.6326 78.1418 23.6326C80.4617 23.6326 81.8451 22.3433 81.8451 22.3433V18.9848C81.4075 19.2323 80.1881 20.0885 78.5229 20.0885C76.7597 20.0885 76.1251 19.2677 76.1251 18.3157L76.1257 18.315ZM89.2296 12.9981C87.1175 12.9981 86.3141 15.0225 86.1521 15.374C85.9901 15.7256 85.9095 15.9276 85.777 15.9235C85.5464 15.916 85.7071 15.4917 85.7972 15.2176C85.9673 14.6988 86.3269 13.3388 86.3269 11.666C86.3269 10.5318 86.175 10.1523 86.175 10.1523H83.0256V23.3987H86.6738V18.3409C86.6738 17.5167 86.9985 16.0772 87.9181 16.0772C88.6791 16.0772 88.9177 16.6477 88.9177 17.7969V23.3994H92.5659V18.0186C92.5659 15.4087 92.1384 12.9995 89.2296 12.9995V12.9981ZM93.7518 13.2436V23.398H97.4V13.2436C97.4 13.2436 96.7869 13.6067 95.5796 13.6067C94.3722 13.6067 93.7518 13.2436 93.7518 13.2436Z" fill="#B3B3B3"/>
<path d="M97.7987 11.524C97.7987 12.3383 96.7991 12.9983 95.5656 12.9983C94.332 12.9983 93.3324 12.3383 93.3324 11.524C93.3324 10.7098 94.332 10.0498 95.5656 10.0498C96.7991 10.0498 97.7987 10.7098 97.7987 11.524Z" fill="#B3B3B3"/>
<path d="M63.6329 13.2437V23.3981H67.2812V13.2437C67.2812 13.2437 66.6681 13.6068 65.4607 13.6068L63.6329 13.2437Z" fill="#B3B3B3"/>
<path d="M67.6798 11.524C67.6798 12.3383 66.68 12.9983 65.4467 12.9983C64.2133 12.9983 63.2135 12.3383 63.2135 11.524C63.2135 10.7098 64.2133 10.0498 65.4467 10.0498C66.68 10.0498 67.6798 10.7098 67.6798 11.524Z" fill="#B3B3B3"/>
</g>
<defs>
<clipPath id="clip0_1012_340">
<rect width="125" height="34" fill="white"/>
</clipPath>
</defs>
</svg>
