<svg width="146" height="29" viewBox="0 0 146 29" fill="none" xmlns="http://www.w3.org/2000/svg">
<g clip-path="url(#clip0_1012_332)">
<path d="M4.7835 19.1248C4.7835 20.7919 5.15466 22.0719 5.63979 22.8462C6.27584 23.8605 7.22454 24.2902 8.19171 24.2902C9.43918 24.2902 10.5804 23.985 12.7796 20.9863C14.5415 18.5828 16.6175 15.2091 18.0144 13.094L20.3799 9.51079C22.0232 7.02225 23.9252 4.25586 26.106 2.38073C27.8863 0.850262 29.8068 0 31.7396 0C34.9846 0 38.0755 1.85387 40.4411 5.33084C43.03 9.1388 44.2867 13.9352 44.2867 18.8849C44.2867 21.8274 43.6984 23.9895 42.6973 25.6976C41.7301 27.3496 39.8451 29 36.674 29V24.2902C39.3892 24.2902 40.0668 21.8305 40.0668 19.0155C40.0668 15.0041 39.1181 10.5524 37.0282 7.37147C35.5451 5.11524 33.6231 3.7366 31.5086 3.7366C29.2216 3.7366 27.3812 5.43712 25.3128 8.46921C24.2132 10.0802 23.0843 12.0434 21.8168 14.2586L20.4215 16.6955C17.6186 21.5951 16.9086 22.7111 15.5071 24.5528C13.0507 27.7778 10.9531 29 8.19171 29C4.91595 29 2.84454 27.6016 1.56165 25.4942C0.514388 23.777 0 21.5238 0 18.9563L4.7835 19.1248Z" fill="#B3B3B3"/>
<path d="M3.77173 5.66335C5.96481 2.33063 9.12968 0 12.7597 0C14.8619 0 16.9518 0.613403 19.1341 2.3701C21.5212 4.29079 24.0654 7.45345 27.2395 12.6659L28.3777 14.5364C31.1252 19.0489 32.6884 21.3704 33.6032 22.4651C34.7798 23.8711 35.6037 24.2902 36.6741 24.2902C39.3893 24.2902 40.0669 21.8305 40.0669 19.0155L44.2867 18.8849C44.2867 21.8274 43.6984 23.9895 42.6974 25.6976C41.7302 27.3496 39.8451 29 36.6741 29C34.7028 29 32.9563 28.5779 31.0251 26.7817C29.5404 25.4031 27.8047 22.954 26.4695 20.7525L22.4976 14.2115C20.5047 10.9289 18.6767 8.48136 17.6186 7.37298C16.4805 6.1811 15.0174 4.74173 12.6827 4.74173C10.793 4.74173 9.1882 6.04901 7.84525 8.04864L3.77173 5.66335Z" fill="url(#paint0_linear_1012_332)"/>
<path d="M12.6826 4.74173C10.7929 4.74173 9.18814 6.049 7.84519 8.04864C5.94627 10.8742 4.7835 15.083 4.7835 19.1248C4.7835 20.7919 5.15466 22.0719 5.63979 22.8462L1.56165 25.4942C0.514388 23.777 0 21.5238 0 18.9563C0 14.2874 1.29983 9.4212 3.77167 5.66335C5.96475 2.33063 9.12962 0 12.7596 0L12.6826 4.74173Z" fill="url(#paint1_linear_1012_332)"/>
<path d="M53.5857 0.916992H59.1192L68.5276 17.6975L77.9375 0.916992H83.3509V28.4898H78.8369V7.35773L70.5851 21.9913H66.3499L58.0997 7.35773V28.4898H53.5857V0.916992ZM97.495 11.1976C94.2578 11.1976 92.308 13.5996 91.8414 16.574H102.828C102.602 13.51 100.809 11.1976 97.495 11.1976ZM87.3659 18.2684C87.3659 12.0099 91.4687 7.4549 97.5736 7.4549C103.578 7.4549 107.164 11.9522 107.164 18.6024V19.8247H91.8414C92.385 23.0602 94.5627 25.2406 98.0741 25.2406C100.876 25.2406 102.627 24.3979 104.287 22.8568L106.685 25.7522C104.425 27.8004 101.552 28.9817 97.9139 28.9817C91.3054 28.9817 87.3659 24.2309 87.3659 18.2684ZM112.637 11.5923H108.482V7.94835H112.637V1.92212H116.993V7.94835H123.305V11.5923H116.993V20.8283C116.993 23.9819 118.015 25.1024 120.529 25.1024C121.676 25.1024 122.334 25.0052 123.305 24.8458V28.4503C122.095 28.7874 120.94 28.9422 119.689 28.9422C114.987 28.9422 112.637 26.4097 112.637 21.34V11.5923ZM141.645 15.1361C140.77 12.9588 138.819 11.3555 135.951 11.3555C132.224 11.3555 129.838 13.9624 129.838 18.2092C129.838 22.3497 132.035 25.0826 135.772 25.0826C138.711 25.0826 140.808 23.3973 141.645 21.3005V15.1361ZM146 28.4898H141.725V25.6141C140.53 27.307 138.355 28.9817 134.833 28.9817C129.168 28.9817 125.383 24.3068 125.383 18.2092C125.383 12.0539 129.259 7.4549 135.073 7.4549C137.947 7.4549 140.202 8.58757 141.725 10.5872V7.94835H146V28.4898Z" fill="#B3B3B3"/>
</g>
<defs>
<linearGradient id="paint0_linear_1012_332" x1="9.39458" y1="17.7644" x2="39.886" y2="19.3264" gradientUnits="userSpaceOnUse">
<stop stop-color="#B3B3B3"/>
<stop offset="0.4" stop-color="#B3B3B3"/>
<stop offset="0.83" stop-color="#B3B3B3"/>
<stop offset="1" stop-color="#B3B3B3"/>
</linearGradient>
<linearGradient id="paint1_linear_1012_332" x1="6.93038" y1="21.1047" x2="6.93038" y2="10.0209" gradientUnits="userSpaceOnUse">
<stop stop-color="#B3B3B3"/>
<stop offset="1" stop-color="#B3B3B3"/>
</linearGradient>
<clipPath id="clip0_1012_332">
<rect width="146" height="29" fill="white"/>
</clipPath>
</defs>
</svg>
