<svg width="145" height="32" viewBox="0 0 145 32" fill="none" xmlns="http://www.w3.org/2000/svg">
<g clip-path="url(#clip0_593_395)">
<path d="M60.3021 6.40001V25.6H57.0809V10.5333H57.0379L51.2826 25.6H49.1351L43.2509 10.5333H43.208V25.6H40.2444V6.40001H44.883L50.2088 20.6222H50.2947L55.9212 6.40001H60.3021ZM62.9651 7.86667C62.9651 7.33334 63.1369 6.88889 63.5234 6.53334C63.91 6.17778 64.3395 6.00001 64.8549 6.00001C65.4132 6.00001 65.8857 6.17778 66.2293 6.53334C66.5729 6.88889 66.7876 7.33334 66.7876 7.86667C66.7876 8.40001 66.6158 8.84445 66.2293 9.20001C65.8427 9.55556 65.4132 9.73334 64.8549 9.73334C64.2965 9.73334 63.867 9.55556 63.5234 9.20001C63.1798 8.80001 62.9651 8.35556 62.9651 7.86667ZM66.444 11.8222V25.6H63.3087V11.8222H66.444ZM75.936 23.2444C76.4085 23.2444 76.9239 23.1556 77.4822 22.8889C78.0406 22.6667 78.556 22.3556 79.0285 22V25.0222C78.513 25.3333 77.9547 25.5556 77.3104 25.6889C76.6662 25.8222 75.979 25.9111 75.2059 25.9111C73.2302 25.9111 71.641 25.2889 70.4384 24C69.1928 22.7111 68.5915 21.0667 68.5915 19.1111C68.5915 16.8889 69.2358 15.0667 70.4814 13.6444C71.7269 12.2222 73.4879 11.5111 75.8072 11.5111C76.4085 11.5111 77.0098 11.6 77.5681 11.7333C78.1694 11.8667 78.6419 12.0889 78.9855 12.2667V15.3778C78.513 15.0222 77.9976 14.7111 77.5252 14.5333C77.0098 14.3556 76.4944 14.2222 75.979 14.2222C74.7334 14.2222 73.7456 14.6222 72.9725 15.4667C72.1994 16.3111 71.8558 17.4222 71.8558 18.8444C71.8558 20.2222 72.2423 21.3333 72.9725 22.0889C73.7026 22.8444 74.6905 23.2444 75.936 23.2444ZM87.9191 11.6C88.1768 11.6 88.3916 11.6 88.6064 11.6444C88.8211 11.6889 88.9929 11.7333 89.1218 11.7778V15.0667C88.95 14.9333 88.7352 14.8 88.3916 14.7111C88.048 14.6222 87.7044 14.5333 87.2319 14.5333C86.4588 14.5333 85.8146 14.8889 85.2992 15.5556C84.7838 16.2222 84.4831 17.2444 84.4831 18.6667V25.6H81.3478V11.8222H84.4831V14H84.5261C84.8267 13.2444 85.2562 12.6667 85.8146 12.2222C86.4159 11.8222 87.1031 11.6 87.9191 11.6ZM89.2936 18.9333C89.2936 16.6667 89.9378 14.8444 91.1404 13.5111C92.386 12.1778 94.104 11.5111 96.2944 11.5111C98.3561 11.5111 99.9882 12.1333 101.148 13.4222C102.307 14.7111 102.909 16.4444 102.909 18.6222C102.909 20.8444 102.265 22.6222 101.062 23.9556C99.8164 25.2889 98.1413 25.9556 95.9938 25.9556C93.9322 25.9556 92.3001 25.3333 91.0975 24.0889C89.8949 22.8 89.2936 21.0667 89.2936 18.9333ZM92.5578 18.8C92.5578 20.2222 92.8584 21.3333 93.5027 22.0889C94.1469 22.8444 95.0489 23.2444 96.2085 23.2444C97.3253 23.2444 98.2272 22.8889 98.8285 22.0889C99.4298 21.3333 99.7305 20.2222 99.7305 18.7111C99.7305 17.2444 99.4298 16.1333 98.8285 15.3333C98.2272 14.5778 97.3253 14.1778 96.2515 14.1778C95.0918 14.1778 94.2328 14.5778 93.5886 15.3778C92.8584 16.2222 92.5578 17.3333 92.5578 18.8ZM107.59 15.4667C107.59 15.9111 107.719 16.3111 108.02 16.5778C108.321 16.8444 108.922 17.1556 109.91 17.5556C111.155 18.0889 112.057 18.6667 112.53 19.2889C113.045 19.9556 113.303 20.7111 113.303 21.6444C113.303 22.9333 112.83 23.9556 111.842 24.7556C110.898 25.5556 109.566 25.9111 107.934 25.9111C107.376 25.9111 106.774 25.8222 106.087 25.6889C105.4 25.5556 104.842 25.3778 104.369 25.1556V21.9556C104.927 22.3556 105.572 22.7111 106.216 22.9333C106.86 23.1556 107.462 23.2889 108.02 23.2889C108.707 23.2889 109.265 23.2 109.566 22.9778C109.91 22.7556 110.081 22.4444 110.081 21.9556C110.081 21.5111 109.91 21.1556 109.566 20.8C109.222 20.4889 108.535 20.1333 107.59 19.7333C106.431 19.2444 105.615 18.6667 105.142 18.0444C104.67 17.4222 104.412 16.6222 104.412 15.6444C104.412 14.4 104.884 13.3778 105.829 12.5778C106.774 11.7778 108.02 11.3778 109.523 11.3778C109.996 11.3778 110.511 11.4222 111.069 11.5556C111.628 11.6889 112.143 11.8222 112.53 11.9556V15.1111C112.1 14.8444 111.628 14.5778 111.069 14.3556C110.511 14.1333 109.953 14.0444 109.437 14.0444C108.836 14.0444 108.363 14.1778 108.063 14.4C107.762 14.7111 107.59 15.0222 107.59 15.4667ZM114.634 18.9333C114.634 16.6667 115.278 14.8444 116.481 13.5111C117.727 12.1778 119.445 11.5111 121.635 11.5111C123.697 11.5111 125.329 12.1333 126.488 13.4222C127.648 14.7111 128.249 16.4444 128.249 18.6222C128.249 20.8444 127.605 22.6222 126.403 23.9556C125.157 25.2889 123.482 25.9556 121.334 25.9556C119.273 25.9556 117.641 25.3333 116.438 24.0889C115.278 22.8 114.634 21.0667 114.634 18.9333ZM117.898 18.8C117.898 20.2222 118.199 21.3333 118.843 22.0889C119.488 22.8444 120.39 23.2444 121.549 23.2444C122.666 23.2444 123.568 22.8889 124.169 22.0889C124.77 21.3333 125.071 20.2222 125.071 18.7111C125.071 17.2444 124.77 16.1333 124.169 15.3333C123.568 14.5778 122.666 14.1778 121.592 14.1778C120.432 14.1778 119.573 14.5778 118.929 15.3778C118.242 16.2222 117.898 17.3333 117.898 18.8ZM138.686 14.4889H134.005V25.6H130.826V14.4889H128.593V11.8222H130.826V9.91112C130.826 8.48889 131.299 7.28889 132.201 6.35556C133.103 5.42223 134.262 4.97778 135.68 4.97778C136.066 4.97778 136.41 5.02223 136.711 5.02223C137.011 5.02223 137.269 5.11112 137.484 5.20001V8.00001C137.398 7.95556 137.183 7.86667 136.925 7.77778C136.668 7.68889 136.367 7.64445 136.023 7.64445C135.379 7.64445 134.864 7.86667 134.52 8.26667C134.177 8.66667 134.005 9.33334 134.005 10.1333V11.7778H138.686V8.66667L141.822 7.68889V11.7778H145V14.4444H141.822V20.8889C141.822 21.7333 141.993 22.3111 142.251 22.6667C142.552 23.0222 143.024 23.2 143.669 23.2C143.84 23.2 144.055 23.1556 144.313 23.0667C144.571 22.9778 144.785 22.8889 144.957 22.7556V25.4222C144.742 25.5556 144.442 25.6444 143.969 25.7333C143.497 25.8222 143.067 25.8667 142.595 25.8667C141.263 25.8667 140.275 25.5111 139.631 24.8C138.987 24.0889 138.643 22.9778 138.643 21.5111L138.686 14.4889Z" fill="#B3B3B3"/>
<path d="M14.689 0H0V15.2H14.689V0Z" fill="#B3B3B3"/>
<path d="M30.9242 0H16.2352V15.2H30.9242V0Z" fill="#B3B3B3"/>
<path d="M14.689 16.8H0V32H14.689V16.8Z" fill="#B3B3B3"/>
<path d="M30.9242 16.8H16.2352V32H30.9242V16.8Z" fill="#B3B3B3"/>
</g>
<defs>
<clipPath id="clip0_593_395">
<rect width="145" height="32" fill="white"/>
</clipPath>
</defs>
</svg>
