<svg width="209" height="26" viewBox="0 0 209 26" fill="none" xmlns="http://www.w3.org/2000/svg">
<g clip-path="url(#clip0_593_376)">
<path d="M144.297 10.2C144.297 6.99995 142.154 4.69995 138.191 4.69995H125.121V21.2999H129.406V15.6H134.441L139.369 21.2999H144.19V20.9L139.369 15.5C142.476 14.9 144.297 12.8 144.297 10.2ZM137.655 12.2H129.406V8.09995H137.655C139.155 8.09995 140.119 8.89995 140.119 10.2C140.226 11.5 139.262 12.2 137.655 12.2Z" fill="#B3B3B3"/>
<path d="M209 4.6001H205.036V10.9001H194.217V4.6001H189.932V21.2001H194.217V14.7001H205.036V21.2001H209V4.6001Z" fill="#B3B3B3"/>
<path d="M113.659 4.6001L108.946 18.5001H108.731L103.911 4.6001H96.3049V21.2001H100.376V7.6001H100.59L105.303 21.2001H111.838L116.659 7.6001H116.873V21.2001H121.051V4.6001H113.659Z" fill="#B3B3B3"/>
<path d="M67.06 11.4C65.5602 11.3 62.775 11 61.1681 10.9C59.6684 10.8 58.8114 10.3 58.8114 9.39995C58.8114 8.49995 59.7755 7.79995 63.4178 7.79995C66.6315 7.79995 69.631 8.49995 72.3091 9.59995V5.89995C69.7381 4.69995 66.8457 4.19995 63.2035 4.19995C58.1687 4.19995 54.6335 6.19995 54.6335 9.49995C54.6335 12.3 56.6689 13.9 60.8468 14.3C62.3465 14.5 64.9175 14.7 66.6315 14.8C68.5597 14.9 69.0954 15.5 69.0954 16.3C69.0954 17.4 67.7027 18.1 64.3819 18.1C60.9539 18.1 57.4188 17 54.8478 15.6V19.4C56.8832 20.7 60.3111 21.7 64.2748 21.7C69.7381 21.7 73.2732 19.7 73.2732 16.2C73.2732 13.5 71.4521 11.8 67.06 11.4Z" fill="#B3B3B3"/>
<path d="M76.1655 4.6001V21.2001H92.6627V17.8001H80.2363V14.4001H92.4485V11.0001H80.2363V8.0001H92.6627V4.6001H76.1655Z" fill="#B3B3B3"/>
<path d="M181.04 11.4C179.541 11.3 176.755 11 175.149 10.9C173.649 10.8 172.792 10.3 172.792 9.39995C172.792 8.49995 173.756 7.79995 177.398 7.79995C180.612 7.79995 183.611 8.39995 186.29 9.59995V5.89995C183.719 4.69995 180.826 4.19995 177.184 4.19995C172.149 4.19995 168.614 6.19995 168.614 9.49995C168.614 12.3 170.649 13.9 174.827 14.3C176.327 14.5 178.898 14.7 180.612 14.8C182.54 14.9 183.076 15.5 183.076 16.3C183.076 17.4 181.683 18.1 178.362 18.1C174.934 18.1 171.399 17 168.828 15.6V19.4C170.864 20.7 174.292 21.7 178.255 21.7C183.719 21.7 187.254 19.7 187.254 16.2C187.254 13.5 185.325 11.8 181.04 11.4Z" fill="#B3B3B3"/>
<path d="M161.437 4.6001V13.1001C161.437 16.3001 159.294 18.1001 156.188 18.1001C152.974 18.1001 150.939 16.4001 150.939 13.1001V4.6001H146.654V12.7001C146.654 18.7001 150.724 21.7001 156.188 21.7001C161.544 21.7001 165.615 18.8001 165.615 12.9001V4.6001H161.437Z" fill="#B3B3B3"/>
<path d="M40.0646 12.8C40.0646 13.6 39.6361 13.7 38.5648 13.7C37.3865 13.7 37.1722 13.5 37.0651 12.7C36.8508 10.6 35.3511 8.8 32.7801 8.7C32.0302 8.6 31.816 8.4 31.816 7.4C31.816 6.5 31.9231 6.1 32.673 6.1C36.958 6.2 40.0646 9.5 40.0646 12.8ZM46.3849 12.8C46.3849 6.6 41.8857 0 31.3875 0H10.7125C10.284 0 9.96258 0.2 9.96258 0.6C9.96258 0.8 10.0697 1 10.284 1.1C11.0338 1.7 12.1051 2.3 13.6048 3C14.9974 3.7 16.1758 4.1 17.2471 4.5C17.6756 4.7 17.8898 4.9 17.8898 5.1C17.8898 5.4 17.6756 5.7 17.1399 5.7H0.749872C0.214249 5.6 0 5.9 0 6.2C0 6.5 0.107125 6.7 0.321374 6.9C1.60687 8.2 3.74936 9.8 6.85597 11.6C9.53409 13.2 12.9621 14.9 15.6402 16.1C16.0687 16.3 16.2829 16.5 16.2829 16.8C16.2829 17.1 16.0687 17.3 15.5331 17.3H7.92722C7.49872 17.3 7.28447 17.5 7.28447 17.8C7.28447 18 7.39159 18.2 7.60584 18.4C9.31984 19.9 12.1051 21.4 15.7473 22.9C20.675 24.8 25.6028 26 31.1732 26C41.7786 26 46.3849 18.6 46.3849 12.8ZM32.5659 21.7C27.4239 21.7 23.0318 17.8 23.0318 12.8C23.0318 8 27.3168 4.1 32.5659 4.1C37.9221 4.1 42.0999 8 42.0999 12.8C42.0999 17.7 37.9221 21.7 32.5659 21.7Z" fill="#B3B3B3"/>
</g>
<defs>
<clipPath id="clip0_593_376">
<rect width="209" height="26" fill="white"/>
</clipPath>
</defs>
</svg>
