<svg width="146" height="41" viewBox="0 0 146 41" fill="none" xmlns="http://www.w3.org/2000/svg">
<path d="M31.1797 7.60833C31.156 7.40208 30.9665 7.31041 30.8243 7.31041C30.6822 7.31041 27.5784 7.08125 27.5784 7.08125C27.5784 7.08125 25.4224 4.99583 25.1618 4.78958C24.9248 4.56042 24.4747 4.62917 24.2851 4.675C24.2614 4.675 23.8113 4.8125 23.0768 5.04167C22.3423 3.00208 21.0866 1.14583 18.8358 1.14583H18.6225C18.0065 0.366667 17.201 0 16.5376 0C11.3252 0 8.81372 6.30208 8.03186 9.51042C5.99428 10.1292 4.54902 10.5417 4.38317 10.6104C3.24591 10.9542 3.22222 10.9771 3.08007 12.0083C2.9616 12.7875 0 34.9479 0 34.9479L23.0531 39.1187L35.5629 36.5062C35.5866 36.4604 31.2034 7.81458 31.1797 7.60833ZM21.7974 5.3625C21.2288 5.52291 20.5417 5.72917 19.8546 5.95833V5.54583C19.8546 4.30833 19.6887 3.3 19.3807 2.49792C20.5654 2.63542 21.2998 3.89583 21.7974 5.3625ZM17.9355 2.75C18.2435 3.52917 18.4567 4.62916 18.4567 6.14166V6.37083C17.1773 6.76041 15.8268 7.14999 14.4289 7.58541C15.2108 4.69791 16.7034 3.27708 17.9355 2.75ZM16.4191 1.32916C16.656 1.32916 16.893 1.42083 17.0825 1.55833C15.4003 2.31458 13.6234 4.21666 12.8889 8.06666C11.7753 8.41041 10.7092 8.70833 9.69036 9.02917C10.5433 6.09583 12.6757 1.32916 16.4191 1.32916Z" fill="#B3B3B3"/>
<path d="M30.8244 7.26478C30.6823 7.26478 27.5785 7.03561 27.5785 7.03561C27.5785 7.03561 25.4225 4.9502 25.1618 4.74395C25.0671 4.65228 24.9486 4.60645 24.8538 4.60645L23.1243 39.1189L35.6341 36.5065C35.6341 36.5065 31.2509 7.81478 31.2272 7.60853C31.1324 7.40228 30.9666 7.31061 30.8244 7.26478Z" fill="#A9A9A9"/>
<path d="M18.8359 13.9564L17.3195 18.3793C17.3195 18.3793 15.9454 17.6689 14.3106 17.6689C11.8702 17.6689 11.7517 19.1585 11.7517 19.5251C11.7517 21.5418 17.2011 22.321 17.2011 27.0647C17.2011 30.8001 14.7607 33.2064 11.4674 33.2064C7.48702 33.2064 5.49683 30.823 5.49683 30.823L6.563 27.4314C6.563 27.4314 8.64797 29.173 10.4012 29.173C11.5622 29.173 12.036 28.3022 12.036 27.6605C12.036 25.0251 7.58179 24.9105 7.58179 20.5564C7.58179 16.9126 10.2828 13.3835 15.7558 13.3835C17.7934 13.3605 18.8359 13.9564 18.8359 13.9564Z" fill="white"/>
<path d="M50.1578 22.2743C48.902 21.6327 48.2623 21.0598 48.2623 20.3035C48.2623 19.341 49.1627 18.7223 50.5605 18.7223C52.1953 18.7223 53.6406 19.3639 53.6406 19.3639L54.7779 15.9952C54.7779 15.9952 53.7354 15.216 50.6553 15.216C46.3669 15.216 43.3816 17.5993 43.3816 20.9452C43.3816 22.8473 44.7795 24.291 46.6275 25.3223C48.1439 26.1243 48.6651 26.7202 48.6651 27.591C48.6651 28.4848 47.9069 29.2181 46.5091 29.2181C44.4478 29.2181 42.4813 28.1868 42.4813 28.1868L41.2729 31.5556C41.2729 31.5556 43.0736 32.7243 46.1063 32.7243C50.5131 32.7243 53.7117 30.616 53.7117 26.8348C53.6643 24.7723 52.0769 23.3514 50.1578 22.2743ZM67.7378 15.1702C65.5581 15.1702 63.8522 16.1785 62.5491 17.691L62.5017 17.6681L64.3971 8.13477H59.4927L54.7068 32.4264H59.6112L61.246 24.1306C61.8857 20.991 63.5679 19.0431 65.1316 19.0431C66.2452 19.0431 66.6716 19.7764 66.6716 20.8077C66.6716 21.4493 66.6243 22.2743 66.4584 22.916L64.6104 32.4264H69.5148L71.4339 22.6181C71.6471 21.5868 71.7893 20.3493 71.7893 19.5014C71.7656 16.7743 70.3203 15.1702 67.7378 15.1702ZM82.8775 15.1702C76.9543 15.1702 73.045 20.3264 73.045 26.0785C73.045 29.7452 75.3906 32.7243 79.7975 32.7243C85.6022 32.7243 89.5115 27.7056 89.5115 21.816C89.5352 18.4014 87.4976 15.1702 82.8775 15.1702ZM80.4609 29.1035C78.7787 29.1035 78.0916 27.7285 78.0916 25.9868C78.0916 23.2598 79.5368 18.8368 82.2141 18.8368C83.9437 18.8368 84.536 20.3035 84.536 21.7014C84.536 24.6118 83.0434 29.1035 80.4609 29.1035ZM102.092 15.1702C98.7754 15.1702 96.9037 18.0118 96.9037 18.0118H96.8563L97.1406 15.4681H92.7811C92.5679 17.1868 92.1651 19.8223 91.786 21.7702L88.3979 39.1639H93.3024L94.6765 32.1285H94.795C94.795 32.1285 95.8138 32.7473 97.6618 32.7473C103.443 32.7473 107.21 27.0181 107.21 21.2431C107.186 18.0348 105.694 15.1702 102.092 15.1702ZM97.4012 29.1493C96.1218 29.1493 95.3636 28.4389 95.3636 28.4389L96.1692 24.016C96.7378 21.0368 98.3489 19.0889 100.055 19.0889C101.571 19.0889 102.021 20.441 102.021 21.7014C102.045 24.7723 100.15 29.1493 97.4012 29.1493ZM114.199 8.36393C112.636 8.36393 111.38 9.57852 111.38 11.1139C111.38 12.5118 112.304 13.4973 113.702 13.4973H113.749C115.289 13.4973 116.592 12.4889 116.616 10.7473C116.64 9.34935 115.668 8.36393 114.199 8.36393ZM107.328 32.4035H112.233L115.55 15.5368H110.622M128.06 15.5139H124.648L124.814 14.7348C125.098 13.1077 126.093 11.6868 127.752 11.6868C128.628 11.6868 129.315 11.9389 129.315 11.9389L130.263 8.20351C130.263 8.20351 129.434 7.79102 127.586 7.79102C125.856 7.79102 124.103 8.27226 122.776 9.37226C121.094 10.7473 120.312 12.741 119.933 14.7577L119.791 15.5368H117.493L116.758 19.1348H119.056L116.45 32.4264H121.355L123.961 19.1348H127.349L128.06 15.5139ZM139.882 15.5368C139.882 15.5368 136.802 23.0306 135.452 27.1327H135.404C135.31 25.8035 134.196 15.5368 134.196 15.5368H129.031L131.993 30.9827C132.04 31.3264 132.016 31.5327 131.874 31.7618C131.306 32.8389 130.334 33.8702 129.197 34.6264C128.273 35.2681 127.23 35.7035 126.401 35.9785L127.775 40.0118C128.771 39.8056 130.855 39.0035 132.585 37.4223C134.812 35.4056 136.897 32.266 139.029 28.0035L145.024 15.5139H139.882V15.5368Z" fill="#B3B3B3"/>
</svg>
