<svg width="124" height="27" viewBox="0 0 124 27" fill="none" xmlns="http://www.w3.org/2000/svg">
<path d="M27.6008 1.146H32.7773V25.425H27.6008V1.146Z" fill="#B3B3B3"/>
<path fill-rule="evenodd" clip-rule="evenodd" d="M113.81 1.146H106.414L96.4834 25.425H101.87L103.773 20.7358H115.922L117.718 25.425H123.318L113.81 1.146ZM110.005 16.3594H105.464L110.005 5.41936L114.232 16.3594H110.005Z" fill="#B3B3B3"/>
<path fill-rule="evenodd" clip-rule="evenodd" d="M84.6507 1.25146L80.6362 15.1102L76.6216 1.25146H69.7538L65.7388 25.425H70.9166L73.5579 7.71083L78.4174 25.425H82.8549L87.7134 7.71083L90.1448 25.425H95.5325L91.6238 1.25146H84.6507Z" fill="#B3B3B3"/>
<path fill-rule="evenodd" clip-rule="evenodd" d="M18.1971 11.1494C16.109 10.7901 12.9117 10.6041 12.5987 10.5254C12.2569 10.5048 8.86704 10.3597 7.63243 10.0044C5.5505 9.44669 5.73074 7.85081 5.73161 7.6067C5.73074 7.10401 5.56606 4.87798 11.7537 4.69003C17.9496 4.55134 22.1009 6.53406 22.107 6.56481L23.2682 2.08495C23.2289 2.11073 19.2112 0.0480467 12.0696 0C7.38164 0.0480478 4.43679 1.29643 3.30052 2.08495C2.29903 2.77272 0.183065 4.52471 0.0265952 7.60668C-0.239689 10.9841 1.56271 12.974 2.34986 13.5471C3.22717 14.2673 4.32696 14.6197 5.73155 14.9018C6.69372 15.2174 9.94301 15.5863 10.5913 15.6301C12.2507 15.8139 14.3417 15.7876 16.4019 16.2564C18.166 16.7641 18.2758 18.1781 18.3036 18.7572C18.2758 19.8299 17.6709 21.8384 11.7537 21.8833C5.89512 21.8384 1.43823 19.8033 1.4001 19.7983L0.44907 24.4884C0.448199 24.5251 4.5748 26.37 11.7537 26.6764C13.1031 26.6938 16.5347 26.2342 17.3518 25.947C18.2209 25.6099 24.1091 24.199 24.1143 18.5479C24.109 12.8023 20.2573 11.6081 18.1971 11.1494Z" fill="#B3B3B3"/>
<path fill-rule="evenodd" clip-rule="evenodd" d="M49.2575 11.4631V15.7356H57.8149C57.8521 15.6976 58.2521 19.1445 55.8087 20.9454C54.3712 21.8475 52.1804 21.9028 51.2649 21.8834C47.5185 21.9028 46.5314 21.4554 45.1382 20.5287C42.5728 19.0096 41.8467 15.6446 41.8631 13.5472C41.8467 9.3219 43.4189 7.60994 44.5044 6.77306C45.6656 5.83739 47.1362 4.84556 51.2649 4.79433C52.6601 4.77088 53.8833 4.8363 55.4919 5.21019C58.0791 5.71171 60.7172 6.72323 60.6675 6.77306L61.9353 2.50086C61.8968 2.45803 57.1789 0.122834 51.16 0.105469C44.44 0.122835 40.8088 2.29351 38.9039 4.79433C36.9981 7.44745 36.2142 9.58861 36.2626 13.7545C36.2142 17.7336 37.92 20.8545 38.6928 21.778C39.3959 22.5523 42.5425 26.6886 50.7367 26.5722C54.6166 26.5242 58.6405 25.5578 60.8797 23.342C62.7192 21.4296 63.287 19.5786 63.521 15.7356C63.6557 14.3728 63.5345 11.4327 63.521 11.4631L49.2575 11.4631Z" fill="#B3B3B3"/>
</svg>
