<svg width="161" height="32" viewBox="0 0 161 32" fill="none" xmlns="http://www.w3.org/2000/svg">
<g clip-path="url(#clip0_1012_809)">
<path fill-rule="evenodd" clip-rule="evenodd" d="M39.3586 20.9464C39.0048 20.727 38.718 20.3331 38.718 19.8071C38.718 19.0634 39.2915 18.495 40.0428 18.495C40.2851 18.495 40.5291 18.5598 40.7052 18.6712C41.8313 19.3708 42.9582 19.7199 43.9081 19.7199C44.8799 19.7199 45.321 19.3708 45.321 18.8457V18.8008C45.321 18.0787 44.1722 17.8377 42.8693 17.4437C41.2133 16.9626 39.3359 16.1956 39.3359 13.9195V13.8755C39.3359 11.4897 41.2795 10.1543 43.6658 10.1543C44.9018 10.1543 46.1829 10.4833 47.3316 11.0517C47.8171 11.2936 48.1265 11.7307 48.1265 12.3007C48.1265 13.0453 47.5303 13.6137 46.779 13.6137C46.5368 13.6137 46.3808 13.5696 46.1611 13.46C45.2103 13.0004 44.3047 12.7162 43.5996 12.7162C42.7812 12.7162 42.3612 13.0669 42.3612 13.5256V13.5696C42.3612 14.227 43.4881 14.5336 44.7692 14.9707C46.4252 15.5167 48.347 16.3053 48.347 18.4501V18.495C48.347 21.0993 46.3808 22.2801 43.8201 22.2801C42.3612 22.2801 40.7941 21.8655 39.3586 20.9464Z" fill="#B3B3B3"/>
<path fill-rule="evenodd" clip-rule="evenodd" d="M49.8512 11.8627C49.8512 10.9428 50.6016 10.1991 51.5281 10.1991C52.4563 10.1991 53.2067 10.9428 53.2067 11.8627V12.0157C54.0251 10.922 55.1512 10.1118 56.896 10.1118C59.6564 10.1118 62.2847 12.2558 62.2847 16.1731V16.218C62.2847 20.1361 59.7015 22.2809 56.896 22.2809C55.1067 22.2809 54.0024 21.4715 53.2067 20.53V24.0326C53.2067 24.9518 52.4563 25.6955 51.5281 25.6955C50.6016 25.6955 49.8512 24.9518 49.8512 24.0326V11.8627ZM58.9277 16.2177V16.1729C58.9277 14.2267 57.6029 12.9345 56.0347 12.9345C54.4661 12.9345 53.164 14.2267 53.164 16.1729V16.2177C53.164 18.1656 54.4661 19.4578 56.0347 19.4578C57.6029 19.4578 58.9277 18.1881 58.9277 16.2177Z" fill="#B3B3B3"/>
<path fill-rule="evenodd" clip-rule="evenodd" d="M71.8817 16.2625V16.2185C71.8817 12.8479 74.6193 10.1123 78.3089 10.1123C81.9735 10.1123 84.6904 12.8039 84.6904 16.1736V16.2185C84.6904 19.5898 81.9517 22.3254 78.2643 22.3254C74.5987 22.3254 71.8817 19.633 71.8817 16.2625ZM81.3785 16.2624V16.2184C81.3785 14.4891 80.1189 12.9792 78.2643 12.9792C76.3435 12.9792 75.1948 14.445 75.1948 16.1735V16.2184C75.1948 17.9477 76.4532 19.4585 78.3089 19.4585C80.2303 19.4585 81.3785 17.9909 81.3785 16.2624Z" fill="#B3B3B3"/>
<path fill-rule="evenodd" clip-rule="evenodd" d="M97.0367 20.5301C97.0367 21.4501 96.2852 22.193 95.3587 22.193C94.4306 22.193 93.6797 21.4501 93.6797 20.5301V20.3997C92.9064 21.3836 91.9126 22.2802 90.2123 22.2802C87.6736 22.2802 86.1929 20.6166 86.1929 17.9258V11.8629C86.1929 10.9429 86.9438 10.1992 87.8703 10.1992C88.799 10.1992 89.5494 10.9429 89.5494 11.8629V16.8755C89.5494 18.4502 90.3003 19.2612 91.5816 19.2612C92.8618 19.2612 93.6797 18.4502 93.6797 16.8755V11.8629C93.6797 10.9429 94.4306 10.1992 95.3587 10.1992C96.2852 10.1992 97.0367 10.9429 97.0367 11.8629V20.5301Z" fill="#B3B3B3"/>
<path fill-rule="evenodd" clip-rule="evenodd" d="M98.7454 18.7353V8.86469C98.7454 7.94397 99.4969 7.2002 100.423 7.2002C101.351 7.2002 102.102 7.94397 102.102 8.86469V10.3306H103.581C104.376 10.3306 105.017 10.9654 105.017 11.7532C105.017 12.541 104.376 13.1759 103.581 13.1759H102.102V18.1884C102.102 18.9538 102.433 19.3269 103.184 19.3269C103.294 19.3269 103.515 19.3045 103.581 19.3045C104.333 19.3045 104.974 19.9169 104.974 20.6831C104.974 21.2748 104.575 21.7551 104.112 21.9321C103.493 22.1731 102.919 22.2587 102.19 22.2587C100.136 22.2587 98.7454 21.451 98.7454 18.7353Z" fill="#B3B3B3"/>
<path fill-rule="evenodd" clip-rule="evenodd" d="M111.982 22.2803C110.348 22.2803 108.537 21.6454 107.256 20.6167L108.117 19.4142C109.354 20.3324 110.724 20.8585 112.07 20.8585C113.44 20.8585 114.433 20.1571 114.433 19.0635V19.0195C114.433 17.8819 113.086 17.444 111.585 17.0285C109.796 16.524 107.809 15.9116 107.809 13.8316V13.7884C107.809 11.8405 109.443 10.5483 111.696 10.5483C113.086 10.5483 114.633 11.0295 115.803 11.7973L115.03 13.0662C113.97 12.3882 112.755 11.9702 111.65 11.9702C110.304 11.9702 109.443 12.6715 109.443 13.6131V13.6563C109.443 14.7291 110.856 15.1454 112.38 15.6058C114.147 16.1301 116.046 16.809 116.046 18.845V18.8882C116.046 21.033 114.257 22.2803 111.982 22.2803Z" fill="#B3B3B3"/>
<path fill-rule="evenodd" clip-rule="evenodd" d="M123.31 22.325C119.887 22.325 117.39 19.6542 117.39 16.4374C117.39 13.2189 119.909 10.5049 123.354 10.5049C126.776 10.5049 129.295 13.1757 129.295 16.3925C129.295 19.6109 126.755 22.325 123.31 22.325ZM123.31 11.9924C120.835 11.9924 119.137 13.942 119.137 16.3926C119.137 18.8457 120.948 20.8143 123.354 20.8143C125.827 20.8143 127.55 18.8664 127.55 16.4375C127.55 13.9644 125.717 11.9924 123.31 11.9924Z" fill="#B3B3B3"/>
<path fill-rule="evenodd" clip-rule="evenodd" d="M136.403 22.325C133.068 22.325 130.552 19.6326 130.552 16.4374C130.552 13.2189 133.068 10.5049 136.403 10.5049C138.568 10.5049 139.915 11.4024 140.975 12.5192L139.848 13.7009C138.943 12.7602 137.927 11.9924 136.382 11.9924C134.062 11.9924 132.296 13.9419 132.296 16.3925C132.296 18.8664 134.107 20.8142 136.492 20.8142C137.95 20.8142 139.075 20.0913 139.983 19.1281L141.063 20.1353C139.915 21.4059 138.546 22.325 136.403 22.325Z" fill="#B3B3B3"/>
<path fill-rule="evenodd" clip-rule="evenodd" d="M142.805 8.27284H144.75V6.41309H142.805V8.27284ZM142.915 22.0632H144.617V10.7458H142.915V22.0632Z" fill="#B3B3B3"/>
<path fill-rule="evenodd" clip-rule="evenodd" d="M148.126 12.9129L147.619 11.5343C148.878 10.9651 150.114 10.5928 151.772 10.5928C154.884 10.5928 156.63 12.1692 156.63 15.1458V22.063H154.994V20.3553C154.199 21.3841 152.875 22.3023 150.865 22.3023C148.745 22.3023 146.603 21.1207 146.603 18.7573C146.603 16.3499 148.591 15.0802 151.483 15.0802C152.941 15.0802 153.98 15.2762 154.994 15.5621V15.1682C154.994 13.1315 153.734 12.0819 151.594 12.0819C150.246 12.0819 149.187 12.431 148.126 12.9129ZM148.325 18.6915C148.325 20.1358 149.65 20.9685 151.196 20.9685C153.295 20.9685 155.017 19.6987 155.017 17.903V16.8093C154.178 16.5692 153.051 16.329 151.659 16.329C149.518 16.329 148.325 17.2473 148.325 18.6915Z" fill="#B3B3B3"/>
<path fill-rule="evenodd" clip-rule="evenodd" d="M159.299 22.0632H161V6.08398H159.299V22.0632Z" fill="#B3B3B3"/>
<path fill-rule="evenodd" clip-rule="evenodd" d="M73.0839 9.21436C73.0839 9.21436 71.6216 9.85833 70.3402 9.8351C69.1029 9.81099 68.4924 10.4326 68.4924 10.4326L68.494 10.4375C67.9659 10.814 67.5314 11.4647 67.2105 12.1693V11.8627C67.2105 10.9428 66.459 10.1991 65.532 10.1991C64.6039 10.1991 63.854 10.9428 63.854 11.8627V20.53C63.854 21.4507 64.6039 22.1928 65.532 22.1928C66.459 22.1928 67.2105 21.4507 67.2105 20.53V16.4157C67.4517 14.654 68.3581 13.6518 69.8205 13.3128C69.9046 13.2945 69.9843 13.2688 70.0628 13.2413C70.0645 13.2405 70.0645 13.2405 70.0673 13.2397C70.0695 13.238 70.0745 13.238 70.0779 13.2364C73.4611 12.2624 73.0839 9.21436 73.0839 9.21436Z" fill="#B3B3B3"/>
<path fill-rule="evenodd" clip-rule="evenodd" d="M11.0326 0C4.93942 0 0 4.89539 0 10.9351V31.0551C0 31.6991 0.786482 32.0216 1.2468 31.5654L7.24015 25.6279H14.825C20.919 25.6279 25.8584 20.7325 25.8584 14.6936V0H11.0326Z" fill="#B3B3B3"/>
<path fill-rule="evenodd" clip-rule="evenodd" d="M7.24016 25.6279H1.72302L5.16997 27.6788L7.24016 25.6279Z" fill="#B3B3B3"/>
<path fill-rule="evenodd" clip-rule="evenodd" d="M25.8583 0H11.0325V14.6937L25.8583 0Z" fill="#B3B3B3"/>
<path fill-rule="evenodd" clip-rule="evenodd" d="M11.0326 0C4.93942 0 0 4.89622 0 10.9351V25.6279L11.0326 14.6936V0Z" fill="#B3B3B3"/>
<path fill-rule="evenodd" clip-rule="evenodd" d="M25.8583 0L11.0325 14.6937H25.8583V0Z" fill="#B3B3B3"/>
</g>
<defs>
<clipPath id="clip0_1012_809">
<rect width="161" height="32" fill="white"/>
</clipPath>
</defs>
</svg>
