<svg width="140" height="29" viewBox="0 0 140 29" fill="none" xmlns="http://www.w3.org/2000/svg">
<path d="M6.2258 22.4589C9.90322 22.4589 12.5161 20.3967 12.5161 16.0467V0.257777H9.09677V15.9822C9.09677 18.5278 7.90322 19.3978 6.06451 19.3978C4.45161 19.3978 3.54839 18.4311 2.7742 17.0456L0 18.7533C1.03226 20.7833 2.96774 22.4589 6.2258 22.4589ZM24.8065 14.1133H21.0968C18.0323 14.1456 15.7742 15.37 15.7742 18.1733C15.7742 21.2022 17.9678 22.4589 20.6452 22.4589C22.6452 22.4589 23.9355 21.6856 24.9032 20.2356L24.8064 22.1689H28.0645V14.1778C28.0645 10.1822 25.6129 8.34555 22.3548 8.34555C19.4839 8.34555 17.871 9.34445 16.6774 10.7622L18.5484 12.6633C19.2903 11.8256 20.3226 11.0522 22.0968 11.0522C23.8387 11.0522 24.8065 11.9544 24.8065 14.1133ZM24.8065 16.3689V17.4322C24.8065 18.9144 23.4516 19.8489 21.5484 19.8489C19.871 19.8489 18.9678 19.2367 18.9678 18.0767C18.9678 16.8844 19.9032 16.3689 21.3226 16.3689H24.8065ZM37 22.4589H37.4194L44.2903 8.63555H40.9678L38.2258 14.6289C37.742 15.7567 37.3549 17.5611 37.3549 17.5611C37.3549 17.5611 36.9355 15.7567 36.4194 14.6289L33.6775 8.63555H30.0646L37 22.4589ZM54.4516 14.1133H50.742C47.6774 14.1456 45.4194 15.37 45.4194 18.1733C45.4194 21.2022 47.6129 22.4589 50.2903 22.4589C52.2903 22.4589 53.5807 21.6856 54.5484 20.2356L54.4516 22.1689H57.7097V14.1778C57.7097 10.1822 55.2581 8.34555 52 8.34555C49.1291 8.34555 47.5161 9.34445 46.3226 10.7622L48.1936 12.6633C48.9355 11.8256 49.9678 11.0522 51.742 11.0522C53.4839 11.0522 54.4516 11.9544 54.4516 14.1133ZM54.4516 16.3689V17.4322C54.4516 18.9144 53.0968 19.8489 51.1936 19.8489C49.5161 19.8489 48.6129 19.2367 48.6129 18.0767C48.6129 16.8844 49.5484 16.3689 50.9678 16.3689H54.4516ZM68.2258 22.4589C72.3548 22.4589 75.3548 20.2356 75.3548 16.4011C75.3548 12.8889 73.3549 11.1489 69.6129 9.50556L68.1936 8.86111C65.9677 7.89445 65.0323 7.15333 65.0323 5.51C65.0323 4.02778 66.129 2.96444 67.871 2.96444C69.5807 2.96444 70.5484 3.64111 71.3871 5.09111L74.0645 3.44778C72.7419 1.09556 70.7742 0 67.871 0C64.2258 0 61.7097 2.32 61.7097 5.57445C61.7097 8.95778 63.6452 10.5689 66.8387 11.9867L68.2903 12.6311C70.6774 13.6944 71.9678 14.5322 71.9678 16.4333C71.9678 18.2378 70.3871 19.43 68.1613 19.43C65.4839 19.43 64.1613 18.0767 63.129 16.3689L60.3226 17.9156C61.5484 20.3967 64.0645 22.4589 68.2258 22.4589ZM85.4516 22.4589C88.0645 22.4589 89.6774 21.5244 91 20.01L88.7742 18.0767C88.0323 18.9144 87.0645 19.5911 85.4516 19.5911C83.0323 19.5911 81.5807 17.8189 81.5807 15.4022C81.5807 12.9856 83.0323 11.2133 85.4516 11.2133C86.8387 11.2133 87.9678 11.8578 88.6129 12.7922L90.9355 10.9233C89.6452 9.31222 88 8.34555 85.4516 8.34555C81.3226 8.34555 78.2258 11.3744 78.2258 15.4022C78.2258 19.4622 81.3226 22.4589 85.4516 22.4589ZM94.0968 22.1689H97.3549V15.5956C97.3549 12.5667 98.6775 11.4389 100.613 11.4389C101.355 11.4389 101.871 11.6322 102.387 11.89L103.484 8.95778C102.903 8.60333 102.226 8.37778 101.258 8.37778C99.7742 8.37778 98.2258 9.05445 97.3226 11.1811L97.3549 8.63555H94.0968V22.1689ZM107.871 5.54222C109.032 5.54222 110.032 4.67222 110.032 3.38333C110.032 2.15889 109.032 1.25667 107.871 1.25667C106.71 1.25667 105.71 2.15889 105.71 3.38333C105.71 4.67222 106.71 5.54222 107.871 5.54222ZM106.226 22.1689H109.516V8.63555H106.226V22.1689ZM113.742 29H117.032V19.8489C117.806 21.3633 119.419 22.4589 121.677 22.4589C125.194 22.4589 128.032 19.4622 128.032 15.37C128.032 11.2778 125.226 8.34555 121.742 8.34555C119.419 8.34555 117.806 9.47333 116.935 11.1489L117.032 8.63555H113.742L113.742 29ZM120.839 19.5911C118.452 19.5911 116.903 17.9156 116.903 15.37C116.903 12.9211 118.452 11.2456 120.839 11.2456C123.194 11.2456 124.677 12.9211 124.677 15.37C124.677 17.9156 123.194 19.5911 120.839 19.5911ZM136.516 22.4911C138.258 22.4911 139.323 21.8467 140 21.2022L138.452 19.0111C138.097 19.3011 137.613 19.6556 136.839 19.6556C136 19.6556 135.484 19.2044 135.484 17.6578V11.3744H139.097V8.63555H135.484V1.57889H132.226V8.63555H130.194V11.3744H132.226V17.5933C132.226 21.2022 133.968 22.4911 136.516 22.4911Z" fill="#B3B3B3"/>
</svg>
