<svg width="142" height="38" viewBox="0 0 142 38" fill="none" xmlns="http://www.w3.org/2000/svg">
<path d="M34.3493 23.9717C34.1903 23.9283 34.183 23.8196 34.1469 23.711C34.0023 23.2765 33.8722 22.8419 33.7204 22.4146C33.6697 22.2698 33.6914 22.1684 33.7637 22.0453C33.9878 21.6542 34.1541 21.2414 34.1903 20.7924C34.2915 19.5612 33.6842 18.5473 32.4697 17.9172C31.754 17.5406 30.9877 17.2871 30.2069 17.0988C30.0045 17.0481 29.925 16.9685 29.9178 16.7367C29.9105 16.0053 29.8888 15.2665 29.8527 14.5351C29.7804 12.9852 29.4117 11.5296 28.3924 10.3201C28.19 10.0811 28.1827 9.95075 28.3996 9.719C29.5057 8.50954 30.431 7.18422 30.8286 5.55471C31.3491 3.4255 30.3587 1.82496 28.2261 1.33249C27.1995 1.0935 26.173 1.13695 25.1392 1.29628C23.7295 1.51355 22.3993 1.99878 21.1053 2.5854C20.9101 2.6723 20.7944 2.65058 20.6426 2.49849C20.1872 2.03499 19.6956 1.6077 19.2546 1.12247C18.3003 0.0795854 17.1147 -0.137682 15.7918 0.0723431C14.4688 0.282368 13.276 0.847262 12.1337 1.52803C9.94327 2.83163 8.04197 4.49011 6.29971 6.33687C4.31889 8.43712 2.56941 10.7184 1.27537 13.3184C0.545212 14.7958 -0.0475883 16.3167 0.00301664 18.0041C0.0319337 19.0035 0.37171 19.8581 1.1597 20.5099C1.49225 20.7851 1.81756 21.0748 2.15734 21.35C2.28024 21.4514 2.33807 21.5311 2.27301 21.7121C2.12119 22.1177 2.0489 22.545 1.9983 22.9795C1.55008 26.702 4.68759 29.2441 7.36965 29.4179C7.6299 29.4324 7.73111 29.5265 7.83232 29.751C8.67814 31.5833 9.8782 33.1549 11.4325 34.4295C14.3459 36.8267 17.7364 37.8333 21.2065 37.8623C23.4982 37.8478 25.4862 37.5581 27.3875 36.8122C31.1395 35.3348 33.7926 32.7638 35.1011 28.8964C35.4626 27.8173 35.7156 26.7093 35.5566 25.5578C35.4626 24.8118 35.1662 24.1817 34.3493 23.9717ZM10.1746 26.3472C9.63964 27.7304 8.28053 28.3026 6.7407 27.8825C5.22255 27.4697 3.37186 25.9706 3.37186 23.682C3.29234 21.3935 4.93338 19.6626 7.18891 19.7133C8.36729 19.7422 9.26372 20.3578 9.82037 21.3645C10.7023 22.9506 10.8252 24.6525 10.1746 26.3472ZM6.18405 17.9896C6.06838 18.2793 5.91656 18.4097 5.62016 18.4893C4.61529 18.7501 3.76947 19.2932 3.12606 20.1116C2.95256 20.3289 2.88027 20.2637 2.69231 20.1406C1.25368 19.1991 1.15247 17.8593 1.55731 16.3746C2.01998 14.6437 2.85858 13.0939 3.82007 11.602C6.09007 8.11122 8.91671 5.17088 12.4518 2.95475C13.5868 2.24501 14.7797 1.65839 16.1243 1.43388C16.934 1.29628 17.6714 1.3687 18.2569 2.06396C18.6329 2.51298 19.0666 2.91854 19.5076 3.38204C17.7509 4.41044 16.1388 5.52574 14.5628 6.72071C10.6662 9.6683 7.94799 13.4705 6.18405 17.9896ZM18.1485 6.74968C17.9967 7.14076 17.881 7.43045 17.7653 7.72014C17.7364 7.79981 17.6786 7.88671 17.7509 7.95189C17.8521 8.05328 17.9244 7.93017 17.9967 7.88671C19.11 7.20594 20.2956 6.74968 21.5896 6.57587C21.6692 6.56138 21.7559 6.55414 21.8427 6.55414C21.8716 6.55414 21.9077 6.57587 21.9728 6.5976C21.8065 6.77141 21.6475 6.9235 21.5029 7.09007C21.4378 7.16249 21.3005 7.22767 21.3655 7.35803C21.4161 7.45218 21.539 7.41597 21.633 7.42321C22.609 7.50287 23.5488 7.72738 24.4452 8.13295C24.5681 8.19089 24.7127 8.2271 24.8067 8.40091C20.6932 7.58254 16.9123 8.40091 13.4133 10.6532C14.7363 9.08892 16.2472 7.7636 18.1485 6.74968ZM33.583 28.7516C32.4408 30.9967 30.6262 32.4813 28.2984 33.3649C25.6814 34.3498 23.0572 34.4512 20.4763 33.2563C15.6327 31.0112 15.799 25.2174 18.3509 22.4581C18.7558 22.0236 18.763 21.8715 18.3871 21.408C17.9605 20.8865 17.4834 20.4085 17.1003 19.8509C15.799 17.9679 15.958 15.5852 17.4906 14.1005C18.2714 13.3401 19.204 12.978 20.31 13.0939C21.0547 13.1735 21.792 13.2315 22.5367 13.2677C23.556 13.3111 24.4452 12.9635 25.226 12.3117C25.4284 12.1451 25.6308 11.9713 25.8621 11.841C26.7296 11.3557 27.6333 11.6454 28.0743 12.5435C28.3707 13.1373 28.443 13.7891 28.4791 14.4409C28.537 15.3679 28.5731 16.2949 28.6237 17.222C28.6599 17.9027 28.8189 18.091 29.4768 18.301C30.3009 18.5618 31.154 18.7356 31.913 19.1701C32.9685 19.7712 33.1637 20.7127 32.4263 21.6759C32.2962 21.8497 32.1444 22.0091 31.9853 22.1539C30.7708 23.2547 29.296 23.8631 27.7417 24.2904C25.6886 24.8625 23.5994 25.0363 21.4884 24.7104C20.0426 24.4932 19.204 25.7461 19.2763 26.9483C19.3413 28.0853 20.0209 28.7588 20.9968 29.1934C22.1318 29.7003 23.3247 29.8452 24.5609 29.78C26.6935 29.6641 28.7177 29.1572 30.5612 28.0491C31.2046 27.6653 31.7974 27.209 32.2745 26.6296C32.354 26.5355 32.4769 26.4558 32.4408 26.253C30.9371 27.238 29.3611 27.9839 27.655 28.4402C25.8188 28.9399 23.9681 29.1065 22.0957 28.643C21.6258 28.5271 21.1776 28.3533 20.7944 28.0418C20.5052 27.8101 20.31 27.5277 20.245 27.1076C21.1342 27.3611 22.0017 27.5421 22.8909 27.5928C23.9464 27.658 24.9802 27.5711 25.9923 27.238C26.0935 27.2017 26.2742 27.1945 26.2453 27.0352C26.2164 26.8686 26.0501 26.9483 25.9417 26.9555C24.1343 27.1148 22.3632 26.9917 20.6281 26.4341C20.2884 26.3254 20.2739 26.2675 20.4908 25.9778C20.686 25.7171 20.9535 25.6374 21.2571 25.6592C21.8427 25.7026 22.4282 25.7895 23.021 25.8112C25.8043 25.9054 28.4791 25.4564 30.9805 24.1528C31.5154 23.8776 32.0287 23.5661 32.5058 23.204C32.6721 23.0737 32.7444 23.0809 32.8239 23.2909C33.0047 23.7979 33.1709 24.3193 33.2649 24.848C33.2866 24.9856 33.3155 25.0725 33.4962 25.0943C34.0601 25.1377 34.2987 25.4057 34.3059 25.9923C34.3059 26.9628 34.024 27.8825 33.583 28.7516ZM128.973 25.2681C128.973 24.5076 128.858 23.7617 128.612 23.0302C127.759 20.5099 124.506 20.4665 123.298 21.9366C122.944 22.3712 122.677 22.8492 122.445 23.3561C122.33 23.6096 122.228 23.8703 122.055 24.0876C121.975 24.1817 121.889 24.2614 121.744 24.218C121.607 24.1745 121.57 24.0586 121.578 23.9355C121.585 23.7327 121.599 23.5299 121.621 23.3199C121.708 22.2481 121.137 21.4007 120.11 21.111C119.387 20.9083 118.664 20.9082 117.941 21.14C116.835 21.4876 116.177 22.306 115.744 23.3272C115.657 23.5372 115.599 23.7617 115.512 23.9717C115.455 24.1166 115.368 24.2759 115.173 24.218C114.977 24.16 114.992 23.9717 115.028 23.8196C115.071 23.6241 115.144 23.4285 115.216 23.233C115.426 22.6971 115.476 22.1394 115.447 21.5673C115.433 21.3211 115.368 21.2124 115.086 21.2197C114.341 21.2414 113.589 21.2414 112.845 21.2197C112.563 21.2124 112.512 21.3066 112.512 21.5673C112.527 23.3054 112.519 25.0436 112.519 26.7817C112.519 28.4836 112.534 30.1856 112.512 31.8875C112.505 32.2351 112.621 32.3003 112.932 32.293C113.958 32.2713 114.977 32.2713 116.004 32.293C116.351 32.3003 116.409 32.1844 116.409 31.873C116.394 30.0045 116.402 28.136 116.402 26.2603C116.402 25.7098 116.488 25.1739 116.879 24.7466C117.45 24.1093 118.368 24.2614 118.7 25.0436C118.802 25.2898 118.838 25.5505 118.838 25.8185C118.838 27.8608 118.845 29.8959 118.831 31.9382C118.831 32.2351 118.917 32.293 119.192 32.2858C120.255 32.2713 121.31 32.2641 122.373 32.2858C122.669 32.293 122.727 32.1916 122.72 31.9164C122.705 30.0552 122.713 28.2012 122.713 26.3399C122.713 25.8402 122.763 25.3477 123.045 24.9204C123.32 24.5004 123.71 24.2831 124.209 24.3628C124.694 24.4352 124.939 24.7828 125.077 25.2319C125.149 25.4709 125.149 25.7099 125.149 25.9488C125.149 27.9405 125.156 29.9321 125.142 31.9237C125.142 32.1917 125.185 32.3003 125.489 32.293C126.551 32.2713 127.607 32.2786 128.67 32.293C128.93 32.3003 128.988 32.2206 128.988 31.9671C128.966 29.7293 128.973 27.4987 128.973 25.2681ZM59.059 22.9795C58.6252 21.8715 57.8517 21.1762 56.6444 21.0096C55.3503 20.8286 54.2659 21.1762 53.4924 22.2915C53.2249 22.6826 53.0297 23.1099 52.8345 23.5299C52.755 23.7038 52.661 23.8703 52.5598 24.0369C52.4803 24.1673 52.3719 24.2686 52.2056 24.2107C52.061 24.1528 52.0321 24.0224 52.0393 23.8848L52.0827 23.3416C52.1767 22.1974 51.5767 21.3573 50.4561 21.0748C48.5187 20.5896 46.7981 21.5673 46.1186 23.5299C46.0535 23.711 45.9957 23.892 45.9161 24.0659C45.8728 24.1673 45.7788 24.2469 45.6559 24.218C45.5185 24.189 45.4679 24.0731 45.4679 23.9427C45.4679 23.7182 45.5474 23.5155 45.6342 23.3199C45.8728 22.7405 45.945 22.1394 45.9017 21.5166C45.8872 21.2993 45.8222 21.2052 45.5764 21.2124C44.8173 21.2269 44.0582 21.2341 43.2991 21.2124C43.0389 21.2052 42.9883 21.2848 42.9883 21.5311C43.0027 23.2692 42.9955 25.0074 42.9955 26.7455C42.9955 28.4836 43.0027 30.2218 42.9883 31.9599C42.9883 32.2061 43.0461 32.2858 43.3064 32.2858C44.3691 32.2713 45.4245 32.2641 46.4872 32.2858C46.7909 32.293 46.8632 32.2061 46.8632 31.9092C46.8487 30.0769 46.8487 28.2446 46.8559 26.4051C46.8559 25.8475 46.9065 25.297 47.2608 24.8263C47.5499 24.4497 47.9331 24.2831 48.403 24.37C48.8512 24.4569 49.097 24.7828 49.2199 25.1957C49.285 25.4129 49.2994 25.6447 49.2994 25.8764C49.2994 27.8825 49.3067 29.8814 49.285 31.8802C49.285 32.2279 49.3934 32.2858 49.7043 32.2786C50.7308 32.2568 51.7502 32.2568 52.7767 32.2786C53.0948 32.2858 53.196 32.2134 53.196 31.873C53.1743 29.9683 53.1888 28.0636 53.1888 26.1516C53.1888 25.6736 53.2755 25.2101 53.5719 24.8263C53.8466 24.4642 54.2298 24.2904 54.678 24.3556C55.1118 24.4207 55.3648 24.7249 55.5094 25.1232C55.5961 25.355 55.6034 25.594 55.6034 25.833C55.6034 27.8753 55.6034 29.9103 55.5961 31.9454C55.5961 32.1916 55.654 32.2713 55.9142 32.2713C56.9841 32.2568 58.0613 32.2568 59.1312 32.2713C59.406 32.2786 59.471 32.1917 59.4638 31.9237C59.4493 29.8379 59.4638 27.7522 59.4566 25.6664C59.4493 24.7684 59.3987 23.8486 59.059 22.9795ZM140.945 23.233C140.027 21.4369 138.068 20.5534 136.181 21.0893C135.002 21.4224 134.33 22.277 133.882 23.3561C133.795 23.5662 133.723 23.7834 133.629 23.9934C133.571 24.1238 133.477 24.2614 133.296 24.2107C133.087 24.1528 133.123 23.9645 133.152 23.8196C133.188 23.6458 133.26 23.4792 133.325 23.3054C133.542 22.7188 133.622 22.1249 133.535 21.4949C133.506 21.2704 133.426 21.2197 133.217 21.2269C132.422 21.2341 131.626 21.2414 130.831 21.2269C130.607 21.2269 130.549 21.2848 130.549 21.5094C130.556 25.9561 130.556 30.4101 130.549 34.8568C130.549 35.0885 130.622 35.1392 130.838 35.1392C131.923 35.132 133.007 35.1248 134.092 35.1392C134.388 35.1465 134.475 35.0741 134.468 34.7699C134.453 33.4953 134.46 32.2206 134.46 30.946C134.923 31.5905 135.465 32.083 136.203 32.322C137.938 32.8941 139.781 32.2134 140.743 30.6418C141.292 29.751 141.545 28.7661 141.639 27.7377C141.776 26.1806 141.668 24.6525 140.945 23.233ZM137.446 29.1065C137.229 29.6279 136.803 29.9321 136.203 29.9393C135.61 29.9466 135.241 29.6062 134.974 29.1282C134.619 28.4981 134.554 27.8029 134.533 27.0786C134.554 26.4123 134.627 25.7316 134.959 25.116C135.219 24.6308 135.595 24.2904 136.174 24.2904C136.774 24.2904 137.222 24.609 137.446 25.145C138.003 26.4558 137.995 27.7956 137.446 29.1065ZM105.319 25.3405C105.319 24.7249 105.254 24.1166 105.102 23.5155C104.734 22.096 103.808 21.2124 102.427 21.0314C100.953 20.8358 99.7092 21.2052 98.8923 22.5667C98.6465 22.9795 98.473 23.4285 98.3067 23.8776C98.2489 24.0441 98.1838 24.2686 97.9452 24.189C97.7139 24.1166 97.7717 23.8848 97.8151 23.7182C97.9018 23.3706 98.032 23.0302 98.126 22.6826C98.5091 21.2704 98.6465 19.8436 98.3934 18.3952C98.3573 18.1852 98.2705 18.12 98.0609 18.1272C97.1428 18.1345 96.2319 18.149 95.3138 18.1272C95.0174 18.12 94.9668 18.2214 94.9668 18.4893C94.974 20.7344 94.974 22.9723 94.974 25.2174C94.974 27.448 94.9812 29.6786 94.9668 31.9092C94.9668 32.2134 95.0463 32.2858 95.3427 32.2786C96.3909 32.2568 97.4392 32.2568 98.4874 32.2786C98.791 32.2858 98.8633 32.1917 98.8633 31.8947C98.8489 30.0407 98.8561 28.1795 98.8561 26.3254C98.8561 25.7678 98.9718 25.2463 99.3477 24.8191C99.6658 24.4642 100.063 24.2904 100.541 24.3918C101.025 24.4932 101.256 24.8408 101.379 25.2898C101.437 25.4998 101.43 25.7171 101.43 25.9344C101.43 27.9332 101.437 29.9393 101.423 31.9382C101.423 32.2134 101.502 32.2786 101.762 32.2786C102.847 32.2641 103.931 32.2641 105.015 32.2786C105.276 32.2858 105.326 32.1989 105.326 31.9527C105.319 29.7583 105.326 27.5494 105.319 25.3405ZM71.4066 26.492C71.4066 25.9126 71.3704 25.3333 71.2692 24.7684C70.9222 22.8999 69.939 21.5673 68.016 21.1545C65.7243 20.662 63.5266 21.0965 61.4012 21.9946C61.2494 22.0598 61.235 22.1684 61.235 22.3132C61.2422 23.2909 61.235 24.2686 61.235 25.2898C61.6904 25.0725 62.0952 24.8625 62.5073 24.6815C63.5845 24.218 64.6833 23.8414 65.8834 23.921C66.8015 23.9862 67.4015 24.4932 67.4955 25.2826C67.5244 25.5143 67.5027 25.6302 67.2063 25.6085C66.1364 25.536 65.0665 25.5071 64.0038 25.6592C61.9001 25.9633 60.7289 27.1221 60.5988 29.1209C60.5265 30.3087 60.953 31.2936 61.9868 31.9599C63.5989 32.9955 66.8087 32.8145 67.951 29.9103L68.1461 29.4106C68.1895 29.3092 68.2618 29.2585 68.3703 29.273C68.4859 29.2948 68.5293 29.3744 68.5293 29.4831C68.5221 29.6496 68.5148 29.8234 68.4859 29.9828C68.3558 30.6708 68.3919 31.3443 68.5293 32.0251C68.5727 32.2279 68.6594 32.293 68.8691 32.293C69.592 32.2786 70.3149 32.2713 71.0379 32.293C71.3343 32.3003 71.421 32.2279 71.421 31.9237C71.3993 30.1059 71.4066 28.2953 71.4066 26.492ZM67.322 27.926C67.1051 28.9616 66.093 29.78 65.0376 29.78C64.4592 29.78 64.0688 29.5555 63.9749 29.1572C63.8592 28.643 64.0978 28.2012 64.6616 27.9549C65.4858 27.5928 66.3533 27.6725 67.2136 27.6942C67.3943 27.7015 67.3437 27.8173 67.322 27.926ZM92.8341 21.7411C91.3377 21.0024 89.7617 20.7924 88.1351 21.0386C86.429 21.2993 85.0988 22.1539 84.318 23.74C83.6891 25.0291 83.5879 26.3979 83.7903 27.7956C83.9999 29.2368 84.6 30.4897 85.7784 31.4022C87.8026 32.9811 91.1497 32.9159 93.1811 31.2719C93.3329 31.1488 93.3619 31.0112 93.3619 30.8374C93.3546 29.809 93.3619 28.7878 93.3546 27.7594C93.3546 27.6725 93.4052 27.5711 93.2896 27.4914C92.704 27.8753 92.0967 28.2084 91.4316 28.4184C90.3256 28.7733 89.2195 28.8819 88.1206 28.404C87.4194 28.0998 87.0796 27.5421 87.0652 26.7817C87.0507 26.0358 87.376 25.4926 88.0122 25.1232C88.5038 24.8408 89.046 24.7394 89.6026 24.7321C90.9617 24.7177 92.1618 25.1812 93.3474 25.9561C93.3474 24.7973 93.3185 23.7038 93.3619 22.6102C93.3908 22.1684 93.2245 21.9366 92.8341 21.7411ZM75.9682 15.4404C78.2961 15.1869 80.0238 13.3256 80.1034 10.9864C80.1395 10.0232 80.1106 9.05995 80.1106 8.09674H80.1323C80.1323 7.02489 80.1251 5.95304 80.1395 4.87394C80.1395 4.67116 80.1178 4.57701 79.872 4.57701C79.1491 4.5915 78.4262 4.5915 77.7033 4.57701C77.5153 4.57701 77.4213 4.59874 77.4285 4.82325C77.4502 5.1926 77.4358 5.5692 77.4358 5.94579C77.4358 7.53909 77.4502 9.13238 77.4285 10.7257C77.4069 11.8772 76.5683 12.768 75.4477 12.8983C74.3416 13.0287 73.3729 12.3552 73.062 11.2399C72.9825 10.9574 72.9536 10.675 72.9536 10.3853C72.9536 8.56748 72.9464 6.74244 72.9609 4.92464C72.9609 4.67116 72.9319 4.56977 72.6355 4.57701C71.9632 4.60598 71.2837 4.59874 70.6113 4.57701C70.3511 4.56977 70.2643 4.62047 70.2716 4.91015C70.2932 6.90901 70.286 8.91511 70.3077 10.914C70.3149 11.9713 70.6475 12.9273 71.3343 13.7384C72.5488 15.1796 74.1465 15.6431 75.9682 15.4404ZM48.3596 15.0348C48.3596 15.2376 48.4102 15.3028 48.6199 15.2955C49.3211 15.281 50.0151 15.2738 50.7164 15.2955C50.9983 15.3028 51.0489 15.2159 51.0489 14.9551C51.0345 13.0866 51.0417 11.2181 51.0417 9.34964C51.0417 8.32125 51.5839 7.45942 52.4225 7.12628C53.9334 6.51793 55.5094 7.58978 55.5166 9.24101C55.5311 11.1602 55.5238 13.0794 55.5166 14.9913C55.5166 15.2231 55.5672 15.3028 55.813 15.2955C56.5142 15.281 57.2083 15.281 57.9095 15.2955C58.1481 15.3028 58.2059 15.2303 58.2059 14.9913C58.1914 13.9557 58.1987 12.9201 58.1987 11.8772C58.1987 10.914 58.2059 9.95075 58.1987 8.98029C58.1842 7.74911 57.7577 6.67002 56.8757 5.80095C55.6323 4.58425 54.1141 4.2149 52.4225 4.43941C50.1669 4.73634 48.4175 6.61932 48.3813 8.87166C48.3307 10.9285 48.3669 12.978 48.3596 15.0348ZM82.4746 18.4169C82.4746 18.1707 82.4023 18.12 82.1709 18.12C81.101 18.1345 80.0238 18.1417 78.9539 18.12C78.6647 18.1127 78.6286 18.2141 78.6286 18.4676C78.6358 20.7127 78.6358 22.9578 78.6358 25.2029C78.6358 27.4625 78.6431 29.7148 78.6286 31.9744C78.6286 32.2206 78.6864 32.3003 78.9467 32.3003C80.0166 32.2858 81.0938 32.2858 82.1637 32.3003C82.3878 32.3003 82.4746 32.2641 82.4746 32.0033C82.4673 27.4625 82.4673 22.9433 82.4746 18.4169ZM62.3989 7.10455C62.6808 7.09731 62.7531 7.16973 62.7531 7.45218C62.7387 9.95799 62.7531 12.471 62.7387 14.9769C62.7387 15.2231 62.7965 15.3028 63.0495 15.2955C63.7146 15.2738 64.3725 15.2665 65.0376 15.2955C65.3629 15.31 65.4279 15.2086 65.4279 14.8972C65.4135 12.4131 65.4279 9.92902 65.4135 7.44494C65.4135 7.15525 65.493 7.09007 65.7677 7.09731C66.6135 7.11904 67.4521 7.09731 68.298 7.11179C68.5438 7.11904 68.6016 7.03937 68.5944 6.80762C68.5799 6.1703 68.5727 5.52574 68.5944 4.88843C68.6016 4.62771 68.5148 4.57701 68.2691 4.57701C66.8738 4.5915 65.4785 4.58425 64.0761 4.58425C62.6664 4.58425 61.2567 4.5915 59.8469 4.57701C59.6156 4.57701 59.5433 4.63495 59.5505 4.87394C59.565 5.51126 59.565 6.15582 59.5505 6.79314C59.5433 7.03937 59.6011 7.11904 59.8614 7.11904C60.7145 7.09731 61.5603 7.11904 62.3989 7.10455ZM95.9066 7.11904C96.1668 7.12628 96.2247 7.04661 96.2174 6.79314C96.203 6.15582 96.203 5.51126 96.2174 4.87394C96.2247 4.63495 96.1524 4.57701 95.921 4.57701C94.5258 4.5915 93.1233 4.58425 91.7281 4.58425C90.3039 4.58425 88.8869 4.5915 87.4628 4.57701C87.2459 4.57701 87.1736 4.62771 87.1808 4.85222C87.1953 5.50402 87.1953 6.15582 87.1808 6.80762C87.1736 7.04661 87.2531 7.11179 87.4845 7.10455C88.3158 7.09007 89.1472 7.11179 89.9786 7.09007C90.2822 7.08282 90.3762 7.14076 90.3762 7.47391C90.3617 9.97248 90.3689 12.471 90.3617 14.9624C90.3617 15.2159 90.4268 15.2883 90.6798 15.281C91.3449 15.2665 92.0028 15.2593 92.6679 15.281C92.9643 15.2883 93.051 15.2231 93.051 14.9117C93.0365 12.4131 93.051 9.91454 93.0365 7.42321C93.0365 7.148 93.1088 7.08282 93.3763 7.09007C94.2221 7.11904 95.068 7.09731 95.9066 7.11904ZM110.755 22.0018V21.6614C109.469 22.096 108.204 22.096 106.938 21.6687C106.931 21.7411 106.924 21.7846 106.924 21.8353C106.924 25.2246 106.924 28.614 106.917 32.0033C106.917 32.2279 106.982 32.293 107.199 32.2858C108.261 32.2786 109.317 32.2713 110.38 32.2858C110.676 32.293 110.763 32.2279 110.763 31.9164C110.748 28.614 110.755 25.3043 110.755 22.0018ZM76.9297 22.0018V21.6832C75.1152 22.0887 74.5585 22.0887 73.1127 21.6759C73.1054 21.7483 73.0982 21.7918 73.0982 21.8353C73.0982 25.2246 73.0982 28.614 73.091 32.0033C73.091 32.2279 73.156 32.293 73.3729 32.2858C74.4356 32.2786 75.4911 32.2713 76.5538 32.2858C76.8502 32.293 76.937 32.2279 76.937 31.9164C76.9225 28.614 76.9297 25.3043 76.9297 22.0018ZM85.1928 15.2955C85.453 15.3028 85.5109 15.2159 85.5109 14.9696C85.5036 13.2967 85.5036 11.6165 85.5036 9.94351C85.5036 8.27055 85.4964 6.59035 85.5109 4.9174C85.5109 4.67116 85.453 4.58425 85.1928 4.5915C84.506 4.61322 83.8192 4.60598 83.1324 4.5915C82.9156 4.58425 82.8216 4.62047 82.8216 4.88119C82.8288 8.25607 82.8288 11.6309 82.8216 15.0058C82.8216 15.2665 82.9228 15.2955 83.1324 15.2883C83.8264 15.281 84.5132 15.281 85.1928 15.2955ZM43.3136 15.2955C44.0004 15.281 44.6872 15.281 45.3739 15.2955C45.598 15.3028 45.6559 15.2303 45.6559 15.0131C45.6486 11.6382 45.6486 8.25607 45.6559 4.88119C45.6559 4.65668 45.598 4.5915 45.3739 4.59874C44.6872 4.61322 44.0004 4.61322 43.3136 4.59874C43.0606 4.5915 42.9955 4.67116 42.9955 4.9174C43.01 6.58311 43.0027 8.24883 43.0027 9.91454C43.0027 11.602 43.01 13.2894 42.9955 14.9841C42.9955 15.2303 43.0606 15.3028 43.3136 15.2955ZM76.6333 18.3952C76.1345 18.1272 75.5923 18.0548 75.0284 18.0476C74.3127 18.0476 73.7199 18.1852 73.2934 18.4386C72.3608 19.0035 72.3319 20.1188 73.2862 20.6475C74.385 21.2559 75.5417 21.2341 76.6695 20.691C77.1394 20.4665 77.4358 20.0826 77.4141 19.5177C77.3996 18.9746 77.0743 18.6342 76.6333 18.3952ZM110.539 18.4459C109.433 17.8593 108.269 17.8882 107.148 18.4386C106.707 18.6559 106.425 19.0398 106.425 19.5612C106.425 20.0971 106.743 20.452 107.184 20.6982C107.69 20.9807 108.247 21.0603 108.825 21.0821C109.411 21.0603 109.989 20.9879 110.517 20.6837C111.493 20.1261 111.529 18.9746 110.539 18.4459Z" fill="#B3B3B3"/>
</svg>
