<svg width="167" height="28" viewBox="0 0 167 28" fill="none" xmlns="http://www.w3.org/2000/svg">
<path fill-rule="evenodd" clip-rule="evenodd" d="M44.627 0L30.387 27.8495H17.0117L22.9712 16.3074H22.7038C17.7874 22.6924 10.4519 26.8956 0 27.8495V16.4672C0 16.4672 6.68632 16.0721 10.617 11.9377H0V0.000219985H11.9324V9.81866L12.2002 9.81756L17.0762 0.000219985H26.1004V9.75641L26.3682 9.75598L31.4271 0H44.627Z" fill="#B3B3B3"/>
<path d="M122.278 24.7759H126.121V2.70801H122.278V24.7759Z" fill="#B3B3B3"/>
<path fill-rule="evenodd" clip-rule="evenodd" d="M101.093 24.5501C101.928 24.8976 102.777 25.0711 103.641 25.0711C105.067 25.0711 106.343 24.7238 107.469 24.0291C108.595 23.3344 109.468 22.3766 110.088 21.1562C110.707 19.9262 111.017 18.5321 111.017 16.9736C111.017 15.415 110.698 14.0208 110.06 12.7909C109.421 11.561 108.535 10.6081 107.399 9.93211C106.264 9.24675 104.973 8.90875 103.528 8.91814C102.608 8.91814 101.726 9.09652 100.881 9.4533C100.037 9.81006 99.333 10.317 98.7699 10.9742C98.7264 11.0243 98.6842 11.0748 98.6432 11.1259V2.72168H94.7861V24.7755H98.6151L98.6073 22.7153C98.7065 22.8367 98.8122 22.9553 98.9248 23.0714C99.5348 23.7005 100.257 24.1934 101.093 24.5501ZM105.034 20.9871C104.405 21.372 103.687 21.5646 102.88 21.5646C102.083 21.5646 101.351 21.3674 100.684 20.9731C100.018 20.5693 99.4878 20.0201 99.0936 19.3254C98.7089 18.6307 98.5166 17.842 98.5166 16.9595C98.5071 16.0769 98.6949 15.2883 99.0796 14.5935C99.4737 13.8894 100.004 13.3449 100.67 12.9599C101.337 12.5656 102.073 12.3731 102.88 12.3825C103.687 12.3731 104.405 12.5609 105.034 12.9458C105.672 13.3214 106.16 13.8612 106.498 14.5654C106.845 15.2601 107.019 16.0582 107.019 16.9595C107.019 17.8607 106.845 18.6588 106.498 19.3536C106.16 20.0483 105.672 20.5928 105.034 20.9871Z" fill="#B3B3B3"/>
<path d="M50.1946 4.0459H54.5865L58.5154 18.4001L62.6948 4.0459H66.3548L70.8876 18.1121L74.6601 4.0459H78.686L72.7456 24.7759H68.9589L64.3498 11.0344L60.1187 24.7759H56.2898L50.1946 4.0459Z" fill="#B3B3B3"/>
<path fill-rule="evenodd" clip-rule="evenodd" d="M85.1718 25.1421C83.6421 25.1513 82.2626 24.8133 81.0332 24.128C79.8133 23.4333 78.8513 22.4709 78.1475 21.2411C77.453 20.0111 77.1057 18.6075 77.1057 17.0303C77.1057 15.5 77.4624 14.1151 78.1756 12.8758C78.8887 11.6365 79.8555 10.6695 81.0754 9.97476C82.2954 9.28 83.6561 8.93262 85.1577 8.93262C86.8469 8.93262 88.325 9.30817 89.5919 10.0593C90.8682 10.8103 91.8207 11.8759 92.4495 13.2561C93.0876 14.6268 93.3175 16.1994 93.1393 17.9738H81.0814C81.1151 18.6807 81.2914 19.3239 81.6104 19.9031C81.967 20.5416 82.4644 21.0392 83.1024 21.3959C83.7406 21.7527 84.4539 21.931 85.2422 21.931C85.8427 21.9218 86.4011 21.8184 86.9173 21.6213C87.4334 21.4148 87.8698 21.1378 88.2265 20.7905C88.5924 20.443 88.8505 20.0487 89.0006 19.6075H93.0267C92.7827 20.6871 92.2947 21.6495 91.5627 22.4944C90.8306 23.33 89.9109 23.9825 88.8036 24.452C87.6961 24.9213 86.4855 25.1513 85.1718 25.1421ZM81.6245 14.101C81.3995 14.4934 81.2438 14.9159 81.157 15.3685H89.1498C89.0918 14.7967 88.9154 14.2756 88.6205 13.8053C88.2828 13.2514 87.8229 12.8242 87.2411 12.5238C86.6592 12.2139 86.0023 12.059 85.2703 12.059C84.4914 12.059 83.7829 12.2374 83.1448 12.5942C82.5066 12.9509 81.9997 13.4532 81.6245 14.101Z" fill="#B3B3B3"/>
<path d="M113.846 9.25629C113.846 7.99821 114.133 6.88097 114.705 5.90456C115.277 4.91876 116.08 4.15359 117.112 3.60906C118.154 3.05512 119.369 2.76878 120.758 2.75V6.17213C120.11 6.18152 119.557 6.31766 119.097 6.58054C118.646 6.83402 118.299 7.20488 118.055 7.69308C117.83 8.14254 117.709 8.6636 117.691 9.25629H120.673V12.5094H117.689V24.7757H113.846V12.5094H111.369V9.25629H113.846Z" fill="#B3B3B3"/>
<path fill-rule="evenodd" clip-rule="evenodd" d="M135.89 25.1143C134.323 25.1143 132.92 24.7715 131.681 24.0862C130.452 23.3915 129.485 22.4337 128.781 21.2133C128.087 19.9834 127.74 18.5892 127.74 17.0307C127.74 15.4628 128.087 14.0639 128.781 12.834C129.485 11.5947 130.452 10.6324 131.681 9.94699C132.92 9.26163 134.323 8.91895 135.89 8.91895C137.467 8.91895 138.875 9.26163 140.113 9.94699C141.362 10.6324 142.333 11.59 143.027 12.8199C143.722 14.0498 144.074 15.4534 144.083 17.0307C144.074 18.5892 143.722 19.9834 143.027 21.2133C142.342 22.4337 141.376 23.3915 140.127 24.0862C138.879 24.7715 137.467 25.1143 135.89 25.1143ZM135.89 21.5795C136.716 21.5795 137.448 21.3917 138.086 21.0161C138.724 20.6312 139.217 20.096 139.564 19.4107C139.912 18.7159 140.085 17.9226 140.085 17.0307C140.085 16.1294 139.912 15.3313 139.564 14.6366C139.217 13.9418 138.724 13.4067 138.086 13.0311C137.448 12.6462 136.716 12.4538 135.89 12.4538C135.074 12.4538 134.347 12.6462 133.708 13.0311C133.08 13.4067 132.592 13.9418 132.244 14.6366C131.897 15.3313 131.728 16.1294 131.738 17.0307C131.738 17.9226 131.911 18.7159 132.258 19.4107C132.615 20.096 133.103 20.6312 133.723 21.0161C134.351 21.3917 135.074 21.5795 135.89 21.5795Z" fill="#B3B3B3"/>
<path d="M148.236 9.25684H143.956L148.587 24.7762H152.332L155.378 14.864L158.667 24.7762H162.355L167 9.25684H163.13L160.495 18.9166L157.583 9.25684H153.838L150.94 19.1295L148.236 9.25684Z" fill="#B3B3B3"/>
</svg>
